# Cleaned and optimized OBJ model for Cosmo
# Vertices: 325, UVs: 325, Normals: 325, Faces: 256
v 11.995900 13.533700 -60.000000
v 11.288000 14.048000 -60.000000
v 10.580100 14.562300 -60.000000
v 9.872200 15.076600 -60.000000
v 9.164400 15.590900 -60.000000
v 11.147200 13.764200 -58.968800
v 10.425900 14.239900 -58.968800
v 9.704500 14.715500 -58.968800
v 8.983200 15.191200 -58.968800
v 8.261900 15.666900 -58.968800
v 10.302700 13.946100 -57.937500
v 9.569900 14.383100 -57.937500
v 8.837200 14.820000 -57.937500
v 8.104400 15.256900 -57.937500
v 7.371700 15.693900 -57.937500
v 9.465000 14.080500 -56.906200
v 8.722800 14.478600 -56.906200
v 7.980700 14.876700 -56.906200
v 7.238600 15.274900 -56.906200
v 6.496400 15.673000 -56.906200
v 8.636700 14.168200 -55.875000
v 7.887100 14.527600 -55.875000
v 7.137600 14.887000 -55.875000
v 6.388000 15.246400 -55.875000
v 5.638500 15.605700 -55.875000
v 7.820200 14.210500 -54.843800
v 7.065200 14.531300 -54.843800
v 6.310200 14.852100 -54.843800
v 5.555200 15.172900 -54.843800
v 4.800200 15.493600 -54.843800
v 7.018000 14.208600 -53.812500
v 6.259500 14.491100 -53.812500
v 5.501000 14.773500 -53.812500
v 4.742500 15.055900 -53.812500
v 3.984000 15.338400 -53.812500
v 6.232300 14.163900 -52.781200
v 5.472200 14.408400 -52.781200
v 4.712100 14.652800 -52.781200
v 3.952000 14.897200 -52.781200
v 3.191900 15.141700 -52.781200
v 5.465300 14.077900 -51.750000
v 4.705500 14.284800 -51.750000
v 3.945700 14.491700 -51.750000
v 3.185800 14.698600 -51.750000
v 2.426000 14.905500 -51.750000
v 4.719200 13.952200 -50.718800
v 3.961500 14.122100 -50.718800
v 3.203700 14.292000 -50.718800
v 2.445900 14.461800 -50.718800
v 1.688200 14.631700 -50.718800
v 3.995900 13.788600 -49.687500
v 3.242000 13.922100 -49.687500
v 2.488100 14.055500 -49.687500
v 1.734200 14.189000 -49.687500
v 0.980300 14.322400 -49.687500
v 3.297300 13.588800 -48.656200
v 2.549000 13.686600 -48.656200
v 1.800600 13.784300 -48.656200
v 1.052300 13.882100 -48.656200
v 0.304000 13.979800 -48.656200
v 2.625100 13.354800 -47.625000
v 1.884000 13.417600 -47.625000
v 1.142900 13.480500 -47.625000
v 0.401800 13.543300 -47.625000
v -0.339300 13.606100 -47.625000
v 1.981000 13.088600 -46.593800
v 1.248800 13.117300 -46.593800
v 0.516500 13.146100 -46.593800
v -0.215700 13.174900 -46.593800
v -0.948000 13.203600 -46.593800
v 1.366500 12.792100 -45.562500
v 0.644600 12.787800 -45.562500
v -0.077200 12.783400 -45.562500
v -0.799100 12.779100 -45.562500
v -1.521000 12.774700 -45.562500
v 0.782900 12.467700 -44.531200
v 0.072900 12.431200 -44.531200
v -0.637100 12.394700 -44.531200
v -1.347100 12.358200 -44.531200
v -2.057100 12.321700 -44.531200
v 0.231600 12.117400 -43.500000
v -0.465100 12.049800 -43.500000
v -1.161900 11.982300 -43.500000
v -1.858600 11.914700 -43.500000
v -2.555300 11.847100 -43.500000
v -0.286500 11.743500 -42.468800
v -0.968600 11.646000 -42.468800
v -1.650700 11.548500 -42.468800
v -2.332800 11.451000 -42.468800
v -3.015000 11.353500 -42.468800
v -0.770200 11.348300 -41.437500
v -1.436500 11.222000 -41.437500
v -2.102700 11.095800 -41.437500
v -2.769000 10.969500 -41.437500
v -3.435300 10.843300 -41.437500
v -1.218900 10.934200 -40.406200
v -1.868100 10.780400 -40.406200
v -2.517300 10.626600 -40.406200
v -3.166500 10.472800 -40.406200
v -3.815700 10.319000 -40.406200
v -1.631700 10.503400 -39.375000
v -2.262800 10.323400 -39.375000
v -2.893800 10.143400 -39.375000
v -3.524900 9.963300 -39.375000
v -4.156000 9.783300 -39.375000
v -2.008200 10.058500 -38.343800
v -2.620100 9.853500 -38.343800
v -3.232000 9.648600 -38.343800
v -3.843900 9.443600 -38.343800
v -4.455800 9.238600 -38.343800
v -2.347900 9.601800 -37.312500
v -2.939700 9.373200 -37.312500
v -3.531500 9.144700 -37.312500
v -4.123200 8.916200 -37.312500
v -4.715000 8.687600 -37.312500
v -2.650600 9.135600 -36.281200
v -3.221400 8.884900 -36.281200
v -3.792200 8.634200 -36.281200
v -4.363000 8.383500 -36.281200
v -4.933800 8.132800 -36.281200
v -2.916200 8.662500 -35.250000
v -3.465200 8.391000 -35.250000
v -4.014300 8.119600 -35.250000
v -4.563400 7.848100 -35.250000
v -5.112400 7.576600 -35.250000
v -3.144600 8.184700 -34.218800
v -3.671200 7.894000 -34.218800
v -4.197900 7.603200 -34.218800
v -4.724500 7.312500 -34.218800
v -5.251100 7.021700 -34.218800
v -3.336100 7.704800 -33.187500
v -3.839700 7.396200 -33.187500
v -4.343300 7.087600 -33.187500
v -4.846900 6.779000 -33.187500
v -5.350500 6.470400 -33.187500
v -3.490900 7.224900 -32.156200
v -3.970900 6.900000 -32.156200
v -4.451000 6.575000 -32.156200
v -4.931000 6.250100 -32.156200
v -5.411100 5.925100 -32.156200
v -3.609500 6.747600 -31.125000
v -4.065500 6.407700 -31.125000
v -4.521600 6.067900 -31.125000
v -4.977700 5.728100 -31.125000
v -5.433700 5.388200 -31.125000
v -3.692400 6.274900 -30.093800
v -4.124100 5.921700 -30.093800
v -4.555900 5.568500 -30.093800
v -4.987600 5.215300 -30.093800
v -5.419300 4.862000 -30.093800
v -3.740400 5.809200 -29.062500
v -4.147500 5.444100 -29.062500
v -4.554700 5.079000 -29.062500
v -4.961800 4.713900 -29.062500
v -5.369000 4.348800 -29.062500
v -3.754200 5.352700 -28.031200
v -4.136600 4.977200 -28.031200
v -4.519000 4.601600 -28.031200
v -4.901400 4.226100 -28.031200
v -5.283800 3.850600 -28.031200
v -3.734900 4.907400 -27.000000
v -4.092400 4.522900 -27.000000
v -4.449900 4.138500 -27.000000
v -4.807500 3.754000 -27.000000
v -5.165000 3.369600 -27.000000
v -3.683400 4.475400 -25.968800
v -4.016100 4.083400 -25.968800
v -4.348800 3.691500 -25.968800
v -4.681400 3.299600 -25.968800
v -5.014100 2.907700 -25.968800
v -3.601100 4.058600 -24.937500
v -3.909000 3.660700 -24.937500
v -4.216800 3.262800 -24.937500
v -4.524700 2.864800 -24.937500
v -4.832600 2.466900 -24.937500
v -3.489100 3.659000 -23.906200
v -3.772300 3.256500 -23.906200
v -4.055600 2.854000 -23.906200
v -4.338800 2.451500 -23.906200
v -4.622100 2.049000 -23.906200
v -3.348900 3.278400 -22.875000
v -3.607700 2.872600 -22.875000
v -3.866600 2.466900 -22.875000
v -4.125400 2.061200 -22.875000
v -4.384300 1.655500 -22.875000
v -3.182000 2.918400 -21.843800
v -3.416800 2.510800 -21.843800
v -3.651500 2.103300 -21.843800
v -3.886200 1.695800 -21.843800
v -4.121000 1.288200 -21.843800
v -2.990000 2.580700 -20.812500
v -3.201000 2.172600 -20.812500
v -3.412100 1.764600 -20.812500
v -3.623100 1.356500 -20.812500
v -3.834100 0.948500 -20.812500
v -2.774600 2.266700 -19.781200
v -2.962400 1.859500 -19.781200
v -3.150100 1.452200 -19.781200
v -3.337900 1.045000 -19.781200
v -3.525600 0.637700 -19.781200
v -2.537600 1.977900 -18.750000
v -2.702600 1.572700 -18.750000
v -2.867600 1.167500 -18.750000
v -3.032600 0.762300 -18.750000
v -3.197500 0.357100 -18.750000
v -2.280800 1.715600 -17.718800
v -2.423600 1.313700 -17.718800
v -2.566400 0.911700 -17.718800
v -2.709200 0.509800 -17.718800
v -2.852000 0.107800 -17.718800
v -2.402100 1.370500 -16.687500
v -2.490100 0.964300 -16.687500
v -2.578000 0.558100 -16.687500
v -2.665900 0.151800 -16.687500
v -2.753900 -0.254400 -16.687500
v -2.513900 0.711200 -15.656200
v -2.498000 0.306900 -15.656200
v -2.482100 -0.097500 -15.656200
v -2.466200 -0.501900 -15.656200
v -2.450300 -0.906300 -15.656200
v -2.461100 0.083200 -14.625000
v -2.347900 -0.293900 -14.625000
v -2.234600 -0.671000 -14.625000
v -2.121400 -1.048100 -14.625000
v -2.008200 -1.425300 -14.625000
v -2.266100 -0.476400 -13.593800
v -2.067900 -0.803900 -13.593800
v -1.869700 -1.131400 -13.593800
v -1.671600 -1.458900 -13.593800
v -1.473400 -1.786400 -13.593800
v -1.958500 -0.939100 -12.562500
v -1.692600 -1.199100 -12.562500
v -1.426700 -1.459100 -12.562500
v -1.160800 -1.719100 -12.562500
v -0.894900 -1.979000 -12.562500
v -1.572300 -1.286700 -11.531200
v -1.259400 -1.466600 -11.531200
v -0.946500 -1.646400 -11.531200
v -0.633600 -1.826300 -11.531200
v -0.320600 -2.006200 -11.531200
v -1.143200 -1.511200 -10.500000
v -0.805800 -1.604300 -10.500000
v -0.468500 -1.697400 -10.500000
v -0.131100 -1.790500 -10.500000
v 0.206300 -1.883600 -10.500000
v -0.705400 -1.614400 -9.468800
v -0.366400 -1.620100 -9.468800
v -0.027400 -1.625800 -9.468800
v 0.311700 -1.631500 -9.468800
v 0.650700 -1.637200 -9.468800
v -0.289200 -1.606600 -8.437500
v 0.029900 -1.530000 -8.437500
v 0.348900 -1.453400 -8.437500
v 0.668000 -1.376800 -8.437500
v 0.987100 -1.300200 -8.437500
v 0.080800 -1.505000 -7.406200
v 0.360900 -1.356200 -7.406200
v 0.641100 -1.207500 -7.406200
v 0.921200 -1.058800 -7.406200
v 1.201400 -0.910000 -7.406200
v 0.386800 -1.331000 -6.375000
v 0.612800 -1.124400 -6.375000
v 0.838900 -0.917800 -6.375000
v 1.064900 -0.711200 -6.375000
v 1.291000 -0.504500 -6.375000
v 0.618700 -1.108500 -5.343800
v 0.780000 -0.861200 -5.343800
v 0.941300 -0.613800 -5.343800
v 1.102600 -0.366400 -5.343800
v 1.263900 -0.119000 -5.343800
v 0.773600 -0.861200 -4.312500
v 0.864500 -0.591800 -4.312500
v 0.955400 -0.322300 -4.312500
v 1.046300 -0.052900 -4.312500
v 1.137200 0.216600 -4.312500
v 0.855200 -0.610800 -3.281200
v 0.875200 -0.338100 -3.281200
v 0.895100 -0.065400 -3.281200
v 0.915000 0.207300 -3.281200
v 0.934900 0.480000 -3.281200
v 0.872500 -0.375200 -2.250000
v 0.825600 -0.117000 -2.250000
v 0.778700 0.141300 -2.250000
v 0.731900 0.399600 -2.250000
v 0.685000 0.657900 -2.250000
v 0.837800 -0.167800 -1.218800
v 0.732500 0.060700 -1.218800
v 0.627200 0.289100 -1.218800
v 0.521800 0.517600 -1.218800
v 0.416500 0.746000 -1.218800
v 0.765500 0.003500 -0.187500
v 0.613400 0.190000 -0.187500
v 0.461300 0.376400 -0.187500
v 0.309200 0.562800 -0.187500
v 0.157000 0.749300 -0.187500
v 0.670000 0.135800 0.843800
v 0.485000 0.271900 0.843800
v 0.299900 0.407900 0.843800
v 0.114800 0.544000 0.843800
v -0.070200 0.680000 0.843800
v 0.563900 0.230800 1.875000
v 0.360900 0.312200 1.875000
v 0.157900 0.393600 1.875000
v -0.045100 0.475100 1.875000
v -0.248200 0.556500 1.875000
v 0.457200 0.293400 2.906200
v 0.251100 0.320200 2.906200
v 0.045000 0.346900 2.906200
v -0.161100 0.373600 2.906200
v -0.367200 0.400400 2.906200
v 0.355700 0.331200 3.937500
v 0.160300 0.307000 3.937500
v -0.035100 0.282800 3.937500
v -0.230500 0.258500 3.937500
v -0.425800 0.234300 3.937500
v 0.260700 0.352500 4.968800
v 0.087700 0.284200 4.968800
v -0.085200 0.216000 4.968800
v -0.258200 0.147700 4.968800
v -0.431100 0.079500 4.968800
v 0.165600 0.367500 6.000000
v 0.024000 0.264700 6.000000
v -0.117600 0.161800 6.000000
v -0.259100 0.058900 6.000000
v -0.400700 -0.043900 6.000000
vt 0.000000 0.000000
vt 0.250000 0.000000
vt 0.500000 0.000000
vt 0.750000 0.000000
vt 1.000000 0.000000
vt 0.000000 0.015625
vt 0.250000 0.015625
vt 0.500000 0.015625
vt 0.750000 0.015625
vt 1.000000 0.015625
vt 0.000000 0.031250
vt 0.250000 0.031250
vt 0.500000 0.031250
vt 0.750000 0.031250
vt 1.000000 0.031250
vt 0.000000 0.046875
vt 0.250000 0.046875
vt 0.500000 0.046875
vt 0.750000 0.046875
vt 1.000000 0.046875
vt 0.000000 0.062500
vt 0.250000 0.062500
vt 0.500000 0.062500
vt 0.750000 0.062500
vt 1.000000 0.062500
vt 0.000000 0.078125
vt 0.250000 0.078125
vt 0.500000 0.078125
vt 0.750000 0.078125
vt 1.000000 0.078125
vt 0.000000 0.093750
vt 0.250000 0.093750
vt 0.500000 0.093750
vt 0.750000 0.093750
vt 1.000000 0.093750
vt 0.000000 0.109375
vt 0.250000 0.109375
vt 0.500000 0.109375
vt 0.750000 0.109375
vt 1.000000 0.109375
vt 0.000000 0.125000
vt 0.250000 0.125000
vt 0.500000 0.125000
vt 0.750000 0.125000
vt 1.000000 0.125000
vt 0.000000 0.140625
vt 0.250000 0.140625
vt 0.500000 0.140625
vt 0.750000 0.140625
vt 1.000000 0.140625
vt 0.000000 0.156250
vt 0.250000 0.156250
vt 0.500000 0.156250
vt 0.750000 0.156250
vt 1.000000 0.156250
vt 0.000000 0.171875
vt 0.250000 0.171875
vt 0.500000 0.171875
vt 0.750000 0.171875
vt 1.000000 0.171875
vt 0.000000 0.187500
vt 0.250000 0.187500
vt 0.500000 0.187500
vt 0.750000 0.187500
vt 1.000000 0.187500
vt 0.000000 0.203125
vt 0.250000 0.203125
vt 0.500000 0.203125
vt 0.750000 0.203125
vt 1.000000 0.203125
vt 0.000000 0.218750
vt 0.250000 0.218750
vt 0.500000 0.218750
vt 0.750000 0.218750
vt 1.000000 0.218750
vt 0.000000 0.234375
vt 0.250000 0.234375
vt 0.500000 0.234375
vt 0.750000 0.234375
vt 1.000000 0.234375
vt 0.000000 0.250000
vt 0.250000 0.250000
vt 0.500000 0.250000
vt 0.750000 0.250000
vt 1.000000 0.250000
vt 0.000000 0.265625
vt 0.250000 0.265625
vt 0.500000 0.265625
vt 0.750000 0.265625
vt 1.000000 0.265625
vt 0.000000 0.281250
vt 0.250000 0.281250
vt 0.500000 0.281250
vt 0.750000 0.281250
vt 1.000000 0.281250
vt 0.000000 0.296875
vt 0.250000 0.296875
vt 0.500000 0.296875
vt 0.750000 0.296875
vt 1.000000 0.296875
vt 0.000000 0.312500
vt 0.250000 0.312500
vt 0.500000 0.312500
vt 0.750000 0.312500
vt 1.000000 0.312500
vt 0.000000 0.328125
vt 0.250000 0.328125
vt 0.500000 0.328125
vt 0.750000 0.328125
vt 1.000000 0.328125
vt 0.000000 0.343750
vt 0.250000 0.343750
vt 0.500000 0.343750
vt 0.750000 0.343750
vt 1.000000 0.343750
vt 0.000000 0.359375
vt 0.250000 0.359375
vt 0.500000 0.359375
vt 0.750000 0.359375
vt 1.000000 0.359375
vt 0.000000 0.375000
vt 0.250000 0.375000
vt 0.500000 0.375000
vt 0.750000 0.375000
vt 1.000000 0.375000
vt 0.000000 0.390625
vt 0.250000 0.390625
vt 0.500000 0.390625
vt 0.750000 0.390625
vt 1.000000 0.390625
vt 0.000000 0.406250
vt 0.250000 0.406250
vt 0.500000 0.406250
vt 0.750000 0.406250
vt 1.000000 0.406250
vt 0.000000 0.421875
vt 0.250000 0.421875
vt 0.500000 0.421875
vt 0.750000 0.421875
vt 1.000000 0.421875
vt 0.000000 0.437500
vt 0.250000 0.437500
vt 0.500000 0.437500
vt 0.750000 0.437500
vt 1.000000 0.437500
vt 0.000000 0.453125
vt 0.250000 0.453125
vt 0.500000 0.453125
vt 0.750000 0.453125
vt 1.000000 0.453125
vt 0.000000 0.468750
vt 0.250000 0.468750
vt 0.500000 0.468750
vt 0.750000 0.468750
vt 1.000000 0.468750
vt 0.000000 0.484375
vt 0.250000 0.484375
vt 0.500000 0.484375
vt 0.750000 0.484375
vt 1.000000 0.484375
vt 0.000000 0.500000
vt 0.250000 0.500000
vt 0.500000 0.500000
vt 0.750000 0.500000
vt 1.000000 0.500000
vt 0.000000 0.515625
vt 0.250000 0.515625
vt 0.500000 0.515625
vt 0.750000 0.515625
vt 1.000000 0.515625
vt 0.000000 0.531250
vt 0.250000 0.531250
vt 0.500000 0.531250
vt 0.750000 0.531250
vt 1.000000 0.531250
vt 0.000000 0.546875
vt 0.250000 0.546875
vt 0.500000 0.546875
vt 0.750000 0.546875
vt 1.000000 0.546875
vt 0.000000 0.562500
vt 0.250000 0.562500
vt 0.500000 0.562500
vt 0.750000 0.562500
vt 1.000000 0.562500
vt 0.000000 0.578125
vt 0.250000 0.578125
vt 0.500000 0.578125
vt 0.750000 0.578125
vt 1.000000 0.578125
vt 0.000000 0.593750
vt 0.250000 0.593750
vt 0.500000 0.593750
vt 0.750000 0.593750
vt 1.000000 0.593750
vt 0.000000 0.609375
vt 0.250000 0.609375
vt 0.500000 0.609375
vt 0.750000 0.609375
vt 1.000000 0.609375
vt 0.000000 0.625000
vt 0.250000 0.625000
vt 0.500000 0.625000
vt 0.750000 0.625000
vt 1.000000 0.625000
vt 0.000000 0.640625
vt 0.250000 0.640625
vt 0.500000 0.640625
vt 0.750000 0.640625
vt 1.000000 0.640625
vt 0.000000 0.656250
vt 0.250000 0.656250
vt 0.500000 0.656250
vt 0.750000 0.656250
vt 1.000000 0.656250
vt 0.000000 0.671875
vt 0.250000 0.671875
vt 0.500000 0.671875
vt 0.750000 0.671875
vt 1.000000 0.671875
vt 0.000000 0.687500
vt 0.250000 0.687500
vt 0.500000 0.687500
vt 0.750000 0.687500
vt 1.000000 0.687500
vt 0.000000 0.703125
vt 0.250000 0.703125
vt 0.500000 0.703125
vt 0.750000 0.703125
vt 1.000000 0.703125
vt 0.000000 0.718750
vt 0.250000 0.718750
vt 0.500000 0.718750
vt 0.750000 0.718750
vt 1.000000 0.718750
vt 0.000000 0.734375
vt 0.250000 0.734375
vt 0.500000 0.734375
vt 0.750000 0.734375
vt 1.000000 0.734375
vt 0.000000 0.750000
vt 0.250000 0.750000
vt 0.500000 0.750000
vt 0.750000 0.750000
vt 1.000000 0.750000
vt 0.000000 0.765625
vt 0.250000 0.765625
vt 0.500000 0.765625
vt 0.750000 0.765625
vt 1.000000 0.765625
vt 0.000000 0.781250
vt 0.250000 0.781250
vt 0.500000 0.781250
vt 0.750000 0.781250
vt 1.000000 0.781250
vt 0.000000 0.796875
vt 0.250000 0.796875
vt 0.500000 0.796875
vt 0.750000 0.796875
vt 1.000000 0.796875
vt 0.000000 0.812500
vt 0.250000 0.812500
vt 0.500000 0.812500
vt 0.750000 0.812500
vt 1.000000 0.812500
vt 0.000000 0.828125
vt 0.250000 0.828125
vt 0.500000 0.828125
vt 0.750000 0.828125
vt 1.000000 0.828125
vt 0.000000 0.843750
vt 0.250000 0.843750
vt 0.500000 0.843750
vt 0.750000 0.843750
vt 1.000000 0.843750
vt 0.000000 0.859375
vt 0.250000 0.859375
vt 0.500000 0.859375
vt 0.750000 0.859375
vt 1.000000 0.859375
vt 0.000000 0.875000
vt 0.250000 0.875000
vt 0.500000 0.875000
vt 0.750000 0.875000
vt 1.000000 0.875000
vt 0.000000 0.890625
vt 0.250000 0.890625
vt 0.500000 0.890625
vt 0.750000 0.890625
vt 1.000000 0.890625
vt 0.000000 0.906250
vt 0.250000 0.906250
vt 0.500000 0.906250
vt 0.750000 0.906250
vt 1.000000 0.906250
vt 0.000000 0.921875
vt 0.250000 0.921875
vt 0.500000 0.921875
vt 0.750000 0.921875
vt 1.000000 0.921875
vt 0.000000 0.937500
vt 0.250000 0.937500
vt 0.500000 0.937500
vt 0.750000 0.937500
vt 1.000000 0.937500
vt 0.000000 0.953125
vt 0.250000 0.953125
vt 0.500000 0.953125
vt 0.750000 0.953125
vt 1.000000 0.953125
vt 0.000000 0.968750
vt 0.250000 0.968750
vt 0.500000 0.968750
vt 0.750000 0.968750
vt 1.000000 0.968750
vt 0.000000 0.984375
vt 0.250000 0.984375
vt 0.500000 0.984375
vt 0.750000 0.984375
vt 1.000000 0.984375
vt 0.000000 1.000000
vt 0.250000 1.000000
vt 0.500000 1.000000
vt 0.750000 1.000000
vt 1.000000 1.000000
vn 0.562530 0.774285 0.289901
vn 0.556344 0.765771 0.322608
vn 0.549641 0.756545 0.354309
vn 0.542550 0.746732 0.384748
vn 0.535077 0.736394 0.414024
vn 0.529463 0.802820 0.274135
vn 0.523850 0.794448 0.307300
vn 0.517801 0.785275 0.339448
vn 0.511368 0.775383 0.370519
vn 0.504515 0.764992 0.400315
vn 0.492438 0.825764 0.274988
vn 0.487302 0.817189 0.307797
vn 0.481716 0.807914 0.339448
vn 0.475805 0.797909 0.370069
vn 0.469562 0.787295 0.399597
vn 0.454345 0.847061 0.275785
vn 0.449695 0.838334 0.308173
vn 0.444688 0.828842 0.339520
vn 0.439251 0.818763 0.369711
vn 0.433460 0.808123 0.398811
vn 0.415451 0.866505 0.276711
vn 0.411251 0.857688 0.308616
vn 0.406674 0.848143 0.339514
vn 0.401738 0.837964 0.369355
vn 0.396551 0.827205 0.398094
vn 0.375700 0.884207 0.277539
vn 0.371926 0.875325 0.308992
vn 0.367834 0.865694 0.339517
vn 0.363424 0.855449 0.368959
vn 0.358783 0.844657 0.397277
vn 0.335224 0.900063 0.278409
vn 0.331847 0.891153 0.309394
vn 0.328197 0.881506 0.339462
vn 0.324399 0.871152 0.368590
vn 0.320401 0.860263 0.396600
vn 0.294032 0.914083 0.279279
vn 0.291091 0.905126 0.309858
vn 0.287925 0.895467 0.339468
vn 0.284653 0.885109 0.368179
vn 0.281197 0.874182 0.395897
vn 0.252222 0.926238 0.280121
vn 0.249773 0.917243 0.310288
vn 0.247120 0.907560 0.339509
vn 0.244307 0.897228 0.367826
vn 0.241358 0.886341 0.395153
vn 0.209985 0.936467 0.280956
vn 0.207959 0.927491 0.310666
vn 0.205719 0.917834 0.339499
vn 0.203426 0.907541 0.367406
vn 0.201059 0.896660 0.394431
vn 0.167301 0.944778 0.281789
vn 0.165657 0.935848 0.311041
vn 0.163950 0.926204 0.339509
vn 0.162141 0.915985 0.366991
vn 0.160176 0.905222 0.393595
vn 0.124309 0.951129 0.282668
vn 0.123076 0.942238 0.311513
vn 0.121829 0.932690 0.339481
vn 0.120508 0.922518 0.366659
vn 0.119055 0.911860 0.392858
vn 0.080974 0.955566 0.283437
vn 0.080286 0.946703 0.311941
vn 0.079484 0.937237 0.339512
vn 0.078570 0.927196 0.366243
vn 0.077674 0.916624 0.392131
vn 0.037551 0.958005 0.284282
vn 0.037271 0.949265 0.312262
vn 0.036966 0.939868 0.339532
vn 0.036513 0.929965 0.365831
vn 0.036039 0.919548 0.391321
vn -0.005709 0.958450 0.285204
vn -0.005724 0.949838 0.312689
vn -0.005668 0.940594 0.339486
vn -0.005609 0.930802 0.365481
vn -0.005611 0.920552 0.390581
vn -0.049196 0.956972 0.285981
vn -0.048759 0.948454 0.313140
vn -0.048292 0.939377 0.339468
vn -0.047796 0.929739 0.365104
vn -0.047277 0.919644 0.389897
vn -0.092517 0.953499 0.286844
vn -0.091631 0.945137 0.313561
vn -0.090766 0.936210 0.339518
vn -0.089924 0.926777 0.364689
vn -0.088964 0.916884 0.389114
vn -0.135519 0.948080 0.287712
vn -0.134348 0.939885 0.313954
vn -0.133098 0.931139 0.339508
vn -0.131768 0.921903 0.364325
vn -0.130378 0.912241 0.388352
vn -0.178319 0.940728 0.288503
vn -0.176742 0.932710 0.314348
vn -0.175123 0.924165 0.339487
vn -0.173401 0.915145 0.363925
vn -0.171543 0.905699 0.387662
vn -0.220662 0.931430 0.289389
vn -0.218810 0.923612 0.314742
vn -0.216836 0.915280 0.339478
vn -0.214754 0.906492 0.363529
vn -0.212576 0.897296 0.386875
vn -0.262468 0.920241 0.290288
vn -0.260313 0.912613 0.315238
vn -0.258074 0.904513 0.339492
vn -0.255618 0.895976 0.363161
vn -0.253002 0.887055 0.386165
vn -0.303919 0.907161 0.291020
vn -0.301366 0.899759 0.315615
vn -0.298734 0.891903 0.339511
vn -0.296034 0.883625 0.362728
vn -0.293132 0.874963 0.385375
vn -0.344641 0.892206 0.291874
vn -0.341804 0.885057 0.315980
vn -0.338823 0.877456 0.339514
vn -0.335804 0.869447 0.362351
vn -0.332621 0.861089 0.384563
vn -0.384513 0.875468 0.292756
vn -0.381469 0.868539 0.316420
vn -0.378248 0.861205 0.339492
vn -0.374860 0.853490 0.361988
vn -0.371324 0.845439 0.383864
vn -0.423757 0.856880 0.293576
vn -0.420360 0.850245 0.316830
vn -0.416836 0.843193 0.339518
vn -0.413271 0.835750 0.361565
vn -0.409475 0.827998 0.383079
vn -0.461857 0.836649 0.294461
vn -0.458350 0.830233 0.317219
vn -0.454605 0.823449 0.339508
vn -0.450717 0.816329 0.361192
vn -0.446695 0.808904 0.382280
vn -0.499196 0.814631 0.295264
vn -0.495432 0.808489 0.317636
vn -0.491460 0.802006 0.339491
vn -0.487295 0.795211 0.360809
vn -0.482962 0.788139 0.381557
vn -0.535399 0.790986 0.296123
vn -0.531442 0.785101 0.318096
vn -0.527261 0.778924 0.339519
vn -0.522882 0.772455 0.360427
vn -0.518330 0.765693 0.380852
vn -0.570685 0.765614 0.296907
vn -0.566423 0.760092 0.318474
vn -0.561948 0.754280 0.339524
vn -0.557463 0.748068 0.360041
vn -0.552786 0.741601 0.380073
vn -0.604498 0.738850 0.297798
vn -0.600130 0.733596 0.318876
vn -0.595575 0.728028 0.339507
vn -0.590906 0.722135 0.359653
vn -0.586023 0.716066 0.379246
vn -0.637205 0.710507 0.298580
vn -0.632679 0.705548 0.319248
vn -0.627960 0.700284 0.339512
vn -0.623044 0.694802 0.359258
vn -0.617898 0.689149 0.378518
vn -0.668491 0.680775 0.299442
vn -0.663919 0.676029 0.319680
vn -0.659070 0.671091 0.339506
vn -0.653967 0.665984 0.358878
vn -0.648712 0.660632 0.377808
vn -0.698558 0.649505 0.300266
vn -0.693771 0.645138 0.320124
vn -0.688765 0.640572 0.339514
vn -0.683582 0.635751 0.358520
vn -0.678214 0.630753 0.377062
vn -0.727036 0.617053 0.301106
vn -0.722169 0.613000 0.320473
vn -0.717108 0.608691 0.339486
vn -0.711828 0.604210 0.358094
vn -0.706314 0.599619 0.376269
vn -0.753955 0.583420 0.301948
vn -0.749091 0.579562 0.320890
vn -0.743990 0.575543 0.339453
vn -0.738592 0.571460 0.357654
vn -0.733011 0.567213 0.375452
vn -0.779459 0.548429 0.302770
vn -0.774416 0.544977 0.321371
vn -0.769225 0.541324 0.339502
vn -0.763813 0.537516 0.357303
vn -0.758164 0.533635 0.374728
vn -0.803336 0.512329 0.303596
vn -0.798233 0.509236 0.321717
vn -0.792947 0.505926 0.339521
vn -0.787496 0.502449 0.356925
vn -0.781801 0.498911 0.373997
vn -0.825373 0.475460 0.304463
vn -0.820340 0.472518 0.322131
vn -0.815092 0.469453 0.339470
vn -0.809595 0.466329 0.356500
vn -0.803908 0.463095 0.373197
vn -0.845894 0.437353 0.305265
vn -0.840758 0.434853 0.322535
vn -0.835471 0.432119 0.339502
vn -0.830050 0.429214 0.356079
vn -0.824354 0.426320 0.372414
vn -0.864476 0.398695 0.306144
vn -0.859480 0.396237 0.322942
vn -0.854196 0.393801 0.339514
vn -0.848738 0.391285 0.355724
vn -0.843147 0.388556 0.371655
vn -0.881446 0.358930 0.306955
vn -0.876388 0.356871 0.323399
vn -0.871143 0.354735 0.339517
vn -0.865741 0.352428 0.355368
vn -0.860177 0.350057 0.370884
vn -0.930379 0.330575 0.158476
vn -0.924734 0.328529 0.192186
vn -0.918078 0.326164 0.225280
vn -0.910492 0.323469 0.257627
vn -0.902096 0.320446 0.289029
vn -0.977302 0.211725 -0.007346
vn -0.975099 0.211127 0.067883
vn -0.967484 0.209334 0.141966
vn -0.954746 0.206695 0.213864
vn -0.937533 0.203109 0.282449
vn -0.997821 -0.039242 -0.053036
vn -0.998221 -0.039252 0.044877
vn -0.989172 -0.038892 0.141517
vn -0.971429 -0.038194 0.234237
vn -0.946339 -0.037208 0.321027
vn -0.956559 -0.287145 -0.050416
vn -0.956782 -0.287339 0.044771
vn -0.948467 -0.284842 0.138840
vn -0.932259 -0.279814 0.229340
vn -0.909276 -0.272879 0.314251
vn -0.854537 -0.517158 -0.048097
vn -0.854678 -0.517244 0.044539
vn -0.847629 -0.512848 0.136060
vn -0.833802 -0.504482 0.224215
vn -0.814161 -0.492722 0.307192
vn -0.698400 -0.714249 -0.045673
vn -0.698444 -0.714293 0.044279
vn -0.692900 -0.708623 0.133203
vn -0.682094 -0.697706 0.218984
vn -0.666800 -0.682194 0.299981
vn -0.497965 -0.866110 -0.043399
vn -0.497850 -0.866152 0.043893
vn -0.494087 -0.859604 0.130226
vn -0.486857 -0.846926 0.213744
vn -0.476484 -0.829013 0.292747
vn -0.265766 -0.963151 -0.041327
vn -0.265779 -0.963056 0.043402
vn -0.263871 -0.956142 0.127143
vn -0.260159 -0.942831 0.208297
vn -0.254933 -0.923892 0.285363
vn -0.016799 -0.999088 -0.039257
vn -0.016796 -0.998943 0.042792
vn -0.016680 -0.992144 0.123984
vn -0.016460 -0.979089 0.202765
vn -0.016150 -0.960503 0.277802
vn 0.233256 -0.971697 -0.037371
vn 0.233247 -0.971508 0.042054
vn 0.231748 -0.965265 0.120647
vn 0.228841 -0.953307 0.197072
vn 0.224745 -0.936241 0.270080
vn 0.468848 -0.882556 -0.035738
vn 0.468563 -0.882473 0.041118
vn 0.465606 -0.877200 0.117179
vn 0.460308 -0.866927 0.191190
vn 0.452617 -0.852308 0.262124
vn 0.674327 -0.737647 -0.034059
vn 0.674096 -0.737558 0.040039
vn 0.670274 -0.733375 0.113552
vn 0.663056 -0.725303 0.185183
vn 0.652603 -0.713854 0.254010
vn 0.837138 -0.546018 -0.032623
vn 0.837003 -0.545820 0.038802
vn 0.832628 -0.542858 0.109707
vn 0.824165 -0.537339 0.178938
vn 0.812017 -0.529419 0.245650
vn 0.947047 -0.319549 -0.031483
vn 0.946875 -0.319432 0.037308
vn 0.942234 -0.317866 0.105619
vn 0.933336 -0.314864 0.172467
vn 0.920555 -0.310495 0.237006
vn 0.996855 -0.073110 -0.030573
vn 0.996703 -0.072916 0.035584
vn 0.992219 -0.072406 0.101281
vn 0.983565 -0.071775 0.165678
vn 0.971064 -0.070862 0.228066
vn 0.983455 0.178637 -0.030074
vn 0.983354 0.178584 0.033507
vn 0.979337 0.177630 0.096681
vn 0.971476 0.176205 0.158703
vn 0.960064 0.174321 0.218836
vn 0.907802 0.418344 -0.029717
vn 0.907729 0.418402 0.031113
vn 0.904273 0.417007 0.091626
vn 0.897651 0.413953 0.151215
vn 0.888040 0.409416 0.209195
vn 0.774608 0.631731 -0.029969
vn 0.774564 0.631865 0.028243
vn 0.771905 0.629865 0.086210
vn 0.766776 0.625717 0.143294
vn 0.759259 0.619621 0.198985
vn 0.592308 0.805121 -0.030834
vn 0.592163 0.805437 0.024774
vn 0.590336 0.803169 0.080142
vn 0.586941 0.798334 0.134772
vn 0.581717 0.791306 0.188255
vn 0.371982 0.927670 -0.032507
vn 0.372101 0.927967 0.020468
vn 0.371375 0.925587 0.073276
vn 0.369354 0.920777 0.125487
vn 0.366174 0.913636 0.176594
vn 0.128868 0.991036 -0.035234
vn 0.128697 0.991570 0.015017
vn 0.128202 0.989605 0.065159
vn 0.127859 0.985109 0.114948
vn 0.127207 0.978262 0.163776
vn -0.122811 0.991619 -0.040113
vn -0.122906 0.992389 0.007584
vn -0.122972 0.990878 0.055122
vn -0.122544 0.987172 0.102348
vn -0.121600 0.981345 0.148911
vn -0.366753 0.928965 -0.050153
vn -0.367070 0.930179 -0.005181
vn -0.366783 0.929452 0.039857
vn -0.365758 0.926855 0.084625
vn -0.363875 0.922492 0.128858
vn -0.586218 0.807476 -0.065808
vn -0.587549 0.808916 -0.020998
vn -0.587832 0.808626 0.024032
vn -0.586414 0.807068 0.068987
vn -0.583701 0.804008 0.113420
f 1/1/1 2/2/2 7/7/7 6/6/6
f 2/2/2 3/3/3 8/8/8 7/7/7
f 3/3/3 4/4/4 9/9/9 8/8/8
f 4/4/4 5/5/5 10/10/10 9/9/9
f 6/6/6 7/7/7 12/12/12 11/11/11
f 7/7/7 8/8/8 13/13/13 12/12/12
f 8/8/8 9/9/9 14/14/14 13/13/13
f 9/9/9 10/10/10 15/15/15 14/14/14
f 11/11/11 12/12/12 17/17/17 16/16/16
f 12/12/12 13/13/13 18/18/18 17/17/17
f 13/13/13 14/14/14 19/19/19 18/18/18
f 14/14/14 15/15/15 20/20/20 19/19/19
f 16/16/16 17/17/17 22/22/22 21/21/21
f 17/17/17 18/18/18 23/23/23 22/22/22
f 18/18/18 19/19/19 24/24/24 23/23/23
f 19/19/19 20/20/20 25/25/25 24/24/24
f 21/21/21 22/22/22 27/27/27 26/26/26
f 22/22/22 23/23/23 28/28/28 27/27/27
f 23/23/23 24/24/24 29/29/29 28/28/28
f 24/24/24 25/25/25 30/30/30 29/29/29
f 26/26/26 27/27/27 32/32/32 31/31/31
f 27/27/27 28/28/28 33/33/33 32/32/32
f 28/28/28 29/29/29 34/34/34 33/33/33
f 29/29/29 30/30/30 35/35/35 34/34/34
f 31/31/31 32/32/32 37/37/37 36/36/36
f 32/32/32 33/33/33 38/38/38 37/37/37
f 33/33/33 34/34/34 39/39/39 38/38/38
f 34/34/34 35/35/35 40/40/40 39/39/39
f 36/36/36 37/37/37 42/42/42 41/41/41
f 37/37/37 38/38/38 43/43/43 42/42/42
f 38/38/38 39/39/39 44/44/44 43/43/43
f 39/39/39 40/40/40 45/45/45 44/44/44
f 41/41/41 42/42/42 47/47/47 46/46/46
f 42/42/42 43/43/43 48/48/48 47/47/47
f 43/43/43 44/44/44 49/49/49 48/48/48
f 44/44/44 45/45/45 50/50/50 49/49/49
f 46/46/46 47/47/47 52/52/52 51/51/51
f 47/47/47 48/48/48 53/53/53 52/52/52
f 48/48/48 49/49/49 54/54/54 53/53/53
f 49/49/49 50/50/50 55/55/55 54/54/54
f 51/51/51 52/52/52 57/57/57 56/56/56
f 52/52/52 53/53/53 58/58/58 57/57/57
f 53/53/53 54/54/54 59/59/59 58/58/58
f 54/54/54 55/55/55 60/60/60 59/59/59
f 56/56/56 57/57/57 62/62/62 61/61/61
f 57/57/57 58/58/58 63/63/63 62/62/62
f 58/58/58 59/59/59 64/64/64 63/63/63
f 59/59/59 60/60/60 65/65/65 64/64/64
f 61/61/61 62/62/62 67/67/67 66/66/66
f 62/62/62 63/63/63 68/68/68 67/67/67
f 63/63/63 64/64/64 69/69/69 68/68/68
f 64/64/64 65/65/65 70/70/70 69/69/69
f 66/66/66 67/67/67 72/72/72 71/71/71
f 67/67/67 68/68/68 73/73/73 72/72/72
f 68/68/68 69/69/69 74/74/74 73/73/73
f 69/69/69 70/70/70 75/75/75 74/74/74
f 71/71/71 72/72/72 77/77/77 76/76/76
f 72/72/72 73/73/73 78/78/78 77/77/77
f 73/73/73 74/74/74 79/79/79 78/78/78
f 74/74/74 75/75/75 80/80/80 79/79/79
f 76/76/76 77/77/77 82/82/82 81/81/81
f 77/77/77 78/78/78 83/83/83 82/82/82
f 78/78/78 79/79/79 84/84/84 83/83/83
f 79/79/79 80/80/80 85/85/85 84/84/84
f 81/81/81 82/82/82 87/87/87 86/86/86
f 82/82/82 83/83/83 88/88/88 87/87/87
f 83/83/83 84/84/84 89/89/89 88/88/88
f 84/84/84 85/85/85 90/90/90 89/89/89
f 86/86/86 87/87/87 92/92/92 91/91/91
f 87/87/87 88/88/88 93/93/93 92/92/92
f 88/88/88 89/89/89 94/94/94 93/93/93
f 89/89/89 90/90/90 95/95/95 94/94/94
f 91/91/91 92/92/92 97/97/97 96/96/96
f 92/92/92 93/93/93 98/98/98 97/97/97
f 93/93/93 94/94/94 99/99/99 98/98/98
f 94/94/94 95/95/95 100/100/100 99/99/99
f 96/96/96 97/97/97 102/102/102 101/101/101
f 97/97/97 98/98/98 103/103/103 102/102/102
f 98/98/98 99/99/99 104/104/104 103/103/103
f 99/99/99 100/100/100 105/105/105 104/104/104
f 101/101/101 102/102/102 107/107/107 106/106/106
f 102/102/102 103/103/103 108/108/108 107/107/107
f 103/103/103 104/104/104 109/109/109 108/108/108
f 104/104/104 105/105/105 110/110/110 109/109/109
f 106/106/106 107/107/107 112/112/112 111/111/111
f 107/107/107 108/108/108 113/113/113 112/112/112
f 108/108/108 109/109/109 114/114/114 113/113/113
f 109/109/109 110/110/110 115/115/115 114/114/114
f 111/111/111 112/112/112 117/117/117 116/116/116
f 112/112/112 113/113/113 118/118/118 117/117/117
f 113/113/113 114/114/114 119/119/119 118/118/118
f 114/114/114 115/115/115 120/120/120 119/119/119
f 116/116/116 117/117/117 122/122/122 121/121/121
f 117/117/117 118/118/118 123/123/123 122/122/122
f 118/118/118 119/119/119 124/124/124 123/123/123
f 119/119/119 120/120/120 125/125/125 124/124/124
f 121/121/121 122/122/122 127/127/127 126/126/126
f 122/122/122 123/123/123 128/128/128 127/127/127
f 123/123/123 124/124/124 129/129/129 128/128/128
f 124/124/124 125/125/125 130/130/130 129/129/129
f 126/126/126 127/127/127 132/132/132 131/131/131
f 127/127/127 128/128/128 133/133/133 132/132/132
f 128/128/128 129/129/129 134/134/134 133/133/133
f 129/129/129 130/130/130 135/135/135 134/134/134
f 131/131/131 132/132/132 137/137/137 136/136/136
f 132/132/132 133/133/133 138/138/138 137/137/137
f 133/133/133 134/134/134 139/139/139 138/138/138
f 134/134/134 135/135/135 140/140/140 139/139/139
f 136/136/136 137/137/137 142/142/142 141/141/141
f 137/137/137 138/138/138 143/143/143 142/142/142
f 138/138/138 139/139/139 144/144/144 143/143/143
f 139/139/139 140/140/140 145/145/145 144/144/144
f 141/141/141 142/142/142 147/147/147 146/146/146
f 142/142/142 143/143/143 148/148/148 147/147/147
f 143/143/143 144/144/144 149/149/149 148/148/148
f 144/144/144 145/145/145 150/150/150 149/149/149
f 146/146/146 147/147/147 152/152/152 151/151/151
f 147/147/147 148/148/148 153/153/153 152/152/152
f 148/148/148 149/149/149 154/154/154 153/153/153
f 149/149/149 150/150/150 155/155/155 154/154/154
f 151/151/151 152/152/152 157/157/157 156/156/156
f 152/152/152 153/153/153 158/158/158 157/157/157
f 153/153/153 154/154/154 159/159/159 158/158/158
f 154/154/154 155/155/155 160/160/160 159/159/159
f 156/156/156 157/157/157 162/162/162 161/161/161
f 157/157/157 158/158/158 163/163/163 162/162/162
f 158/158/158 159/159/159 164/164/164 163/163/163
f 159/159/159 160/160/160 165/165/165 164/164/164
f 161/161/161 162/162/162 167/167/167 166/166/166
f 162/162/162 163/163/163 168/168/168 167/167/167
f 163/163/163 164/164/164 169/169/169 168/168/168
f 164/164/164 165/165/165 170/170/170 169/169/169
f 166/166/166 167/167/167 172/172/172 171/171/171
f 167/167/167 168/168/168 173/173/173 172/172/172
f 168/168/168 169/169/169 174/174/174 173/173/173
f 169/169/169 170/170/170 175/175/175 174/174/174
f 171/171/171 172/172/172 177/177/177 176/176/176
f 172/172/172 173/173/173 178/178/178 177/177/177
f 173/173/173 174/174/174 179/179/179 178/178/178
f 174/174/174 175/175/175 180/180/180 179/179/179
f 176/176/176 177/177/177 182/182/182 181/181/181
f 177/177/177 178/178/178 183/183/183 182/182/182
f 178/178/178 179/179/179 184/184/184 183/183/183
f 179/179/179 180/180/180 185/185/185 184/184/184
f 181/181/181 182/182/182 187/187/187 186/186/186
f 182/182/182 183/183/183 188/188/188 187/187/187
f 183/183/183 184/184/184 189/189/189 188/188/188
f 184/184/184 185/185/185 190/190/190 189/189/189
f 186/186/186 187/187/187 192/192/192 191/191/191
f 187/187/187 188/188/188 193/193/193 192/192/192
f 188/188/188 189/189/189 194/194/194 193/193/193
f 189/189/189 190/190/190 195/195/195 194/194/194
f 191/191/191 192/192/192 197/197/197 196/196/196
f 192/192/192 193/193/193 198/198/198 197/197/197
f 193/193/193 194/194/194 199/199/199 198/198/198
f 194/194/194 195/195/195 200/200/200 199/199/199
f 196/196/196 197/197/197 202/202/202 201/201/201
f 197/197/197 198/198/198 203/203/203 202/202/202
f 198/198/198 199/199/199 204/204/204 203/203/203
f 199/199/199 200/200/200 205/205/205 204/204/204
f 201/201/201 202/202/202 207/207/207 206/206/206
f 202/202/202 203/203/203 208/208/208 207/207/207
f 203/203/203 204/204/204 209/209/209 208/208/208
f 204/204/204 205/205/205 210/210/210 209/209/209
f 206/206/206 207/207/207 212/212/212 211/211/211
f 207/207/207 208/208/208 213/213/213 212/212/212
f 208/208/208 209/209/209 214/214/214 213/213/213
f 209/209/209 210/210/210 215/215/215 214/214/214
f 211/211/211 212/212/212 217/217/217 216/216/216
f 212/212/212 213/213/213 218/218/218 217/217/217
f 213/213/213 214/214/214 219/219/219 218/218/218
f 214/214/214 215/215/215 220/220/220 219/219/219
f 216/216/216 217/217/217 222/222/222 221/221/221
f 217/217/217 218/218/218 223/223/223 222/222/222
f 218/218/218 219/219/219 224/224/224 223/223/223
f 219/219/219 220/220/220 225/225/225 224/224/224
f 221/221/221 222/222/222 227/227/227 226/226/226
f 222/222/222 223/223/223 228/228/228 227/227/227
f 223/223/223 224/224/224 229/229/229 228/228/228
f 224/224/224 225/225/225 230/230/230 229/229/229
f 226/226/226 227/227/227 232/232/232 231/231/231
f 227/227/227 228/228/228 233/233/233 232/232/232
f 228/228/228 229/229/229 234/234/234 233/233/233
f 229/229/229 230/230/230 235/235/235 234/234/234
f 231/231/231 232/232/232 237/237/237 236/236/236
f 232/232/232 233/233/233 238/238/238 237/237/237
f 233/233/233 234/234/234 239/239/239 238/238/238
f 234/234/234 235/235/235 240/240/240 239/239/239
f 236/236/236 237/237/237 242/242/242 241/241/241
f 237/237/237 238/238/238 243/243/243 242/242/242
f 238/238/238 239/239/239 244/244/244 243/243/243
f 239/239/239 240/240/240 245/245/245 244/244/244
f 241/241/241 242/242/242 247/247/247 246/246/246
f 242/242/242 243/243/243 248/248/248 247/247/247
f 243/243/243 244/244/244 249/249/249 248/248/248
f 244/244/244 245/245/245 250/250/250 249/249/249
f 246/246/246 247/247/247 252/252/252 251/251/251
f 247/247/247 248/248/248 253/253/253 252/252/252
f 248/248/248 249/249/249 254/254/254 253/253/253
f 249/249/249 250/250/250 255/255/255 254/254/254
f 251/251/251 252/252/252 257/257/257 256/256/256
f 252/252/252 253/253/253 258/258/258 257/257/257
f 253/253/253 254/254/254 259/259/259 258/258/258
f 254/254/254 255/255/255 260/260/260 259/259/259
f 256/256/256 257/257/257 262/262/262 261/261/261
f 257/257/257 258/258/258 263/263/263 262/262/262
f 258/258/258 259/259/259 264/264/264 263/263/263
f 259/259/259 260/260/260 265/265/265 264/264/264
f 261/261/261 262/262/262 267/267/267 266/266/266
f 262/262/262 263/263/263 268/268/268 267/267/267
f 263/263/263 264/264/264 269/269/269 268/268/268
f 264/264/264 265/265/265 270/270/270 269/269/269
f 266/266/266 267/267/267 272/272/272 271/271/271
f 267/267/267 268/268/268 273/273/273 272/272/272
f 268/268/268 269/269/269 274/274/274 273/273/273
f 269/269/269 270/270/270 275/275/275 274/274/274
f 271/271/271 272/272/272 277/277/277 276/276/276
f 272/272/272 273/273/273 278/278/278 277/277/277
f 273/273/273 274/274/274 279/279/279 278/278/278
f 274/274/274 275/275/275 280/280/280 279/279/279
f 276/276/276 277/277/277 282/282/282 281/281/281
f 277/277/277 278/278/278 283/283/283 282/282/282
f 278/278/278 279/279/279 284/284/284 283/283/283
f 279/279/279 280/280/280 285/285/285 284/284/284
f 281/281/281 282/282/282 287/287/287 286/286/286
f 282/282/282 283/283/283 288/288/288 287/287/287
f 283/283/283 284/284/284 289/289/289 288/288/288
f 284/284/284 285/285/285 290/290/290 289/289/289
f 286/286/286 287/287/287 292/292/292 291/291/291
f 287/287/287 288/288/288 293/293/293 292/292/292
f 288/288/288 289/289/289 294/294/294 293/293/293
f 289/289/289 290/290/290 295/295/295 294/294/294
f 291/291/291 292/292/292 297/297/297 296/296/296
f 292/292/292 293/293/293 298/298/298 297/297/297
f 293/293/293 294/294/294 299/299/299 298/298/298
f 294/294/294 295/295/295 300/300/300 299/299/299
f 296/296/296 297/297/297 302/302/302 301/301/301
f 297/297/297 298/298/298 303/303/303 302/302/302
f 298/298/298 299/299/299 304/304/304 303/303/303
f 299/299/299 300/300/300 305/305/305 304/304/304
f 301/301/301 302/302/302 307/307/307 306/306/306
f 302/302/302 303/303/303 308/308/308 307/307/307
f 303/303/303 304/304/304 309/309/309 308/308/308
f 304/304/304 305/305/305 310/310/310 309/309/309
f 306/306/306 307/307/307 312/312/312 311/311/311
f 307/307/307 308/308/308 313/313/313 312/312/312
f 308/308/308 309/309/309 314/314/314 313/313/313
f 309/309/309 310/310/310 315/315/315 314/314/314
f 311/311/311 312/312/312 317/317/317 316/316/316
f 312/312/312 313/313/313 318/318/318 317/317/317
f 313/313/313 314/314/314 319/319/319 318/318/318
f 314/314/314 315/315/315 320/320/320 319/319/319
f 316/316/316 317/317/317 322/322/322 321/321/321
f 317/317/317 318/318/318 323/323/323 322/322/322
f 318/318/318 319/319/319 324/324/324 323/323/323
f 319/319/319 320/320/320 325/325/325 324/324/324
