# Cleaned and optimized OBJ model for Cosmo
# Vertices: 754, UVs: 839, Normals: 611, Faces: 748
v 0.000000 -4.000000 0.000000
v 0.625738 -3.950753 0.000000
v 0.613714 -3.950753 0.122075
v 0.578106 -3.950753 0.239460
v 0.520282 -3.950753 0.347641
v 0.442463 -3.950753 0.442463
v 0.347641 -3.950753 0.520282
v 0.239460 -3.950753 0.578106
v 0.122075 -3.950753 0.613714
v 0.000000 -3.950753 0.625738
v -0.122075 -3.950753 0.613714
v -0.239460 -3.950753 0.578106
v -0.347641 -3.950753 0.520282
v -0.442463 -3.950753 0.442463
v -0.520282 -3.950753 0.347641
v -0.578106 -3.950753 0.239460
v -0.613714 -3.950753 0.122075
v -0.625738 -3.950753 0.000000
v -0.613714 -3.950753 -0.122075
v -0.578106 -3.950753 -0.239460
v -0.520282 -3.950753 -0.347641
v -0.442463 -3.950753 -0.442463
v -0.347641 -3.950753 -0.520282
v -0.239460 -3.950753 -0.578106
v -0.122075 -3.950753 -0.613714
v -0.000000 -3.950753 -0.625738
v 0.122075 -3.950753 -0.613714
v 0.239460 -3.950753 -0.578106
v 0.347641 -3.950753 -0.520282
v 0.442463 -3.950753 -0.442463
v 0.520282 -3.950753 -0.347641
v 0.578106 -3.950753 -0.239460
v 0.613714 -3.950753 -0.122075
v 1.236068 -3.804226 0.000000
v 1.212317 -3.804226 0.241145
v 1.141978 -3.804226 0.473023
v 1.027753 -3.804226 0.686723
v 0.874032 -3.804226 0.874032
v 0.686723 -3.804226 1.027753
v 0.473023 -3.804226 1.141978
v 0.241145 -3.804226 1.212317
v 0.000000 -3.804226 1.236068
v -0.241145 -3.804226 1.212317
v -0.473023 -3.804226 1.141978
v -0.686723 -3.804226 1.027753
v -0.874032 -3.804226 0.874032
v -1.027753 -3.804226 0.686723
v -1.141978 -3.804226 0.473023
v -1.212317 -3.804226 0.241145
v -1.236068 -3.804226 0.000000
v -1.212317 -3.804226 -0.241145
v -1.141978 -3.804226 -0.473023
v -1.027753 -3.804226 -0.686723
v -0.874032 -3.804226 -0.874032
v -0.686723 -3.804226 -1.027753
v -0.473023 -3.804226 -1.141978
v -0.241145 -3.804226 -1.212317
v -0.000000 -3.804226 -1.236068
v 0.241145 -3.804226 -1.212317
v 0.473023 -3.804226 -1.141978
v 0.686723 -3.804226 -1.027753
v 0.874032 -3.804226 -0.874032
v 1.027753 -3.804226 -0.686723
v 1.141978 -3.804226 -0.473023
v 1.212317 -3.804226 -0.241145
v 1.815962 -3.564026 0.000000
v 1.781069 -3.564026 0.354277
v 1.677730 -3.564026 0.694939
v 1.509917 -3.564026 1.008894
v 1.284079 -3.564026 1.284079
v 1.008894 -3.564026 1.509917
v 0.694939 -3.564026 1.677730
v 0.354277 -3.564026 1.781069
v 0.000000 -3.564026 1.815962
v -0.354277 -3.564026 1.781069
v -0.694939 -3.564026 1.677730
v -1.008894 -3.564026 1.509917
v -1.284079 -3.564026 1.284079
v -1.509917 -3.564026 1.008894
v -1.677730 -3.564026 0.694939
v -1.781069 -3.564026 0.354277
v -1.815962 -3.564026 0.000000
v -1.781069 -3.564026 -0.354277
v -1.677730 -3.564026 -0.694939
v -1.509917 -3.564026 -1.008894
v -1.284079 -3.564026 -1.284079
v -1.008894 -3.564026 -1.509917
v -0.694939 -3.564026 -1.677730
v -0.354277 -3.564026 -1.781069
v -0.000000 -3.564026 -1.815962
v 0.354277 -3.564026 -1.781069
v 0.694939 -3.564026 -1.677730
v 1.008894 -3.564026 -1.509917
v 1.284079 -3.564026 -1.284079
v 1.509917 -3.564026 -1.008894
v 1.677730 -3.564026 -0.694939
v 1.781069 -3.564026 -0.354277
v 2.351141 -3.236068 0.000000
v 2.305964 -3.236068 0.458685
v 2.172171 -3.236068 0.899743
v 1.954902 -3.236068 1.306224
v 1.662508 -3.236068 1.662508
v 1.306224 -3.236068 1.954902
v 0.899743 -3.236068 2.172171
v 0.458685 -3.236068 2.305964
v 0.000000 -3.236068 2.351141
v -0.458685 -3.236068 2.305964
v -0.899743 -3.236068 2.172171
v -1.306224 -3.236068 1.954902
v -1.662508 -3.236068 1.662508
v -1.954902 -3.236068 1.306224
v -2.172171 -3.236068 0.899743
v -2.305964 -3.236068 0.458685
v -2.351141 -3.236068 0.000000
v -2.305964 -3.236068 -0.458685
v -2.172171 -3.236068 -0.899743
v -1.954902 -3.236068 -1.306224
v -1.662508 -3.236068 -1.662508
v -1.306224 -3.236068 -1.954902
v -0.899743 -3.236068 -2.172171
v -0.458685 -3.236068 -2.305964
v -0.000000 -3.236068 -2.351141
v 0.458685 -3.236068 -2.305964
v 0.899743 -3.236068 -2.172171
v 1.306224 -3.236068 -1.954902
v 1.662508 -3.236068 -1.662508
v 1.954902 -3.236068 -1.306224
v 2.172171 -3.236068 -0.899743
v 2.305964 -3.236068 -0.458685
v 2.828427 -2.828427 0.000000
v 2.774080 -2.828427 0.551799
v 2.613126 -2.828427 1.082392
v 2.351751 -2.828427 1.571390
v 2.000000 -2.828427 2.000000
v 1.571390 -2.828427 2.351751
v 1.082392 -2.828427 2.613126
v 0.551799 -2.828427 2.774080
v 0.000000 -2.828427 2.828427
v -0.551799 -2.828427 2.774080
v -1.082392 -2.828427 2.613126
v -1.571390 -2.828427 2.351751
v -2.000000 -2.828427 2.000000
v -2.351751 -2.828427 1.571390
v -2.613126 -2.828427 1.082392
v -2.774080 -2.828427 0.551799
v -2.828427 -2.828427 0.000000
v -2.774080 -2.828427 -0.551799
v -2.613126 -2.828427 -1.082392
v -2.351751 -2.828427 -1.571390
v -2.000000 -2.828427 -2.000000
v -1.571390 -2.828427 -2.351751
v -1.082392 -2.828427 -2.613126
v -0.551799 -2.828427 -2.774080
v -0.000000 -2.828427 -2.828427
v 0.551799 -2.828427 -2.774080
v 1.082392 -2.828427 -2.613126
v 1.571390 -2.828427 -2.351751
v 2.000000 -2.828427 -2.000000
v 2.351751 -2.828427 -1.571390
v 2.613126 -2.828427 -1.082392
v 2.774080 -2.828427 -0.551799
v 3.236068 -2.351141 0.000000
v 3.173888 -2.351141 0.631326
v 2.989737 -2.351141 1.238390
v 2.690692 -2.351141 1.797863
v 2.288246 -2.351141 2.288246
v 1.797863 -2.351141 2.690692
v 1.238390 -2.351141 2.989737
v 0.631326 -2.351141 3.173888
v 0.000000 -2.351141 3.236068
v -0.631326 -2.351141 3.173888
v -1.238390 -2.351141 2.989737
v -1.797863 -2.351141 2.690692
v -2.288246 -2.351141 2.288246
v -2.690692 -2.351141 1.797863
v -2.989737 -2.351141 1.238390
v -3.173888 -2.351141 0.631326
v -3.236068 -2.351141 0.000000
v -3.173888 -2.351141 -0.631326
v -2.989737 -2.351141 -1.238390
v -2.690692 -2.351141 -1.797863
v -2.288246 -2.351141 -2.288246
v -1.797863 -2.351141 -2.690692
v -1.238390 -2.351141 -2.989737
v -0.631326 -2.351141 -3.173888
v -0.000000 -2.351141 -3.236068
v 0.631326 -2.351141 -3.173888
v 1.238390 -2.351141 -2.989737
v 1.797863 -2.351141 -2.690692
v 2.288246 -2.351141 -2.288246
v 2.690692 -2.351141 -1.797863
v 2.989737 -2.351141 -1.238390
v 3.173888 -2.351141 -0.631326
v 3.564026 -1.815962 0.000000
v 3.495544 -1.815962 0.695307
v 3.292731 -1.815962 1.363894
v 2.963379 -1.815962 1.980067
v 2.520147 -1.815962 2.520147
v 1.980067 -1.815962 2.963379
v 1.363894 -1.815962 3.292731
v 0.695307 -1.815962 3.495544
v 0.000000 -1.815962 3.564026
v -0.695307 -1.815962 3.495544
v -1.363894 -1.815962 3.292731
v -1.980067 -1.815962 2.963379
v -2.520147 -1.815962 2.520147
v -2.963379 -1.815962 1.980067
v -3.292731 -1.815962 1.363894
v -3.495544 -1.815962 0.695307
v -3.564026 -1.815962 0.000000
v -3.495544 -1.815962 -0.695307
v -3.292731 -1.815962 -1.363894
v -2.963379 -1.815962 -1.980067
v -2.520147 -1.815962 -2.520147
v -1.980067 -1.815962 -2.963379
v -1.363894 -1.815962 -3.292731
v -0.695307 -1.815962 -3.495544
v -0.000000 -1.815962 -3.564026
v 0.695307 -1.815962 -3.495544
v 1.363894 -1.815962 -3.292731
v 1.980067 -1.815962 -2.963379
v 2.520147 -1.815962 -2.520147
v 2.963379 -1.815962 -1.980067
v 3.292731 -1.815962 -1.363894
v 3.495544 -1.815962 -0.695307
v 3.804226 -1.236068 0.000000
v 3.731129 -1.236068 0.742168
v 3.514647 -1.236068 1.455814
v 3.163098 -1.236068 2.113515
v 2.689994 -1.236068 2.689994
v 2.113515 -1.236068 3.163098
v 1.455814 -1.236068 3.514647
v 0.742168 -1.236068 3.731129
v 0.000000 -1.236068 3.804226
v -0.742168 -1.236068 3.731129
v -1.455814 -1.236068 3.514647
v -2.113515 -1.236068 3.163098
v -2.689994 -1.236068 2.689994
v -3.163098 -1.236068 2.113515
v -3.514647 -1.236068 1.455814
v -3.731129 -1.236068 0.742168
v -3.804226 -1.236068 0.000000
v -3.731129 -1.236068 -0.742168
v -3.514647 -1.236068 -1.455814
v -3.163098 -1.236068 -2.113515
v -2.689994 -1.236068 -2.689994
v -2.113515 -1.236068 -3.163098
v -1.455814 -1.236068 -3.514647
v -0.742168 -1.236068 -3.731129
v -0.000000 -1.236068 -3.804226
v 0.742168 -1.236068 -3.731129
v 1.455814 -1.236068 -3.514647
v 2.113515 -1.236068 -3.163098
v 2.689994 -1.236068 -2.689994
v 3.163098 -1.236068 -2.113515
v 3.514647 -1.236068 -1.455814
v 3.731129 -1.236068 -0.742168
v 3.950753 -0.625738 0.000000
v 3.874841 -0.625738 0.770754
v 3.650020 -0.625738 1.511888
v 3.284931 -0.625738 2.194921
v 2.793604 -0.625738 2.793604
v 2.194921 -0.625738 3.284931
v 1.511888 -0.625738 3.650020
v 0.770754 -0.625738 3.874841
v 0.000000 -0.625738 3.950753
v -0.770754 -0.625738 3.874841
v -1.511888 -0.625738 3.650020
v -2.194921 -0.625738 3.284931
v -2.793604 -0.625738 2.793604
v -3.284931 -0.625738 2.194921
v -3.650020 -0.625738 1.511888
v -3.874841 -0.625738 0.770754
v -3.950753 -0.625738 0.000000
v -3.874841 -0.625738 -0.770754
v -3.650020 -0.625738 -1.511888
v -3.284931 -0.625738 -2.194921
v -2.793604 -0.625738 -2.793604
v -2.194921 -0.625738 -3.284931
v -1.511888 -0.625738 -3.650020
v -0.770754 -0.625738 -3.874841
v -0.000000 -0.625738 -3.950753
v 0.770754 -0.625738 -3.874841
v 1.511888 -0.625738 -3.650020
v 2.194921 -0.625738 -3.284931
v 2.793604 -0.625738 -2.793604
v 3.284931 -0.625738 -2.194921
v 3.650020 -0.625738 -1.511888
v 3.874841 -0.625738 -0.770754
v 4.000000 0.000000 0.000000
v 3.923141 0.000000 0.780361
v 3.695518 0.000000 1.530734
v 3.325878 0.000000 2.222281
v 2.828427 0.000000 2.828427
v 2.222281 0.000000 3.325878
v 1.530734 0.000000 3.695518
v 0.780361 0.000000 3.923141
v 0.000000 0.000000 4.000000
v -0.780361 0.000000 3.923141
v -1.530734 0.000000 3.695518
v -2.222281 0.000000 3.325878
v -2.828427 0.000000 2.828427
v -3.325878 0.000000 2.222281
v -3.695518 0.000000 1.530734
v -3.923141 0.000000 0.780361
v -4.000000 0.000000 0.000000
v -3.923141 0.000000 -0.780361
v -3.695518 0.000000 -1.530734
v -3.325878 0.000000 -2.222281
v -2.828427 0.000000 -2.828427
v -2.222281 0.000000 -3.325878
v -1.530734 0.000000 -3.695518
v -0.780361 0.000000 -3.923141
v -0.000000 0.000000 -4.000000
v 0.780361 0.000000 -3.923141
v 1.530734 0.000000 -3.695518
v 2.222281 0.000000 -3.325878
v 2.828427 0.000000 -2.828427
v 3.325878 0.000000 -2.222281
v 3.695518 0.000000 -1.530734
v 3.923141 0.000000 -0.780361
v 3.950753 0.625738 0.000000
v 3.874841 0.625738 0.770754
v 3.650020 0.625738 1.511888
v 3.284931 0.625738 2.194921
v 2.793604 0.625738 2.793604
v 2.194921 0.625738 3.284931
v 1.511888 0.625738 3.650020
v 0.770754 0.625738 3.874841
v 0.000000 0.625738 3.950753
v -0.770754 0.625738 3.874841
v -1.511888 0.625738 3.650020
v -2.194921 0.625738 3.284931
v -2.793604 0.625738 2.793604
v -3.284931 0.625738 2.194921
v -3.650020 0.625738 1.511888
v -3.874841 0.625738 0.770754
v -3.950753 0.625738 0.000000
v -3.874841 0.625738 -0.770754
v -3.650020 0.625738 -1.511888
v -3.284931 0.625738 -2.194921
v -2.793604 0.625738 -2.793604
v -2.194921 0.625738 -3.284931
v -1.511888 0.625738 -3.650020
v -0.770754 0.625738 -3.874841
v -0.000000 0.625738 -3.950753
v 0.770754 0.625738 -3.874841
v 1.511888 0.625738 -3.650020
v 2.194921 0.625738 -3.284931
v 2.793604 0.625738 -2.793604
v 3.284931 0.625738 -2.194921
v 3.650020 0.625738 -1.511888
v 3.874841 0.625738 -0.770754
v 3.804226 1.236068 0.000000
v 3.731129 1.236068 0.742168
v 3.514647 1.236068 1.455814
v 3.163098 1.236068 2.113515
v 2.689994 1.236068 2.689994
v 2.113515 1.236068 3.163098
v 1.455814 1.236068 3.514647
v 0.742168 1.236068 3.731129
v 0.000000 1.236068 3.804226
v -0.742168 1.236068 3.731129
v -1.455814 1.236068 3.514647
v -2.113515 1.236068 3.163098
v -2.689994 1.236068 2.689994
v -3.163098 1.236068 2.113515
v -3.514647 1.236068 1.455814
v -3.731129 1.236068 0.742168
v -3.804226 1.236068 0.000000
v -3.731129 1.236068 -0.742168
v -3.514647 1.236068 -1.455814
v -3.163098 1.236068 -2.113515
v -2.689994 1.236068 -2.689994
v -2.113515 1.236068 -3.163098
v -1.455814 1.236068 -3.514647
v -0.742168 1.236068 -3.731129
v -0.000000 1.236068 -3.804226
v 0.742168 1.236068 -3.731129
v 1.455814 1.236068 -3.514647
v 2.113515 1.236068 -3.163098
v 2.689994 1.236068 -2.689994
v 3.163098 1.236068 -2.113515
v 3.514647 1.236068 -1.455814
v 3.731129 1.236068 -0.742168
v 3.564026 1.815962 0.000000
v 3.495544 1.815962 0.695307
v 3.292731 1.815962 1.363894
v 2.963379 1.815962 1.980067
v 2.520147 1.815962 2.520147
v 1.980067 1.815962 2.963379
v 1.363894 1.815962 3.292731
v 0.695307 1.815962 3.495544
v 0.000000 1.815962 3.564026
v -0.695307 1.815962 3.495544
v -1.363894 1.815962 3.292731
v -1.980067 1.815962 2.963379
v -2.520147 1.815962 2.520147
v -2.963379 1.815962 1.980067
v -3.292731 1.815962 1.363894
v -3.495544 1.815962 0.695307
v -3.564026 1.815962 0.000000
v -3.495544 1.815962 -0.695307
v -3.292731 1.815962 -1.363894
v -2.963379 1.815962 -1.980067
v -2.520147 1.815962 -2.520147
v -1.980067 1.815962 -2.963379
v -1.363894 1.815962 -3.292731
v -0.695307 1.815962 -3.495544
v -0.000000 1.815962 -3.564026
v 0.695307 1.815962 -3.495544
v 1.363894 1.815962 -3.292731
v 1.980067 1.815962 -2.963379
v 2.520147 1.815962 -2.520147
v 2.963379 1.815962 -1.980067
v 3.292731 1.815962 -1.363894
v 3.495544 1.815962 -0.695307
v 3.236068 2.351141 0.000000
v 3.173888 2.351141 0.631326
v 2.989737 2.351141 1.238390
v 2.690692 2.351141 1.797863
v 2.288246 2.351141 2.288246
v 1.797863 2.351141 2.690692
v 1.238390 2.351141 2.989737
v 0.631326 2.351141 3.173888
v 0.000000 2.351141 3.236068
v -0.631326 2.351141 3.173888
v -1.238390 2.351141 2.989737
v -1.797863 2.351141 2.690692
v -2.288246 2.351141 2.288246
v -2.690692 2.351141 1.797863
v -2.989737 2.351141 1.238390
v -3.173888 2.351141 0.631326
v -3.236068 2.351141 0.000000
v -3.173888 2.351141 -0.631326
v -2.989737 2.351141 -1.238390
v -2.690692 2.351141 -1.797863
v -2.288246 2.351141 -2.288246
v -1.797863 2.351141 -2.690692
v -1.238390 2.351141 -2.989737
v -0.631326 2.351141 -3.173888
v -0.000000 2.351141 -3.236068
v 0.631326 2.351141 -3.173888
v 1.238390 2.351141 -2.989737
v 1.797863 2.351141 -2.690692
v 2.288246 2.351141 -2.288246
v 2.690692 2.351141 -1.797863
v 2.989737 2.351141 -1.238390
v 3.173888 2.351141 -0.631326
v 2.828427 2.828427 0.000000
v 2.774080 2.828427 0.551799
v 2.613126 2.828427 1.082392
v 2.351751 2.828427 1.571390
v 2.000000 2.828427 2.000000
v 1.571390 2.828427 2.351751
v 1.082392 2.828427 2.613126
v 0.551799 2.828427 2.774080
v 0.000000 2.828427 2.828427
v -0.551799 2.828427 2.774080
v -1.082392 2.828427 2.613126
v -1.571390 2.828427 2.351751
v -2.000000 2.828427 2.000000
v -2.351751 2.828427 1.571390
v -2.613126 2.828427 1.082392
v -2.774080 2.828427 0.551799
v -2.828427 2.828427 0.000000
v -2.774080 2.828427 -0.551799
v -2.613126 2.828427 -1.082392
v -2.351751 2.828427 -1.571390
v -2.000000 2.828427 -2.000000
v -1.571390 2.828427 -2.351751
v -1.082392 2.828427 -2.613126
v -0.551799 2.828427 -2.774080
v -0.000000 2.828427 -2.828427
v 0.551799 2.828427 -2.774080
v 1.082392 2.828427 -2.613126
v 1.571390 2.828427 -2.351751
v 2.000000 2.828427 -2.000000
v 2.351751 2.828427 -1.571390
v 2.613126 2.828427 -1.082392
v 2.774080 2.828427 -0.551799
v 2.351141 3.236068 0.000000
v 2.305964 3.236068 0.458685
v 2.172171 3.236068 0.899743
v 1.954902 3.236068 1.306224
v 1.662508 3.236068 1.662508
v 1.306224 3.236068 1.954902
v 0.899743 3.236068 2.172171
v 0.458685 3.236068 2.305964
v 0.000000 3.236068 2.351141
v -0.458685 3.236068 2.305964
v -0.899743 3.236068 2.172171
v -1.306224 3.236068 1.954902
v -1.662508 3.236068 1.662508
v -1.954902 3.236068 1.306224
v -2.172171 3.236068 0.899743
v -2.305964 3.236068 0.458685
v -2.351141 3.236068 0.000000
v -2.305964 3.236068 -0.458685
v -2.172171 3.236068 -0.899743
v -1.954902 3.236068 -1.306224
v -1.662508 3.236068 -1.662508
v -1.306224 3.236068 -1.954902
v -0.899743 3.236068 -2.172171
v -0.458685 3.236068 -2.305964
v -0.000000 3.236068 -2.351141
v 0.458685 3.236068 -2.305964
v 0.899743 3.236068 -2.172171
v 1.306224 3.236068 -1.954902
v 1.662508 3.236068 -1.662508
v 1.954902 3.236068 -1.306224
v 2.172171 3.236068 -0.899743
v 2.305964 3.236068 -0.458685
v 1.815962 3.564026 0.000000
v 1.781069 3.564026 0.354277
v 1.677730 3.564026 0.694939
v 1.509917 3.564026 1.008894
v 1.284079 3.564026 1.284079
v 1.008894 3.564026 1.509917
v 0.694939 3.564026 1.677730
v 0.354277 3.564026 1.781069
v 0.000000 3.564026 1.815962
v -0.354277 3.564026 1.781069
v -0.694939 3.564026 1.677730
v -1.008894 3.564026 1.509917
v -1.284079 3.564026 1.284079
v -1.509917 3.564026 1.008894
v -1.677730 3.564026 0.694939
v -1.781069 3.564026 0.354277
v -1.815962 3.564026 0.000000
v -1.781069 3.564026 -0.354277
v -1.677730 3.564026 -0.694939
v -1.509917 3.564026 -1.008894
v -1.284079 3.564026 -1.284079
v -1.008894 3.564026 -1.509917
v -0.694939 3.564026 -1.677730
v -0.354277 3.564026 -1.781069
v -0.000000 3.564026 -1.815962
v 0.354277 3.564026 -1.781069
v 0.694939 3.564026 -1.677730
v 1.008894 3.564026 -1.509917
v 1.284079 3.564026 -1.284079
v 1.509917 3.564026 -1.008894
v 1.677730 3.564026 -0.694939
v 1.781069 3.564026 -0.354277
v 1.236068 3.804226 0.000000
v 1.212317 3.804226 0.241145
v 1.141978 3.804226 0.473023
v 1.027753 3.804226 0.686723
v 0.874032 3.804226 0.874032
v 0.686723 3.804226 1.027753
v 0.473023 3.804226 1.141978
v 0.241145 3.804226 1.212317
v 0.000000 3.804226 1.236068
v -0.241145 3.804226 1.212317
v -0.473023 3.804226 1.141978
v -0.686723 3.804226 1.027753
v -0.874032 3.804226 0.874032
v -1.027753 3.804226 0.686723
v -1.141978 3.804226 0.473023
v -1.212317 3.804226 0.241145
v -1.236068 3.804226 0.000000
v -1.212317 3.804226 -0.241145
v -1.141978 3.804226 -0.473023
v -1.027753 3.804226 -0.686723
v -0.874032 3.804226 -0.874032
v -0.686723 3.804226 -1.027753
v -0.473023 3.804226 -1.141978
v -0.241145 3.804226 -1.212317
v -0.000000 3.804226 -1.236068
v 0.241145 3.804226 -1.212317
v 0.473023 3.804226 -1.141978
v 0.686723 3.804226 -1.027753
v 0.874032 3.804226 -0.874032
v 1.027753 3.804226 -0.686723
v 1.141978 3.804226 -0.473023
v 1.212317 3.804226 -0.241145
v 0.625738 3.950753 0.000000
v 0.613714 3.950753 0.122075
v 0.578106 3.950753 0.239460
v 0.520282 3.950753 0.347641
v 0.442463 3.950753 0.442463
v 0.347641 3.950753 0.520282
v 0.239460 3.950753 0.578106
v 0.122075 3.950753 0.613714
v 0.000000 3.950753 0.625738
v -0.122075 3.950753 0.613714
v -0.239460 3.950753 0.578106
v -0.347641 3.950753 0.520282
v -0.442463 3.950753 0.442463
v -0.520282 3.950753 0.347641
v -0.578106 3.950753 0.239460
v -0.613714 3.950753 0.122075
v -0.625738 3.950753 0.000000
v -0.613714 3.950753 -0.122075
v -0.578106 3.950753 -0.239460
v -0.520282 3.950753 -0.347641
v -0.442463 3.950753 -0.442463
v -0.347641 3.950753 -0.520282
v -0.239460 3.950753 -0.578106
v -0.122075 3.950753 -0.613714
v -0.000000 3.950753 -0.625738
v 0.122075 3.950753 -0.613714
v 0.239460 3.950753 -0.578106
v 0.347641 3.950753 -0.520282
v 0.442463 3.950753 -0.442463
v 0.520282 3.950753 -0.347641
v 0.578106 3.950753 -0.239460
v 0.613714 3.950753 -0.122075
v 0.000000 4.000000 0.000000
v 5.200000 0.000000 0.000000
v 5.121000 0.000000 0.902971
v 4.886402 0.000000 1.778505
v 4.503332 0.000000 2.600000
v 3.983431 0.000000 3.342496
v 3.342496 0.000000 3.983431
v 2.600000 0.000000 4.503332
v 1.778505 0.000000 4.886402
v 0.902971 0.000000 5.121000
v 0.000000 0.000000 5.200000
v -0.902971 0.000000 5.121000
v -1.778505 0.000000 4.886402
v -2.600000 0.000000 4.503332
v -3.342496 0.000000 3.983431
v -3.983431 0.000000 3.342496
v -4.503332 0.000000 2.600000
v -4.886402 0.000000 1.778505
v -5.121000 0.000000 0.902971
v -5.200000 0.000000 0.000000
v -5.121000 0.000000 -0.902971
v -4.886402 0.000000 -1.778505
v -4.503332 0.000000 -2.600000
v -3.983431 0.000000 -3.342496
v -3.342496 0.000000 -3.983431
v -2.600000 0.000000 -4.503332
v -1.778505 0.000000 -4.886402
v -0.902971 0.000000 -5.121000
v -0.000000 0.000000 -5.200000
v 0.902971 0.000000 -5.121000
v 1.778505 0.000000 -4.886402
v 2.600000 0.000000 -4.503332
v 3.342496 0.000000 -3.983431
v 3.983431 0.000000 -3.342496
v 4.503332 0.000000 -2.600000
v 4.886402 0.000000 -1.778505
v 5.121000 0.000000 -0.902971
v 6.300000 0.000000 0.000000
v 6.204289 0.000000 1.093984
v 5.920064 0.000000 2.154727
v 5.455960 0.000000 3.150000
v 4.826080 0.000000 4.049562
v 4.049562 0.000000 4.826080
v 3.150000 0.000000 5.455960
v 2.154727 0.000000 5.920064
v 1.093984 0.000000 6.204289
v 0.000000 0.000000 6.300000
v -1.093984 0.000000 6.204289
v -2.154727 0.000000 5.920064
v -3.150000 0.000000 5.455960
v -4.049562 0.000000 4.826080
v -4.826080 0.000000 4.049562
v -5.455960 0.000000 3.150000
v -5.920064 0.000000 2.154727
v -6.204289 0.000000 1.093984
v -6.300000 0.000000 0.000000
v -6.204289 0.000000 -1.093984
v -5.920064 0.000000 -2.154727
v -5.455960 0.000000 -3.150000
v -4.826080 0.000000 -4.049562
v -4.049562 0.000000 -4.826080
v -3.150000 0.000000 -5.455960
v -2.154727 0.000000 -5.920064
v -1.093984 0.000000 -6.204289
v -0.000000 0.000000 -6.300000
v 1.093984 0.000000 -6.204289
v 2.154727 0.000000 -5.920064
v 3.150000 0.000000 -5.455960
v 4.049562 0.000000 -4.826080
v 4.826080 0.000000 -4.049562
v 5.455960 0.000000 -3.150000
v 5.920064 0.000000 -2.154727
v 6.204289 0.000000 -1.093984
v 7.400000 0.000000 0.000000
v 7.287577 0.000000 1.284997
v 6.953725 0.000000 2.530949
v 6.408588 0.000000 3.700000
v 5.668729 0.000000 4.756628
v 4.756628 0.000000 5.668729
v 3.700000 0.000000 6.408588
v 2.530949 0.000000 6.953725
v 1.284997 0.000000 7.287577
v 0.000000 0.000000 7.400000
v -1.284997 0.000000 7.287577
v -2.530949 0.000000 6.953725
v -3.700000 0.000000 6.408588
v -4.756628 0.000000 5.668729
v -5.668729 0.000000 4.756628
v -6.408588 0.000000 3.700000
v -6.953725 0.000000 2.530949
v -7.287577 0.000000 1.284997
v -7.400000 0.000000 0.000000
v -7.287577 0.000000 -1.284997
v -6.953725 0.000000 -2.530949
v -6.408588 0.000000 -3.700000
v -5.668729 0.000000 -4.756628
v -4.756628 0.000000 -5.668729
v -3.700000 0.000000 -6.408588
v -2.530949 0.000000 -6.953725
v -1.284997 0.000000 -7.287577
v -0.000000 0.000000 -7.400000
v 1.284997 0.000000 -7.287577
v 2.530949 0.000000 -6.953725
v 3.700000 0.000000 -6.408588
v 4.756628 0.000000 -5.668729
v 5.668729 0.000000 -4.756628
v 6.408588 0.000000 -3.700000
v 6.953725 0.000000 -2.530949
v 7.287577 0.000000 -1.284997
v 8.500000 0.000000 0.000000
v 8.370866 0.000000 1.476010
v 7.987387 0.000000 2.907171
v 7.361216 0.000000 4.250000
v 6.511378 0.000000 5.463695
v 5.463695 0.000000 6.511378
v 4.250000 0.000000 7.361216
v 2.907171 0.000000 7.987387
v 1.476010 0.000000 8.370866
v 0.000000 0.000000 8.500000
v -1.476010 0.000000 8.370866
v -2.907171 0.000000 7.987387
v -4.250000 0.000000 7.361216
v -5.463695 0.000000 6.511378
v -6.511378 0.000000 5.463695
v -7.361216 0.000000 4.250000
v -7.987387 0.000000 2.907171
v -8.370866 0.000000 1.476010
v -8.500000 0.000000 0.000000
v -8.370866 0.000000 -1.476010
v -7.987387 0.000000 -2.907171
v -7.361216 0.000000 -4.250000
v -6.511378 0.000000 -5.463695
v -5.463695 0.000000 -6.511378
v -4.250000 0.000000 -7.361216
v -2.907171 0.000000 -7.987387
v -1.476010 0.000000 -8.370866
v -0.000000 0.000000 -8.500000
v 1.476010 0.000000 -8.370866
v 2.907171 0.000000 -7.987387
v 4.250000 0.000000 -7.361216
v 5.463695 0.000000 -6.511378
v 6.511378 0.000000 -5.463695
v 7.361216 0.000000 -4.250000
v 7.987387 0.000000 -2.907171
v 8.370866 0.000000 -1.476010
vt 0.015625 0.000000
vt 0.046875 0.000000
vt 0.078125 0.000000
vt 0.109375 0.000000
vt 0.140625 0.000000
vt 0.171875 0.000000
vt 0.203125 0.000000
vt 0.234375 0.000000
vt 0.265625 0.000000
vt 0.296875 0.000000
vt 0.328125 0.000000
vt 0.359375 0.000000
vt 0.390625 0.000000
vt 0.421875 0.000000
vt 0.453125 0.000000
vt 0.484375 0.000000
vt 0.515625 0.000000
vt 0.546875 0.000000
vt 0.578125 0.000000
vt 0.609375 0.000000
vt 0.640625 0.000000
vt 0.671875 0.000000
vt 0.703125 0.000000
vt 0.734375 0.000000
vt 0.765625 0.000000
vt 0.796875 0.000000
vt 0.828125 0.000000
vt 0.859375 0.000000
vt 0.890625 0.000000
vt 0.921875 0.000000
vt 0.953125 0.000000
vt 0.984375 0.000000
vt 0.000000 0.050000
vt 0.031250 0.050000
vt 0.062500 0.050000
vt 0.093750 0.050000
vt 0.125000 0.050000
vt 0.156250 0.050000
vt 0.187500 0.050000
vt 0.218750 0.050000
vt 0.250000 0.050000
vt 0.281250 0.050000
vt 0.312500 0.050000
vt 0.343750 0.050000
vt 0.375000 0.050000
vt 0.406250 0.050000
vt 0.437500 0.050000
vt 0.468750 0.050000
vt 0.500000 0.050000
vt 0.531250 0.050000
vt 0.562500 0.050000
vt 0.593750 0.050000
vt 0.625000 0.050000
vt 0.656250 0.050000
vt 0.687500 0.050000
vt 0.718750 0.050000
vt 0.750000 0.050000
vt 0.781250 0.050000
vt 0.812500 0.050000
vt 0.843750 0.050000
vt 0.875000 0.050000
vt 0.906250 0.050000
vt 0.937500 0.050000
vt 0.968750 0.050000
vt 1.000000 0.050000
vt 0.000000 0.100000
vt 0.031250 0.100000
vt 0.062500 0.100000
vt 0.093750 0.100000
vt 0.125000 0.100000
vt 0.156250 0.100000
vt 0.187500 0.100000
vt 0.218750 0.100000
vt 0.250000 0.100000
vt 0.281250 0.100000
vt 0.312500 0.100000
vt 0.343750 0.100000
vt 0.375000 0.100000
vt 0.406250 0.100000
vt 0.437500 0.100000
vt 0.468750 0.100000
vt 0.500000 0.100000
vt 0.531250 0.100000
vt 0.562500 0.100000
vt 0.593750 0.100000
vt 0.625000 0.100000
vt 0.656250 0.100000
vt 0.687500 0.100000
vt 0.718750 0.100000
vt 0.750000 0.100000
vt 0.781250 0.100000
vt 0.812500 0.100000
vt 0.843750 0.100000
vt 0.875000 0.100000
vt 0.906250 0.100000
vt 0.937500 0.100000
vt 0.968750 0.100000
vt 1.000000 0.100000
vt 0.000000 0.150000
vt 0.031250 0.150000
vt 0.062500 0.150000
vt 0.093750 0.150000
vt 0.125000 0.150000
vt 0.156250 0.150000
vt 0.187500 0.150000
vt 0.218750 0.150000
vt 0.250000 0.150000
vt 0.281250 0.150000
vt 0.312500 0.150000
vt 0.343750 0.150000
vt 0.375000 0.150000
vt 0.406250 0.150000
vt 0.437500 0.150000
vt 0.468750 0.150000
vt 0.500000 0.150000
vt 0.531250 0.150000
vt 0.562500 0.150000
vt 0.593750 0.150000
vt 0.625000 0.150000
vt 0.656250 0.150000
vt 0.687500 0.150000
vt 0.718750 0.150000
vt 0.750000 0.150000
vt 0.781250 0.150000
vt 0.812500 0.150000
vt 0.843750 0.150000
vt 0.875000 0.150000
vt 0.906250 0.150000
vt 0.937500 0.150000
vt 0.968750 0.150000
vt 1.000000 0.150000
vt 0.000000 0.200000
vt 0.031250 0.200000
vt 0.062500 0.200000
vt 0.093750 0.200000
vt 0.125000 0.200000
vt 0.156250 0.200000
vt 0.187500 0.200000
vt 0.218750 0.200000
vt 0.250000 0.200000
vt 0.281250 0.200000
vt 0.312500 0.200000
vt 0.343750 0.200000
vt 0.375000 0.200000
vt 0.406250 0.200000
vt 0.437500 0.200000
vt 0.468750 0.200000
vt 0.500000 0.200000
vt 0.531250 0.200000
vt 0.562500 0.200000
vt 0.593750 0.200000
vt 0.625000 0.200000
vt 0.656250 0.200000
vt 0.687500 0.200000
vt 0.718750 0.200000
vt 0.750000 0.200000
vt 0.781250 0.200000
vt 0.812500 0.200000
vt 0.843750 0.200000
vt 0.875000 0.200000
vt 0.906250 0.200000
vt 0.937500 0.200000
vt 0.968750 0.200000
vt 1.000000 0.200000
vt 0.000000 0.250000
vt 0.031250 0.250000
vt 0.062500 0.250000
vt 0.093750 0.250000
vt 0.125000 0.250000
vt 0.156250 0.250000
vt 0.187500 0.250000
vt 0.218750 0.250000
vt 0.250000 0.250000
vt 0.281250 0.250000
vt 0.312500 0.250000
vt 0.343750 0.250000
vt 0.375000 0.250000
vt 0.406250 0.250000
vt 0.437500 0.250000
vt 0.468750 0.250000
vt 0.500000 0.250000
vt 0.531250 0.250000
vt 0.562500 0.250000
vt 0.593750 0.250000
vt 0.625000 0.250000
vt 0.656250 0.250000
vt 0.687500 0.250000
vt 0.718750 0.250000
vt 0.750000 0.250000
vt 0.781250 0.250000
vt 0.812500 0.250000
vt 0.843750 0.250000
vt 0.875000 0.250000
vt 0.906250 0.250000
vt 0.937500 0.250000
vt 0.968750 0.250000
vt 1.000000 0.250000
vt 0.000000 0.300000
vt 0.031250 0.300000
vt 0.062500 0.300000
vt 0.093750 0.300000
vt 0.125000 0.300000
vt 0.156250 0.300000
vt 0.187500 0.300000
vt 0.218750 0.300000
vt 0.250000 0.300000
vt 0.281250 0.300000
vt 0.312500 0.300000
vt 0.343750 0.300000
vt 0.375000 0.300000
vt 0.406250 0.300000
vt 0.437500 0.300000
vt 0.468750 0.300000
vt 0.500000 0.300000
vt 0.531250 0.300000
vt 0.562500 0.300000
vt 0.593750 0.300000
vt 0.625000 0.300000
vt 0.656250 0.300000
vt 0.687500 0.300000
vt 0.718750 0.300000
vt 0.750000 0.300000
vt 0.781250 0.300000
vt 0.812500 0.300000
vt 0.843750 0.300000
vt 0.875000 0.300000
vt 0.906250 0.300000
vt 0.937500 0.300000
vt 0.968750 0.300000
vt 1.000000 0.300000
vt 0.000000 0.350000
vt 0.031250 0.350000
vt 0.062500 0.350000
vt 0.093750 0.350000
vt 0.125000 0.350000
vt 0.156250 0.350000
vt 0.187500 0.350000
vt 0.218750 0.350000
vt 0.250000 0.350000
vt 0.281250 0.350000
vt 0.312500 0.350000
vt 0.343750 0.350000
vt 0.375000 0.350000
vt 0.406250 0.350000
vt 0.437500 0.350000
vt 0.468750 0.350000
vt 0.500000 0.350000
vt 0.531250 0.350000
vt 0.562500 0.350000
vt 0.593750 0.350000
vt 0.625000 0.350000
vt 0.656250 0.350000
vt 0.687500 0.350000
vt 0.718750 0.350000
vt 0.750000 0.350000
vt 0.781250 0.350000
vt 0.812500 0.350000
vt 0.843750 0.350000
vt 0.875000 0.350000
vt 0.906250 0.350000
vt 0.937500 0.350000
vt 0.968750 0.350000
vt 1.000000 0.350000
vt 0.000000 0.400000
vt 0.031250 0.400000
vt 0.062500 0.400000
vt 0.093750 0.400000
vt 0.125000 0.400000
vt 0.156250 0.400000
vt 0.187500 0.400000
vt 0.218750 0.400000
vt 0.250000 0.400000
vt 0.281250 0.400000
vt 0.312500 0.400000
vt 0.343750 0.400000
vt 0.375000 0.400000
vt 0.406250 0.400000
vt 0.437500 0.400000
vt 0.468750 0.400000
vt 0.500000 0.400000
vt 0.531250 0.400000
vt 0.562500 0.400000
vt 0.593750 0.400000
vt 0.625000 0.400000
vt 0.656250 0.400000
vt 0.687500 0.400000
vt 0.718750 0.400000
vt 0.750000 0.400000
vt 0.781250 0.400000
vt 0.812500 0.400000
vt 0.843750 0.400000
vt 0.875000 0.400000
vt 0.906250 0.400000
vt 0.937500 0.400000
vt 0.968750 0.400000
vt 1.000000 0.400000
vt 0.000000 0.450000
vt 0.031250 0.450000
vt 0.062500 0.450000
vt 0.093750 0.450000
vt 0.125000 0.450000
vt 0.156250 0.450000
vt 0.187500 0.450000
vt 0.218750 0.450000
vt 0.250000 0.450000
vt 0.281250 0.450000
vt 0.312500 0.450000
vt 0.343750 0.450000
vt 0.375000 0.450000
vt 0.406250 0.450000
vt 0.437500 0.450000
vt 0.468750 0.450000
vt 0.500000 0.450000
vt 0.531250 0.450000
vt 0.562500 0.450000
vt 0.593750 0.450000
vt 0.625000 0.450000
vt 0.656250 0.450000
vt 0.687500 0.450000
vt 0.718750 0.450000
vt 0.750000 0.450000
vt 0.781250 0.450000
vt 0.812500 0.450000
vt 0.843750 0.450000
vt 0.875000 0.450000
vt 0.906250 0.450000
vt 0.937500 0.450000
vt 0.968750 0.450000
vt 1.000000 0.450000
vt 0.000000 0.500000
vt 0.031250 0.500000
vt 0.062500 0.500000
vt 0.093750 0.500000
vt 0.125000 0.500000
vt 0.156250 0.500000
vt 0.187500 0.500000
vt 0.218750 0.500000
vt 0.250000 0.500000
vt 0.281250 0.500000
vt 0.312500 0.500000
vt 0.343750 0.500000
vt 0.375000 0.500000
vt 0.406250 0.500000
vt 0.437500 0.500000
vt 0.468750 0.500000
vt 0.500000 0.500000
vt 0.531250 0.500000
vt 0.562500 0.500000
vt 0.593750 0.500000
vt 0.625000 0.500000
vt 0.656250 0.500000
vt 0.687500 0.500000
vt 0.718750 0.500000
vt 0.750000 0.500000
vt 0.781250 0.500000
vt 0.812500 0.500000
vt 0.843750 0.500000
vt 0.875000 0.500000
vt 0.906250 0.500000
vt 0.937500 0.500000
vt 0.968750 0.500000
vt 1.000000 0.500000
vt 0.000000 0.550000
vt 0.031250 0.550000
vt 0.062500 0.550000
vt 0.093750 0.550000
vt 0.125000 0.550000
vt 0.156250 0.550000
vt 0.187500 0.550000
vt 0.218750 0.550000
vt 0.250000 0.550000
vt 0.281250 0.550000
vt 0.312500 0.550000
vt 0.343750 0.550000
vt 0.375000 0.550000
vt 0.406250 0.550000
vt 0.437500 0.550000
vt 0.468750 0.550000
vt 0.500000 0.550000
vt 0.531250 0.550000
vt 0.562500 0.550000
vt 0.593750 0.550000
vt 0.625000 0.550000
vt 0.656250 0.550000
vt 0.687500 0.550000
vt 0.718750 0.550000
vt 0.750000 0.550000
vt 0.781250 0.550000
vt 0.812500 0.550000
vt 0.843750 0.550000
vt 0.875000 0.550000
vt 0.906250 0.550000
vt 0.937500 0.550000
vt 0.968750 0.550000
vt 1.000000 0.550000
vt 0.000000 0.600000
vt 0.031250 0.600000
vt 0.062500 0.600000
vt 0.093750 0.600000
vt 0.125000 0.600000
vt 0.156250 0.600000
vt 0.187500 0.600000
vt 0.218750 0.600000
vt 0.250000 0.600000
vt 0.281250 0.600000
vt 0.312500 0.600000
vt 0.343750 0.600000
vt 0.375000 0.600000
vt 0.406250 0.600000
vt 0.437500 0.600000
vt 0.468750 0.600000
vt 0.500000 0.600000
vt 0.531250 0.600000
vt 0.562500 0.600000
vt 0.593750 0.600000
vt 0.625000 0.600000
vt 0.656250 0.600000
vt 0.687500 0.600000
vt 0.718750 0.600000
vt 0.750000 0.600000
vt 0.781250 0.600000
vt 0.812500 0.600000
vt 0.843750 0.600000
vt 0.875000 0.600000
vt 0.906250 0.600000
vt 0.937500 0.600000
vt 0.968750 0.600000
vt 1.000000 0.600000
vt 0.000000 0.650000
vt 0.031250 0.650000
vt 0.062500 0.650000
vt 0.093750 0.650000
vt 0.125000 0.650000
vt 0.156250 0.650000
vt 0.187500 0.650000
vt 0.218750 0.650000
vt 0.250000 0.650000
vt 0.281250 0.650000
vt 0.312500 0.650000
vt 0.343750 0.650000
vt 0.375000 0.650000
vt 0.406250 0.650000
vt 0.437500 0.650000
vt 0.468750 0.650000
vt 0.500000 0.650000
vt 0.531250 0.650000
vt 0.562500 0.650000
vt 0.593750 0.650000
vt 0.625000 0.650000
vt 0.656250 0.650000
vt 0.687500 0.650000
vt 0.718750 0.650000
vt 0.750000 0.650000
vt 0.781250 0.650000
vt 0.812500 0.650000
vt 0.843750 0.650000
vt 0.875000 0.650000
vt 0.906250 0.650000
vt 0.937500 0.650000
vt 0.968750 0.650000
vt 1.000000 0.650000
vt 0.000000 0.700000
vt 0.031250 0.700000
vt 0.062500 0.700000
vt 0.093750 0.700000
vt 0.125000 0.700000
vt 0.156250 0.700000
vt 0.187500 0.700000
vt 0.218750 0.700000
vt 0.250000 0.700000
vt 0.281250 0.700000
vt 0.312500 0.700000
vt 0.343750 0.700000
vt 0.375000 0.700000
vt 0.406250 0.700000
vt 0.437500 0.700000
vt 0.468750 0.700000
vt 0.500000 0.700000
vt 0.531250 0.700000
vt 0.562500 0.700000
vt 0.593750 0.700000
vt 0.625000 0.700000
vt 0.656250 0.700000
vt 0.687500 0.700000
vt 0.718750 0.700000
vt 0.750000 0.700000
vt 0.781250 0.700000
vt 0.812500 0.700000
vt 0.843750 0.700000
vt 0.875000 0.700000
vt 0.906250 0.700000
vt 0.937500 0.700000
vt 0.968750 0.700000
vt 1.000000 0.700000
vt 0.000000 0.750000
vt 0.031250 0.750000
vt 0.062500 0.750000
vt 0.093750 0.750000
vt 0.125000 0.750000
vt 0.156250 0.750000
vt 0.187500 0.750000
vt 0.218750 0.750000
vt 0.250000 0.750000
vt 0.281250 0.750000
vt 0.312500 0.750000
vt 0.343750 0.750000
vt 0.375000 0.750000
vt 0.406250 0.750000
vt 0.437500 0.750000
vt 0.468750 0.750000
vt 0.500000 0.750000
vt 0.531250 0.750000
vt 0.562500 0.750000
vt 0.593750 0.750000
vt 0.625000 0.750000
vt 0.656250 0.750000
vt 0.687500 0.750000
vt 0.718750 0.750000
vt 0.750000 0.750000
vt 0.781250 0.750000
vt 0.812500 0.750000
vt 0.843750 0.750000
vt 0.875000 0.750000
vt 0.906250 0.750000
vt 0.937500 0.750000
vt 0.968750 0.750000
vt 1.000000 0.750000
vt 0.000000 0.800000
vt 0.031250 0.800000
vt 0.062500 0.800000
vt 0.093750 0.800000
vt 0.125000 0.800000
vt 0.156250 0.800000
vt 0.187500 0.800000
vt 0.218750 0.800000
vt 0.250000 0.800000
vt 0.281250 0.800000
vt 0.312500 0.800000
vt 0.343750 0.800000
vt 0.375000 0.800000
vt 0.406250 0.800000
vt 0.437500 0.800000
vt 0.468750 0.800000
vt 0.500000 0.800000
vt 0.531250 0.800000
vt 0.562500 0.800000
vt 0.593750 0.800000
vt 0.625000 0.800000
vt 0.656250 0.800000
vt 0.687500 0.800000
vt 0.718750 0.800000
vt 0.750000 0.800000
vt 0.781250 0.800000
vt 0.812500 0.800000
vt 0.843750 0.800000
vt 0.875000 0.800000
vt 0.906250 0.800000
vt 0.937500 0.800000
vt 0.968750 0.800000
vt 1.000000 0.800000
vt 0.000000 0.850000
vt 0.031250 0.850000
vt 0.062500 0.850000
vt 0.093750 0.850000
vt 0.125000 0.850000
vt 0.156250 0.850000
vt 0.187500 0.850000
vt 0.218750 0.850000
vt 0.250000 0.850000
vt 0.281250 0.850000
vt 0.312500 0.850000
vt 0.343750 0.850000
vt 0.375000 0.850000
vt 0.406250 0.850000
vt 0.437500 0.850000
vt 0.468750 0.850000
vt 0.500000 0.850000
vt 0.531250 0.850000
vt 0.562500 0.850000
vt 0.593750 0.850000
vt 0.625000 0.850000
vt 0.656250 0.850000
vt 0.687500 0.850000
vt 0.718750 0.850000
vt 0.750000 0.850000
vt 0.781250 0.850000
vt 0.812500 0.850000
vt 0.843750 0.850000
vt 0.875000 0.850000
vt 0.906250 0.850000
vt 0.937500 0.850000
vt 0.968750 0.850000
vt 1.000000 0.850000
vt 0.000000 0.900000
vt 0.031250 0.900000
vt 0.062500 0.900000
vt 0.093750 0.900000
vt 0.125000 0.900000
vt 0.156250 0.900000
vt 0.187500 0.900000
vt 0.218750 0.900000
vt 0.250000 0.900000
vt 0.281250 0.900000
vt 0.312500 0.900000
vt 0.343750 0.900000
vt 0.375000 0.900000
vt 0.406250 0.900000
vt 0.437500 0.900000
vt 0.468750 0.900000
vt 0.500000 0.900000
vt 0.531250 0.900000
vt 0.562500 0.900000
vt 0.593750 0.900000
vt 0.625000 0.900000
vt 0.656250 0.900000
vt 0.687500 0.900000
vt 0.718750 0.900000
vt 0.750000 0.900000
vt 0.781250 0.900000
vt 0.812500 0.900000
vt 0.843750 0.900000
vt 0.875000 0.900000
vt 0.906250 0.900000
vt 0.937500 0.900000
vt 0.968750 0.900000
vt 1.000000 0.900000
vt 0.000000 0.950000
vt 0.031250 0.950000
vt 0.062500 0.950000
vt 0.093750 0.950000
vt 0.125000 0.950000
vt 0.156250 0.950000
vt 0.187500 0.950000
vt 0.218750 0.950000
vt 0.250000 0.950000
vt 0.281250 0.950000
vt 0.312500 0.950000
vt 0.343750 0.950000
vt 0.375000 0.950000
vt 0.406250 0.950000
vt 0.437500 0.950000
vt 0.468750 0.950000
vt 0.500000 0.950000
vt 0.531250 0.950000
vt 0.562500 0.950000
vt 0.593750 0.950000
vt 0.625000 0.950000
vt 0.656250 0.950000
vt 0.687500 0.950000
vt 0.718750 0.950000
vt 0.750000 0.950000
vt 0.781250 0.950000
vt 0.812500 0.950000
vt 0.843750 0.950000
vt 0.875000 0.950000
vt 0.906250 0.950000
vt 0.937500 0.950000
vt 0.968750 0.950000
vt 1.000000 0.950000
vt 0.015625 1.000000
vt 0.046875 1.000000
vt 0.078125 1.000000
vt 0.109375 1.000000
vt 0.140625 1.000000
vt 0.171875 1.000000
vt 0.203125 1.000000
vt 0.234375 1.000000
vt 0.265625 1.000000
vt 0.296875 1.000000
vt 0.328125 1.000000
vt 0.359375 1.000000
vt 0.390625 1.000000
vt 0.421875 1.000000
vt 0.453125 1.000000
vt 0.484375 1.000000
vt 0.515625 1.000000
vt 0.546875 1.000000
vt 0.578125 1.000000
vt 0.609375 1.000000
vt 0.640625 1.000000
vt 0.671875 1.000000
vt 0.703125 1.000000
vt 0.734375 1.000000
vt 0.765625 1.000000
vt 0.796875 1.000000
vt 0.828125 1.000000
vt 0.859375 1.000000
vt 0.890625 1.000000
vt 0.921875 1.000000
vt 0.953125 1.000000
vt 0.984375 1.000000
vt 0.000000 0.000000
vt 0.027778 0.000000
vt 0.055556 0.000000
vt 0.083333 0.000000
vt 0.111111 0.000000
vt 0.138889 0.000000
vt 0.166667 0.000000
vt 0.194444 0.000000
vt 0.222222 0.000000
vt 0.250000 0.000000
vt 0.277778 0.000000
vt 0.305556 0.000000
vt 0.333333 0.000000
vt 0.361111 0.000000
vt 0.388889 0.000000
vt 0.416667 0.000000
vt 0.444444 0.000000
vt 0.472222 0.000000
vt 0.500000 0.000000
vt 0.527778 0.000000
vt 0.555556 0.000000
vt 0.583333 0.000000
vt 0.611111 0.000000
vt 0.638889 0.000000
vt 0.666667 0.000000
vt 0.694444 0.000000
vt 0.722222 0.000000
vt 0.750000 0.000000
vt 0.777778 0.000000
vt 0.805556 0.000000
vt 0.833333 0.000000
vt 0.861111 0.000000
vt 0.888889 0.000000
vt 0.916667 0.000000
vt 0.944444 0.000000
vt 0.972222 0.000000
vt 1.000000 0.000000
vt 0.000000 0.333333
vt 0.027778 0.333333
vt 0.055556 0.333333
vt 0.083333 0.333333
vt 0.111111 0.333333
vt 0.138889 0.333333
vt 0.166667 0.333333
vt 0.194444 0.333333
vt 0.222222 0.333333
vt 0.250000 0.333333
vt 0.277778 0.333333
vt 0.305556 0.333333
vt 0.333333 0.333333
vt 0.361111 0.333333
vt 0.388889 0.333333
vt 0.416667 0.333333
vt 0.444444 0.333333
vt 0.472222 0.333333
vt 0.500000 0.333333
vt 0.527778 0.333333
vt 0.555556 0.333333
vt 0.583333 0.333333
vt 0.611111 0.333333
vt 0.638889 0.333333
vt 0.666667 0.333333
vt 0.694444 0.333333
vt 0.722222 0.333333
vt 0.750000 0.333333
vt 0.777778 0.333333
vt 0.805556 0.333333
vt 0.833333 0.333333
vt 0.861111 0.333333
vt 0.888889 0.333333
vt 0.916667 0.333333
vt 0.944444 0.333333
vt 0.972222 0.333333
vt 1.000000 0.333333
vt 0.000000 0.666667
vt 0.027778 0.666667
vt 0.055556 0.666667
vt 0.083333 0.666667
vt 0.111111 0.666667
vt 0.138889 0.666667
vt 0.166667 0.666667
vt 0.194444 0.666667
vt 0.222222 0.666667
vt 0.250000 0.666667
vt 0.277778 0.666667
vt 0.305556 0.666667
vt 0.333333 0.666667
vt 0.361111 0.666667
vt 0.388889 0.666667
vt 0.416667 0.666667
vt 0.444444 0.666667
vt 0.472222 0.666667
vt 0.500000 0.666667
vt 0.527778 0.666667
vt 0.555556 0.666667
vt 0.583333 0.666667
vt 0.611111 0.666667
vt 0.638889 0.666667
vt 0.666667 0.666667
vt 0.694444 0.666667
vt 0.722222 0.666667
vt 0.750000 0.666667
vt 0.777778 0.666667
vt 0.805556 0.666667
vt 0.833333 0.666667
vt 0.861111 0.666667
vt 0.888889 0.666667
vt 0.916667 0.666667
vt 0.944444 0.666667
vt 0.972222 0.666667
vt 1.000000 0.666667
vt 0.000000 1.000000
vt 0.027778 1.000000
vt 0.055556 1.000000
vt 0.083333 1.000000
vt 0.111111 1.000000
vt 0.138889 1.000000
vt 0.166667 1.000000
vt 0.194444 1.000000
vt 0.222222 1.000000
vt 0.250000 1.000000
vt 0.277778 1.000000
vt 0.305556 1.000000
vt 0.333333 1.000000
vt 0.361111 1.000000
vt 0.388889 1.000000
vt 0.416667 1.000000
vt 0.444444 1.000000
vt 0.472222 1.000000
vt 0.500000 1.000000
vt 0.527778 1.000000
vt 0.555556 1.000000
vt 0.583333 1.000000
vt 0.611111 1.000000
vt 0.638889 1.000000
vt 0.666667 1.000000
vt 0.694444 1.000000
vt 0.722222 1.000000
vt 0.750000 1.000000
vt 0.777778 1.000000
vt 0.805556 1.000000
vt 0.833333 1.000000
vt 0.861111 1.000000
vt 0.888889 1.000000
vt 0.916667 1.000000
vt 0.944444 1.000000
vt 0.972222 1.000000
vt 1.000000 1.000000
vn 0.000000 -1.000000 0.000000
vn 0.156434 -0.987688 0.000000
vn 0.153429 -0.987688 0.030519
vn 0.144527 -0.987688 0.059865
vn 0.130071 -0.987688 0.086910
vn 0.110616 -0.987688 0.110616
vn 0.086910 -0.987688 0.130071
vn 0.059865 -0.987688 0.144527
vn 0.030519 -0.987688 0.153429
vn 0.000000 -0.987688 0.156434
vn -0.030519 -0.987688 0.153429
vn -0.059865 -0.987688 0.144527
vn -0.086910 -0.987688 0.130071
vn -0.110616 -0.987688 0.110616
vn -0.130071 -0.987688 0.086910
vn -0.144527 -0.987688 0.059865
vn -0.153429 -0.987688 0.030519
vn -0.156434 -0.987688 0.000000
vn -0.153429 -0.987688 -0.030519
vn -0.144527 -0.987688 -0.059865
vn -0.130071 -0.987688 -0.086910
vn -0.110616 -0.987688 -0.110616
vn -0.086910 -0.987688 -0.130071
vn -0.059865 -0.987688 -0.144527
vn -0.030519 -0.987688 -0.153429
vn -0.000000 -0.987688 -0.156434
vn 0.030519 -0.987688 -0.153429
vn 0.059865 -0.987688 -0.144527
vn 0.086910 -0.987688 -0.130071
vn 0.110616 -0.987688 -0.110616
vn 0.130071 -0.987688 -0.086910
vn 0.144527 -0.987688 -0.059865
vn 0.153429 -0.987688 -0.030519
vn 0.309017 -0.951057 0.000000
vn 0.303079 -0.951057 0.060286
vn 0.285494 -0.951057 0.118256
vn 0.256938 -0.951057 0.171681
vn 0.218508 -0.951057 0.218508
vn 0.171681 -0.951057 0.256938
vn 0.118256 -0.951057 0.285494
vn 0.060286 -0.951057 0.303079
vn 0.000000 -0.951057 0.309017
vn -0.060286 -0.951057 0.303079
vn -0.118256 -0.951057 0.285494
vn -0.171681 -0.951057 0.256938
vn -0.218508 -0.951057 0.218508
vn -0.256938 -0.951057 0.171681
vn -0.285494 -0.951057 0.118256
vn -0.303079 -0.951057 0.060286
vn -0.309017 -0.951057 0.000000
vn -0.303079 -0.951057 -0.060286
vn -0.285494 -0.951057 -0.118256
vn -0.256938 -0.951057 -0.171681
vn -0.218508 -0.951057 -0.218508
vn -0.171681 -0.951057 -0.256938
vn -0.118256 -0.951057 -0.285494
vn -0.060286 -0.951057 -0.303079
vn -0.000000 -0.951057 -0.309017
vn 0.060286 -0.951057 -0.303079
vn 0.118256 -0.951057 -0.285494
vn 0.171681 -0.951057 -0.256938
vn 0.218508 -0.951057 -0.218508
vn 0.256938 -0.951057 -0.171681
vn 0.285494 -0.951057 -0.118256
vn 0.303079 -0.951057 -0.060286
vn 0.453990 -0.891007 0.000000
vn 0.445267 -0.891007 0.088569
vn 0.419433 -0.891007 0.173735
vn 0.377479 -0.891007 0.252224
vn 0.321020 -0.891007 0.321020
vn 0.252224 -0.891007 0.377479
vn 0.173735 -0.891007 0.419433
vn 0.088569 -0.891007 0.445267
vn 0.000000 -0.891007 0.453990
vn -0.088569 -0.891007 0.445267
vn -0.173735 -0.891007 0.419433
vn -0.252224 -0.891007 0.377479
vn -0.321020 -0.891007 0.321020
vn -0.377479 -0.891007 0.252224
vn -0.419433 -0.891007 0.173735
vn -0.445267 -0.891007 0.088569
vn -0.453990 -0.891007 0.000000
vn -0.445267 -0.891007 -0.088569
vn -0.419433 -0.891007 -0.173735
vn -0.377479 -0.891007 -0.252224
vn -0.321020 -0.891007 -0.321020
vn -0.252224 -0.891007 -0.377479
vn -0.173735 -0.891007 -0.419433
vn -0.088569 -0.891007 -0.445267
vn -0.000000 -0.891007 -0.453990
vn 0.088569 -0.891007 -0.445267
vn 0.173735 -0.891007 -0.419433
vn 0.252224 -0.891007 -0.377479
vn 0.321020 -0.891007 -0.321020
vn 0.377479 -0.891007 -0.252224
vn 0.419433 -0.891007 -0.173735
vn 0.445267 -0.891007 -0.088569
vn 0.587785 -0.809017 0.000000
vn 0.576491 -0.809017 0.114671
vn 0.543043 -0.809017 0.224936
vn 0.488726 -0.809017 0.326556
vn 0.415627 -0.809017 0.415627
vn 0.326556 -0.809017 0.488726
vn 0.224936 -0.809017 0.543043
vn 0.114671 -0.809017 0.576491
vn 0.000000 -0.809017 0.587785
vn -0.114671 -0.809017 0.576491
vn -0.224936 -0.809017 0.543043
vn -0.326556 -0.809017 0.488726
vn -0.415627 -0.809017 0.415627
vn -0.488726 -0.809017 0.326556
vn -0.543043 -0.809017 0.224936
vn -0.576491 -0.809017 0.114671
vn -0.587785 -0.809017 0.000000
vn -0.576491 -0.809017 -0.114671
vn -0.543043 -0.809017 -0.224936
vn -0.488726 -0.809017 -0.326556
vn -0.415627 -0.809017 -0.415627
vn -0.326556 -0.809017 -0.488726
vn -0.224936 -0.809017 -0.543043
vn -0.114671 -0.809017 -0.576491
vn -0.000000 -0.809017 -0.587785
vn 0.114671 -0.809017 -0.576491
vn 0.224936 -0.809017 -0.543043
vn 0.326556 -0.809017 -0.488726
vn 0.415627 -0.809017 -0.415627
vn 0.488726 -0.809017 -0.326556
vn 0.543043 -0.809017 -0.224936
vn 0.576491 -0.809017 -0.114671
vn 0.707107 -0.707107 0.000000
vn 0.693520 -0.707107 0.137950
vn 0.653281 -0.707107 0.270598
vn 0.587938 -0.707107 0.392847
vn 0.500000 -0.707107 0.500000
vn 0.392847 -0.707107 0.587938
vn 0.270598 -0.707107 0.653281
vn 0.137950 -0.707107 0.693520
vn 0.000000 -0.707107 0.707107
vn -0.137950 -0.707107 0.693520
vn -0.270598 -0.707107 0.653281
vn -0.392847 -0.707107 0.587938
vn -0.500000 -0.707107 0.500000
vn -0.587938 -0.707107 0.392847
vn -0.653281 -0.707107 0.270598
vn -0.693520 -0.707107 0.137950
vn -0.707107 -0.707107 0.000000
vn -0.693520 -0.707107 -0.137950
vn -0.653281 -0.707107 -0.270598
vn -0.587938 -0.707107 -0.392847
vn -0.500000 -0.707107 -0.500000
vn -0.392847 -0.707107 -0.587938
vn -0.270598 -0.707107 -0.653281
vn -0.137950 -0.707107 -0.693520
vn -0.000000 -0.707107 -0.707107
vn 0.137950 -0.707107 -0.693520
vn 0.270598 -0.707107 -0.653281
vn 0.392847 -0.707107 -0.587938
vn 0.500000 -0.707107 -0.500000
vn 0.587938 -0.707107 -0.392847
vn 0.653281 -0.707107 -0.270598
vn 0.693520 -0.707107 -0.137950
vn 0.809017 -0.587785 0.000000
vn 0.793472 -0.587785 0.157831
vn 0.747434 -0.587785 0.309597
vn 0.672673 -0.587785 0.449466
vn 0.572061 -0.587785 0.572061
vn 0.449466 -0.587785 0.672673
vn 0.309597 -0.587785 0.747434
vn 0.157831 -0.587785 0.793472
vn 0.000000 -0.587785 0.809017
vn -0.157831 -0.587785 0.793472
vn -0.309597 -0.587785 0.747434
vn -0.449466 -0.587785 0.672673
vn -0.572061 -0.587785 0.572061
vn -0.672673 -0.587785 0.449466
vn -0.747434 -0.587785 0.309597
vn -0.793472 -0.587785 0.157831
vn -0.809017 -0.587785 0.000000
vn -0.793472 -0.587785 -0.157831
vn -0.747434 -0.587785 -0.309597
vn -0.672673 -0.587785 -0.449466
vn -0.572061 -0.587785 -0.572061
vn -0.449466 -0.587785 -0.672673
vn -0.309597 -0.587785 -0.747434
vn -0.157831 -0.587785 -0.793472
vn -0.000000 -0.587785 -0.809017
vn 0.157831 -0.587785 -0.793472
vn 0.309597 -0.587785 -0.747434
vn 0.449466 -0.587785 -0.672673
vn 0.572061 -0.587785 -0.572061
vn 0.672673 -0.587785 -0.449466
vn 0.747434 -0.587785 -0.309597
vn 0.793472 -0.587785 -0.157831
vn 0.891007 -0.453990 0.000000
vn 0.873886 -0.453990 0.173827
vn 0.823183 -0.453990 0.340973
vn 0.740845 -0.453990 0.495017
vn 0.630037 -0.453990 0.630037
vn 0.495017 -0.453990 0.740845
vn 0.340973 -0.453990 0.823183
vn 0.173827 -0.453990 0.873886
vn 0.000000 -0.453990 0.891007
vn -0.173827 -0.453990 0.873886
vn -0.340973 -0.453990 0.823183
vn -0.495017 -0.453990 0.740845
vn -0.630037 -0.453990 0.630037
vn -0.740845 -0.453990 0.495017
vn -0.823183 -0.453990 0.340973
vn -0.873886 -0.453990 0.173827
vn -0.891007 -0.453990 0.000000
vn -0.873886 -0.453990 -0.173827
vn -0.823183 -0.453990 -0.340973
vn -0.740845 -0.453990 -0.495017
vn -0.630037 -0.453990 -0.630037
vn -0.495017 -0.453990 -0.740845
vn -0.340973 -0.453990 -0.823183
vn -0.173827 -0.453990 -0.873886
vn -0.000000 -0.453990 -0.891007
vn 0.173827 -0.453990 -0.873886
vn 0.340973 -0.453990 -0.823183
vn 0.495017 -0.453990 -0.740845
vn 0.630037 -0.453990 -0.630037
vn 0.740845 -0.453990 -0.495017
vn 0.823183 -0.453990 -0.340973
vn 0.873886 -0.453990 -0.173827
vn 0.951057 -0.309017 0.000000
vn 0.932782 -0.309017 0.185542
vn 0.878662 -0.309017 0.363954
vn 0.790775 -0.309017 0.528379
vn 0.672499 -0.309017 0.672499
vn 0.528379 -0.309017 0.790775
vn 0.363954 -0.309017 0.878662
vn 0.185542 -0.309017 0.932782
vn 0.000000 -0.309017 0.951057
vn -0.185542 -0.309017 0.932782
vn -0.363954 -0.309017 0.878662
vn -0.528379 -0.309017 0.790775
vn -0.672499 -0.309017 0.672499
vn -0.790775 -0.309017 0.528379
vn -0.878662 -0.309017 0.363954
vn -0.932782 -0.309017 0.185542
vn -0.951057 -0.309017 0.000000
vn -0.932782 -0.309017 -0.185542
vn -0.878662 -0.309017 -0.363954
vn -0.790775 -0.309017 -0.528379
vn -0.672499 -0.309017 -0.672499
vn -0.528379 -0.309017 -0.790775
vn -0.363954 -0.309017 -0.878662
vn -0.185542 -0.309017 -0.932782
vn -0.000000 -0.309017 -0.951057
vn 0.185542 -0.309017 -0.932782
vn 0.363954 -0.309017 -0.878662
vn 0.528379 -0.309017 -0.790775
vn 0.672499 -0.309017 -0.672499
vn 0.790775 -0.309017 -0.528379
vn 0.878662 -0.309017 -0.363954
vn 0.932782 -0.309017 -0.185542
vn 0.987688 -0.156434 0.000000
vn 0.968710 -0.156434 0.192688
vn 0.912505 -0.156434 0.377972
vn 0.821233 -0.156434 0.548730
vn 0.698401 -0.156434 0.698401
vn 0.548730 -0.156434 0.821233
vn 0.377972 -0.156434 0.912505
vn 0.192688 -0.156434 0.968710
vn 0.000000 -0.156434 0.987688
vn -0.192688 -0.156434 0.968710
vn -0.377972 -0.156434 0.912505
vn -0.548730 -0.156434 0.821233
vn -0.698401 -0.156434 0.698401
vn -0.821233 -0.156434 0.548730
vn -0.912505 -0.156434 0.377972
vn -0.968710 -0.156434 0.192688
vn -0.987688 -0.156434 0.000000
vn -0.968710 -0.156434 -0.192688
vn -0.912505 -0.156434 -0.377972
vn -0.821233 -0.156434 -0.548730
vn -0.698401 -0.156434 -0.698401
vn -0.548730 -0.156434 -0.821233
vn -0.377972 -0.156434 -0.912505
vn -0.192688 -0.156434 -0.968710
vn -0.000000 -0.156434 -0.987688
vn 0.192688 -0.156434 -0.968710
vn 0.377972 -0.156434 -0.912505
vn 0.548730 -0.156434 -0.821233
vn 0.698401 -0.156434 -0.698401
vn 0.821233 -0.156434 -0.548730
vn 0.912505 -0.156434 -0.377972
vn 0.968710 -0.156434 -0.192688
vn 1.000000 0.000000 0.000000
vn 0.980785 0.000000 0.195090
vn 0.923880 0.000000 0.382683
vn 0.831470 0.000000 0.555570
vn 0.707107 0.000000 0.707107
vn 0.555570 0.000000 0.831470
vn 0.382683 0.000000 0.923880
vn 0.195090 0.000000 0.980785
vn 0.000000 0.000000 1.000000
vn -0.195090 0.000000 0.980785
vn -0.382683 0.000000 0.923880
vn -0.555570 0.000000 0.831470
vn -0.707107 0.000000 0.707107
vn -0.831470 0.000000 0.555570
vn -0.923880 0.000000 0.382683
vn -0.980785 0.000000 0.195090
vn -1.000000 0.000000 0.000000
vn -0.980785 0.000000 -0.195090
vn -0.923880 0.000000 -0.382683
vn -0.831470 0.000000 -0.555570
vn -0.707107 0.000000 -0.707107
vn -0.555570 0.000000 -0.831470
vn -0.382683 0.000000 -0.923880
vn -0.195090 0.000000 -0.980785
vn -0.000000 0.000000 -1.000000
vn 0.195090 0.000000 -0.980785
vn 0.382683 0.000000 -0.923880
vn 0.555570 0.000000 -0.831470
vn 0.707107 0.000000 -0.707107
vn 0.831470 0.000000 -0.555570
vn 0.923880 0.000000 -0.382683
vn 0.980785 0.000000 -0.195090
vn 0.987688 0.156434 0.000000
vn 0.968710 0.156434 0.192688
vn 0.912505 0.156434 0.377972
vn 0.821233 0.156434 0.548730
vn 0.698401 0.156434 0.698401
vn 0.548730 0.156434 0.821233
vn 0.377972 0.156434 0.912505
vn 0.192688 0.156434 0.968710
vn 0.000000 0.156434 0.987688
vn -0.192688 0.156434 0.968710
vn -0.377972 0.156434 0.912505
vn -0.548730 0.156434 0.821233
vn -0.698401 0.156434 0.698401
vn -0.821233 0.156434 0.548730
vn -0.912505 0.156434 0.377972
vn -0.968710 0.156434 0.192688
vn -0.987688 0.156434 0.000000
vn -0.968710 0.156434 -0.192688
vn -0.912505 0.156434 -0.377972
vn -0.821233 0.156434 -0.548730
vn -0.698401 0.156434 -0.698401
vn -0.548730 0.156434 -0.821233
vn -0.377972 0.156434 -0.912505
vn -0.192688 0.156434 -0.968710
vn -0.000000 0.156434 -0.987688
vn 0.192688 0.156434 -0.968710
vn 0.377972 0.156434 -0.912505
vn 0.548730 0.156434 -0.821233
vn 0.698401 0.156434 -0.698401
vn 0.821233 0.156434 -0.548730
vn 0.912505 0.156434 -0.377972
vn 0.968710 0.156434 -0.192688
vn 0.951057 0.309017 0.000000
vn 0.932782 0.309017 0.185542
vn 0.878662 0.309017 0.363954
vn 0.790775 0.309017 0.528379
vn 0.672499 0.309017 0.672499
vn 0.528379 0.309017 0.790775
vn 0.363954 0.309017 0.878662
vn 0.185542 0.309017 0.932782
vn 0.000000 0.309017 0.951057
vn -0.185542 0.309017 0.932782
vn -0.363954 0.309017 0.878662
vn -0.528379 0.309017 0.790775
vn -0.672499 0.309017 0.672499
vn -0.790775 0.309017 0.528379
vn -0.878662 0.309017 0.363954
vn -0.932782 0.309017 0.185542
vn -0.951057 0.309017 0.000000
vn -0.932782 0.309017 -0.185542
vn -0.878662 0.309017 -0.363954
vn -0.790775 0.309017 -0.528379
vn -0.672499 0.309017 -0.672499
vn -0.528379 0.309017 -0.790775
vn -0.363954 0.309017 -0.878662
vn -0.185542 0.309017 -0.932782
vn -0.000000 0.309017 -0.951057
vn 0.185542 0.309017 -0.932782
vn 0.363954 0.309017 -0.878662
vn 0.528379 0.309017 -0.790775
vn 0.672499 0.309017 -0.672499
vn 0.790775 0.309017 -0.528379
vn 0.878662 0.309017 -0.363954
vn 0.932782 0.309017 -0.185542
vn 0.891007 0.453990 0.000000
vn 0.873886 0.453990 0.173827
vn 0.823183 0.453990 0.340973
vn 0.740845 0.453990 0.495017
vn 0.630037 0.453990 0.630037
vn 0.495017 0.453990 0.740845
vn 0.340973 0.453990 0.823183
vn 0.173827 0.453990 0.873886
vn 0.000000 0.453990 0.891007
vn -0.173827 0.453990 0.873886
vn -0.340973 0.453990 0.823183
vn -0.495017 0.453990 0.740845
vn -0.630037 0.453990 0.630037
vn -0.740845 0.453990 0.495017
vn -0.823183 0.453990 0.340973
vn -0.873886 0.453990 0.173827
vn -0.891007 0.453990 0.000000
vn -0.873886 0.453990 -0.173827
vn -0.823183 0.453990 -0.340973
vn -0.740845 0.453990 -0.495017
vn -0.630037 0.453990 -0.630037
vn -0.495017 0.453990 -0.740845
vn -0.340973 0.453990 -0.823183
vn -0.173827 0.453990 -0.873886
vn -0.000000 0.453990 -0.891007
vn 0.173827 0.453990 -0.873886
vn 0.340973 0.453990 -0.823183
vn 0.495017 0.453990 -0.740845
vn 0.630037 0.453990 -0.630037
vn 0.740845 0.453990 -0.495017
vn 0.823183 0.453990 -0.340973
vn 0.873886 0.453990 -0.173827
vn 0.809017 0.587785 0.000000
vn 0.793472 0.587785 0.157831
vn 0.747434 0.587785 0.309597
vn 0.672673 0.587785 0.449466
vn 0.572061 0.587785 0.572061
vn 0.449466 0.587785 0.672673
vn 0.309597 0.587785 0.747434
vn 0.157831 0.587785 0.793472
vn 0.000000 0.587785 0.809017
vn -0.157831 0.587785 0.793472
vn -0.309597 0.587785 0.747434
vn -0.449466 0.587785 0.672673
vn -0.572061 0.587785 0.572061
vn -0.672673 0.587785 0.449466
vn -0.747434 0.587785 0.309597
vn -0.793472 0.587785 0.157831
vn -0.809017 0.587785 0.000000
vn -0.793472 0.587785 -0.157831
vn -0.747434 0.587785 -0.309597
vn -0.672673 0.587785 -0.449466
vn -0.572061 0.587785 -0.572061
vn -0.449466 0.587785 -0.672673
vn -0.309597 0.587785 -0.747434
vn -0.157831 0.587785 -0.793472
vn -0.000000 0.587785 -0.809017
vn 0.157831 0.587785 -0.793472
vn 0.309597 0.587785 -0.747434
vn 0.449466 0.587785 -0.672673
vn 0.572061 0.587785 -0.572061
vn 0.672673 0.587785 -0.449466
vn 0.747434 0.587785 -0.309597
vn 0.793472 0.587785 -0.157831
vn 0.707107 0.707107 0.000000
vn 0.693520 0.707107 0.137950
vn 0.653281 0.707107 0.270598
vn 0.587938 0.707107 0.392847
vn 0.500000 0.707107 0.500000
vn 0.392847 0.707107 0.587938
vn 0.270598 0.707107 0.653281
vn 0.137950 0.707107 0.693520
vn 0.000000 0.707107 0.707107
vn -0.137950 0.707107 0.693520
vn -0.270598 0.707107 0.653281
vn -0.392847 0.707107 0.587938
vn -0.500000 0.707107 0.500000
vn -0.587938 0.707107 0.392847
vn -0.653281 0.707107 0.270598
vn -0.693520 0.707107 0.137950
vn -0.707107 0.707107 0.000000
vn -0.693520 0.707107 -0.137950
vn -0.653281 0.707107 -0.270598
vn -0.587938 0.707107 -0.392847
vn -0.500000 0.707107 -0.500000
vn -0.392847 0.707107 -0.587938
vn -0.270598 0.707107 -0.653281
vn -0.137950 0.707107 -0.693520
vn -0.000000 0.707107 -0.707107
vn 0.137950 0.707107 -0.693520
vn 0.270598 0.707107 -0.653281
vn 0.392847 0.707107 -0.587938
vn 0.500000 0.707107 -0.500000
vn 0.587938 0.707107 -0.392847
vn 0.653281 0.707107 -0.270598
vn 0.693520 0.707107 -0.137950
vn 0.587785 0.809017 0.000000
vn 0.576491 0.809017 0.114671
vn 0.543043 0.809017 0.224936
vn 0.488726 0.809017 0.326556
vn 0.415627 0.809017 0.415627
vn 0.326556 0.809017 0.488726
vn 0.224936 0.809017 0.543043
vn 0.114671 0.809017 0.576491
vn 0.000000 0.809017 0.587785
vn -0.114671 0.809017 0.576491
vn -0.224936 0.809017 0.543043
vn -0.326556 0.809017 0.488726
vn -0.415627 0.809017 0.415627
vn -0.488726 0.809017 0.326556
vn -0.543043 0.809017 0.224936
vn -0.576491 0.809017 0.114671
vn -0.587785 0.809017 0.000000
vn -0.576491 0.809017 -0.114671
vn -0.543043 0.809017 -0.224936
vn -0.488726 0.809017 -0.326556
vn -0.415627 0.809017 -0.415627
vn -0.326556 0.809017 -0.488726
vn -0.224936 0.809017 -0.543043
vn -0.114671 0.809017 -0.576491
vn -0.000000 0.809017 -0.587785
vn 0.114671 0.809017 -0.576491
vn 0.224936 0.809017 -0.543043
vn 0.326556 0.809017 -0.488726
vn 0.415627 0.809017 -0.415627
vn 0.488726 0.809017 -0.326556
vn 0.543043 0.809017 -0.224936
vn 0.576491 0.809017 -0.114671
vn 0.453990 0.891007 0.000000
vn 0.445267 0.891007 0.088569
vn 0.419433 0.891007 0.173735
vn 0.377479 0.891007 0.252224
vn 0.321020 0.891007 0.321020
vn 0.252224 0.891007 0.377479
vn 0.173735 0.891007 0.419433
vn 0.088569 0.891007 0.445267
vn 0.000000 0.891007 0.453990
vn -0.088569 0.891007 0.445267
vn -0.173735 0.891007 0.419433
vn -0.252224 0.891007 0.377479
vn -0.321020 0.891007 0.321020
vn -0.377479 0.891007 0.252224
vn -0.419433 0.891007 0.173735
vn -0.445267 0.891007 0.088569
vn -0.453990 0.891007 0.000000
vn -0.445267 0.891007 -0.088569
vn -0.419433 0.891007 -0.173735
vn -0.377479 0.891007 -0.252224
vn -0.321020 0.891007 -0.321020
vn -0.252224 0.891007 -0.377479
vn -0.173735 0.891007 -0.419433
vn -0.088569 0.891007 -0.445267
vn -0.000000 0.891007 -0.453990
vn 0.088569 0.891007 -0.445267
vn 0.173735 0.891007 -0.419433
vn 0.252224 0.891007 -0.377479
vn 0.321020 0.891007 -0.321020
vn 0.377479 0.891007 -0.252224
vn 0.419433 0.891007 -0.173735
vn 0.445267 0.891007 -0.088569
vn 0.309017 0.951057 0.000000
vn 0.303079 0.951057 0.060286
vn 0.285494 0.951057 0.118256
vn 0.256938 0.951057 0.171681
vn 0.218508 0.951057 0.218508
vn 0.171681 0.951057 0.256938
vn 0.118256 0.951057 0.285494
vn 0.060286 0.951057 0.303079
vn 0.000000 0.951057 0.309017
vn -0.060286 0.951057 0.303079
vn -0.118256 0.951057 0.285494
vn -0.171681 0.951057 0.256938
vn -0.218508 0.951057 0.218508
vn -0.256938 0.951057 0.171681
vn -0.285494 0.951057 0.118256
vn -0.303079 0.951057 0.060286
vn -0.309017 0.951057 0.000000
vn -0.303079 0.951057 -0.060286
vn -0.285494 0.951057 -0.118256
vn -0.256938 0.951057 -0.171681
vn -0.218508 0.951057 -0.218508
vn -0.171681 0.951057 -0.256938
vn -0.118256 0.951057 -0.285494
vn -0.060286 0.951057 -0.303079
vn -0.000000 0.951057 -0.309017
vn 0.060286 0.951057 -0.303079
vn 0.118256 0.951057 -0.285494
vn 0.171681 0.951057 -0.256938
vn 0.218508 0.951057 -0.218508
vn 0.256938 0.951057 -0.171681
vn 0.285494 0.951057 -0.118256
vn 0.303079 0.951057 -0.060286
vn 0.156434 0.987688 0.000000
vn 0.153429 0.987688 0.030519
vn 0.144527 0.987688 0.059865
vn 0.130071 0.987688 0.086910
vn 0.110616 0.987688 0.110616
vn 0.086910 0.987688 0.130071
vn 0.059865 0.987688 0.144527
vn 0.030519 0.987688 0.153429
vn 0.000000 0.987688 0.156434
vn -0.030519 0.987688 0.153429
vn -0.059865 0.987688 0.144527
vn -0.086910 0.987688 0.130071
vn -0.110616 0.987688 0.110616
vn -0.130071 0.987688 0.086910
vn -0.144527 0.987688 0.059865
vn -0.153429 0.987688 0.030519
vn -0.156434 0.987688 0.000000
vn -0.153429 0.987688 -0.030519
vn -0.144527 0.987688 -0.059865
vn -0.130071 0.987688 -0.086910
vn -0.110616 0.987688 -0.110616
vn -0.086910 0.987688 -0.130071
vn -0.059865 0.987688 -0.144527
vn -0.030519 0.987688 -0.153429
vn -0.000000 0.987688 -0.156434
vn 0.030519 0.987688 -0.153429
vn 0.059865 0.987688 -0.144527
vn 0.086910 0.987688 -0.130071
vn 0.110616 0.987688 -0.110616
vn 0.130071 0.987688 -0.086910
vn 0.144527 0.987688 -0.059865
vn 0.153429 0.987688 -0.030519
vn 0.000000 1.000000 0.000000
vn 0.000000 1.000000 0.000000
g Planet
f 1/1/1 2/33/2 3/34/3
f 1/2/1 3/34/3 4/35/4
f 1/3/1 4/35/4 5/36/5
f 1/4/1 5/36/5 6/37/6
f 1/5/1 6/37/6 7/38/7
f 1/6/1 7/38/7 8/39/8
f 1/7/1 8/39/8 9/40/9
f 1/8/1 9/40/9 10/41/10
f 1/9/1 10/41/10 11/42/11
f 1/10/1 11/42/11 12/43/12
f 1/11/1 12/43/12 13/44/13
f 1/12/1 13/44/13 14/45/14
f 1/13/1 14/45/14 15/46/15
f 1/14/1 15/46/15 16/47/16
f 1/15/1 16/47/16 17/48/17
f 1/16/1 17/48/17 18/49/18
f 1/17/1 18/49/18 19/50/19
f 1/18/1 19/50/19 20/51/20
f 1/19/1 20/51/20 21/52/21
f 1/20/1 21/52/21 22/53/22
f 1/21/1 22/53/22 23/54/23
f 1/22/1 23/54/23 24/55/24
f 1/23/1 24/55/24 25/56/25
f 1/24/1 25/56/25 26/57/26
f 1/25/1 26/57/26 27/58/27
f 1/26/1 27/58/27 28/59/28
f 1/27/1 28/59/28 29/60/29
f 1/28/1 29/60/29 30/61/30
f 1/29/1 30/61/30 31/62/31
f 1/30/1 31/62/31 32/63/32
f 1/31/1 32/63/32 33/64/33
f 1/32/1 33/64/33 2/65/2
f 34/66/34 35/67/35 3/34/3 2/33/2
f 35/67/35 36/68/36 4/35/4 3/34/3
f 36/68/36 37/69/37 5/36/5 4/35/4
f 37/69/37 38/70/38 6/37/6 5/36/5
f 38/70/38 39/71/39 7/38/7 6/37/6
f 39/71/39 40/72/40 8/39/8 7/38/7
f 40/72/40 41/73/41 9/40/9 8/39/8
f 41/73/41 42/74/42 10/41/10 9/40/9
f 42/74/42 43/75/43 11/42/11 10/41/10
f 43/75/43 44/76/44 12/43/12 11/42/11
f 44/76/44 45/77/45 13/44/13 12/43/12
f 45/77/45 46/78/46 14/45/14 13/44/13
f 46/78/46 47/79/47 15/46/15 14/45/14
f 47/79/47 48/80/48 16/47/16 15/46/15
f 48/80/48 49/81/49 17/48/17 16/47/16
f 49/81/49 50/82/50 18/49/18 17/48/17
f 50/82/50 51/83/51 19/50/19 18/49/18
f 51/83/51 52/84/52 20/51/20 19/50/19
f 52/84/52 53/85/53 21/52/21 20/51/20
f 53/85/53 54/86/54 22/53/22 21/52/21
f 54/86/54 55/87/55 23/54/23 22/53/22
f 55/87/55 56/88/56 24/55/24 23/54/23
f 56/88/56 57/89/57 25/56/25 24/55/24
f 57/89/57 58/90/58 26/57/26 25/56/25
f 58/90/58 59/91/59 27/58/27 26/57/26
f 59/91/59 60/92/60 28/59/28 27/58/27
f 60/92/60 61/93/61 29/60/29 28/59/28
f 61/93/61 62/94/62 30/61/30 29/60/29
f 62/94/62 63/95/63 31/62/31 30/61/30
f 63/95/63 64/96/64 32/63/32 31/62/31
f 64/96/64 65/97/65 33/64/33 32/63/32
f 65/97/65 34/98/34 2/65/2 33/64/33
f 66/99/66 67/100/67 35/67/35 34/66/34
f 67/100/67 68/101/68 36/68/36 35/67/35
f 68/101/68 69/102/69 37/69/37 36/68/36
f 69/102/69 70/103/70 38/70/38 37/69/37
f 70/103/70 71/104/71 39/71/39 38/70/38
f 71/104/71 72/105/72 40/72/40 39/71/39
f 72/105/72 73/106/73 41/73/41 40/72/40
f 73/106/73 74/107/74 42/74/42 41/73/41
f 74/107/74 75/108/75 43/75/43 42/74/42
f 75/108/75 76/109/76 44/76/44 43/75/43
f 76/109/76 77/110/77 45/77/45 44/76/44
f 77/110/77 78/111/78 46/78/46 45/77/45
f 78/111/78 79/112/79 47/79/47 46/78/46
f 79/112/79 80/113/80 48/80/48 47/79/47
f 80/113/80 81/114/81 49/81/49 48/80/48
f 81/114/81 82/115/82 50/82/50 49/81/49
f 82/115/82 83/116/83 51/83/51 50/82/50
f 83/116/83 84/117/84 52/84/52 51/83/51
f 84/117/84 85/118/85 53/85/53 52/84/52
f 85/118/85 86/119/86 54/86/54 53/85/53
f 86/119/86 87/120/87 55/87/55 54/86/54
f 87/120/87 88/121/88 56/88/56 55/87/55
f 88/121/88 89/122/89 57/89/57 56/88/56
f 89/122/89 90/123/90 58/90/58 57/89/57
f 90/123/90 91/124/91 59/91/59 58/90/58
f 91/124/91 92/125/92 60/92/60 59/91/59
f 92/125/92 93/126/93 61/93/61 60/92/60
f 93/126/93 94/127/94 62/94/62 61/93/61
f 94/127/94 95/128/95 63/95/63 62/94/62
f 95/128/95 96/129/96 64/96/64 63/95/63
f 96/129/96 97/130/97 65/97/65 64/96/64
f 97/130/97 66/131/66 34/98/34 65/97/65
f 98/132/98 99/133/99 67/100/67 66/99/66
f 99/133/99 100/134/100 68/101/68 67/100/67
f 100/134/100 101/135/101 69/102/69 68/101/68
f 101/135/101 102/136/102 70/103/70 69/102/69
f 102/136/102 103/137/103 71/104/71 70/103/70
f 103/137/103 104/138/104 72/105/72 71/104/71
f 104/138/104 105/139/105 73/106/73 72/105/72
f 105/139/105 106/140/106 74/107/74 73/106/73
f 106/140/106 107/141/107 75/108/75 74/107/74
f 107/141/107 108/142/108 76/109/76 75/108/75
f 108/142/108 109/143/109 77/110/77 76/109/76
f 109/143/109 110/144/110 78/111/78 77/110/77
f 110/144/110 111/145/111 79/112/79 78/111/78
f 111/145/111 112/146/112 80/113/80 79/112/79
f 112/146/112 113/147/113 81/114/81 80/113/80
f 113/147/113 114/148/114 82/115/82 81/114/81
f 114/148/114 115/149/115 83/116/83 82/115/82
f 115/149/115 116/150/116 84/117/84 83/116/83
f 116/150/116 117/151/117 85/118/85 84/117/84
f 117/151/117 118/152/118 86/119/86 85/118/85
f 118/152/118 119/153/119 87/120/87 86/119/86
f 119/153/119 120/154/120 88/121/88 87/120/87
f 120/154/120 121/155/121 89/122/89 88/121/88
f 121/155/121 122/156/122 90/123/90 89/122/89
f 122/156/122 123/157/123 91/124/91 90/123/90
f 123/157/123 124/158/124 92/125/92 91/124/91
f 124/158/124 125/159/125 93/126/93 92/125/92
f 125/159/125 126/160/126 94/127/94 93/126/93
f 126/160/126 127/161/127 95/128/95 94/127/94
f 127/161/127 128/162/128 96/129/96 95/128/95
f 128/162/128 129/163/129 97/130/97 96/129/96
f 129/163/129 98/164/98 66/131/66 97/130/97
f 130/165/130 131/166/131 99/133/99 98/132/98
f 131/166/131 132/167/132 100/134/100 99/133/99
f 132/167/132 133/168/133 101/135/101 100/134/100
f 133/168/133 134/169/134 102/136/102 101/135/101
f 134/169/134 135/170/135 103/137/103 102/136/102
f 135/170/135 136/171/136 104/138/104 103/137/103
f 136/171/136 137/172/137 105/139/105 104/138/104
f 137/172/137 138/173/138 106/140/106 105/139/105
f 138/173/138 139/174/139 107/141/107 106/140/106
f 139/174/139 140/175/140 108/142/108 107/141/107
f 140/175/140 141/176/141 109/143/109 108/142/108
f 141/176/141 142/177/142 110/144/110 109/143/109
f 142/177/142 143/178/143 111/145/111 110/144/110
f 143/178/143 144/179/144 112/146/112 111/145/111
f 144/179/144 145/180/145 113/147/113 112/146/112
f 145/180/145 146/181/146 114/148/114 113/147/113
f 146/181/146 147/182/147 115/149/115 114/148/114
f 147/182/147 148/183/148 116/150/116 115/149/115
f 148/183/148 149/184/149 117/151/117 116/150/116
f 149/184/149 150/185/150 118/152/118 117/151/117
f 150/185/150 151/186/151 119/153/119 118/152/118
f 151/186/151 152/187/152 120/154/120 119/153/119
f 152/187/152 153/188/153 121/155/121 120/154/120
f 153/188/153 154/189/154 122/156/122 121/155/121
f 154/189/154 155/190/155 123/157/123 122/156/122
f 155/190/155 156/191/156 124/158/124 123/157/123
f 156/191/156 157/192/157 125/159/125 124/158/124
f 157/192/157 158/193/158 126/160/126 125/159/125
f 158/193/158 159/194/159 127/161/127 126/160/126
f 159/194/159 160/195/160 128/162/128 127/161/127
f 160/195/160 161/196/161 129/163/129 128/162/128
f 161/196/161 130/197/130 98/164/98 129/163/129
f 162/198/162 163/199/163 131/166/131 130/165/130
f 163/199/163 164/200/164 132/167/132 131/166/131
f 164/200/164 165/201/165 133/168/133 132/167/132
f 165/201/165 166/202/166 134/169/134 133/168/133
f 166/202/166 167/203/167 135/170/135 134/169/134
f 167/203/167 168/204/168 136/171/136 135/170/135
f 168/204/168 169/205/169 137/172/137 136/171/136
f 169/205/169 170/206/170 138/173/138 137/172/137
f 170/206/170 171/207/171 139/174/139 138/173/138
f 171/207/171 172/208/172 140/175/140 139/174/139
f 172/208/172 173/209/173 141/176/141 140/175/140
f 173/209/173 174/210/174 142/177/142 141/176/141
f 174/210/174 175/211/175 143/178/143 142/177/142
f 175/211/175 176/212/176 144/179/144 143/178/143
f 176/212/176 177/213/177 145/180/145 144/179/144
f 177/213/177 178/214/178 146/181/146 145/180/145
f 178/214/178 179/215/179 147/182/147 146/181/146
f 179/215/179 180/216/180 148/183/148 147/182/147
f 180/216/180 181/217/181 149/184/149 148/183/148
f 181/217/181 182/218/182 150/185/150 149/184/149
f 182/218/182 183/219/183 151/186/151 150/185/150
f 183/219/183 184/220/184 152/187/152 151/186/151
f 184/220/184 185/221/185 153/188/153 152/187/152
f 185/221/185 186/222/186 154/189/154 153/188/153
f 186/222/186 187/223/187 155/190/155 154/189/154
f 187/223/187 188/224/188 156/191/156 155/190/155
f 188/224/188 189/225/189 157/192/157 156/191/156
f 189/225/189 190/226/190 158/193/158 157/192/157
f 190/226/190 191/227/191 159/194/159 158/193/158
f 191/227/191 192/228/192 160/195/160 159/194/159
f 192/228/192 193/229/193 161/196/161 160/195/160
f 193/229/193 162/230/162 130/197/130 161/196/161
f 194/231/194 195/232/195 163/199/163 162/198/162
f 195/232/195 196/233/196 164/200/164 163/199/163
f 196/233/196 197/234/197 165/201/165 164/200/164
f 197/234/197 198/235/198 166/202/166 165/201/165
f 198/235/198 199/236/199 167/203/167 166/202/166
f 199/236/199 200/237/200 168/204/168 167/203/167
f 200/237/200 201/238/201 169/205/169 168/204/168
f 201/238/201 202/239/202 170/206/170 169/205/169
f 202/239/202 203/240/203 171/207/171 170/206/170
f 203/240/203 204/241/204 172/208/172 171/207/171
f 204/241/204 205/242/205 173/209/173 172/208/172
f 205/242/205 206/243/206 174/210/174 173/209/173
f 206/243/206 207/244/207 175/211/175 174/210/174
f 207/244/207 208/245/208 176/212/176 175/211/175
f 208/245/208 209/246/209 177/213/177 176/212/176
f 209/246/209 210/247/210 178/214/178 177/213/177
f 210/247/210 211/248/211 179/215/179 178/214/178
f 211/248/211 212/249/212 180/216/180 179/215/179
f 212/249/212 213/250/213 181/217/181 180/216/180
f 213/250/213 214/251/214 182/218/182 181/217/181
f 214/251/214 215/252/215 183/219/183 182/218/182
f 215/252/215 216/253/216 184/220/184 183/219/183
f 216/253/216 217/254/217 185/221/185 184/220/184
f 217/254/217 218/255/218 186/222/186 185/221/185
f 218/255/218 219/256/219 187/223/187 186/222/186
f 219/256/219 220/257/220 188/224/188 187/223/187
f 220/257/220 221/258/221 189/225/189 188/224/188
f 221/258/221 222/259/222 190/226/190 189/225/189
f 222/259/222 223/260/223 191/227/191 190/226/190
f 223/260/223 224/261/224 192/228/192 191/227/191
f 224/261/224 225/262/225 193/229/193 192/228/192
f 225/262/225 194/263/194 162/230/162 193/229/193
f 226/264/226 227/265/227 195/232/195 194/231/194
f 227/265/227 228/266/228 196/233/196 195/232/195
f 228/266/228 229/267/229 197/234/197 196/233/196
f 229/267/229 230/268/230 198/235/198 197/234/197
f 230/268/230 231/269/231 199/236/199 198/235/198
f 231/269/231 232/270/232 200/237/200 199/236/199
f 232/270/232 233/271/233 201/238/201 200/237/200
f 233/271/233 234/272/234 202/239/202 201/238/201
f 234/272/234 235/273/235 203/240/203 202/239/202
f 235/273/235 236/274/236 204/241/204 203/240/203
f 236/274/236 237/275/237 205/242/205 204/241/204
f 237/275/237 238/276/238 206/243/206 205/242/205
f 238/276/238 239/277/239 207/244/207 206/243/206
f 239/277/239 240/278/240 208/245/208 207/244/207
f 240/278/240 241/279/241 209/246/209 208/245/208
f 241/279/241 242/280/242 210/247/210 209/246/209
f 242/280/242 243/281/243 211/248/211 210/247/210
f 243/281/243 244/282/244 212/249/212 211/248/211
f 244/282/244 245/283/245 213/250/213 212/249/212
f 245/283/245 246/284/246 214/251/214 213/250/213
f 246/284/246 247/285/247 215/252/215 214/251/214
f 247/285/247 248/286/248 216/253/216 215/252/215
f 248/286/248 249/287/249 217/254/217 216/253/216
f 249/287/249 250/288/250 218/255/218 217/254/217
f 250/288/250 251/289/251 219/256/219 218/255/218
f 251/289/251 252/290/252 220/257/220 219/256/219
f 252/290/252 253/291/253 221/258/221 220/257/220
f 253/291/253 254/292/254 222/259/222 221/258/221
f 254/292/254 255/293/255 223/260/223 222/259/222
f 255/293/255 256/294/256 224/261/224 223/260/223
f 256/294/256 257/295/257 225/262/225 224/261/224
f 257/295/257 226/296/226 194/263/194 225/262/225
f 258/297/258 259/298/259 227/265/227 226/264/226
f 259/298/259 260/299/260 228/266/228 227/265/227
f 260/299/260 261/300/261 229/267/229 228/266/228
f 261/300/261 262/301/262 230/268/230 229/267/229
f 262/301/262 263/302/263 231/269/231 230/268/230
f 263/302/263 264/303/264 232/270/232 231/269/231
f 264/303/264 265/304/265 233/271/233 232/270/232
f 265/304/265 266/305/266 234/272/234 233/271/233
f 266/305/266 267/306/267 235/273/235 234/272/234
f 267/306/267 268/307/268 236/274/236 235/273/235
f 268/307/268 269/308/269 237/275/237 236/274/236
f 269/308/269 270/309/270 238/276/238 237/275/237
f 270/309/270 271/310/271 239/277/239 238/276/238
f 271/310/271 272/311/272 240/278/240 239/277/239
f 272/311/272 273/312/273 241/279/241 240/278/240
f 273/312/273 274/313/274 242/280/242 241/279/241
f 274/313/274 275/314/275 243/281/243 242/280/242
f 275/314/275 276/315/276 244/282/244 243/281/243
f 276/315/276 277/316/277 245/283/245 244/282/244
f 277/316/277 278/317/278 246/284/246 245/283/245
f 278/317/278 279/318/279 247/285/247 246/284/246
f 279/318/279 280/319/280 248/286/248 247/285/247
f 280/319/280 281/320/281 249/287/249 248/286/248
f 281/320/281 282/321/282 250/288/250 249/287/249
f 282/321/282 283/322/283 251/289/251 250/288/250
f 283/322/283 284/323/284 252/290/252 251/289/251
f 284/323/284 285/324/285 253/291/253 252/290/252
f 285/324/285 286/325/286 254/292/254 253/291/253
f 286/325/286 287/326/287 255/293/255 254/292/254
f 287/326/287 288/327/288 256/294/256 255/293/255
f 288/327/288 289/328/289 257/295/257 256/294/256
f 289/328/289 258/329/258 226/296/226 257/295/257
f 290/330/290 291/331/291 259/298/259 258/297/258
f 291/331/291 292/332/292 260/299/260 259/298/259
f 292/332/292 293/333/293 261/300/261 260/299/260
f 293/333/293 294/334/294 262/301/262 261/300/261
f 294/334/294 295/335/295 263/302/263 262/301/262
f 295/335/295 296/336/296 264/303/264 263/302/263
f 296/336/296 297/337/297 265/304/265 264/303/264
f 297/337/297 298/338/298 266/305/266 265/304/265
f 298/338/298 299/339/299 267/306/267 266/305/266
f 299/339/299 300/340/300 268/307/268 267/306/267
f 300/340/300 301/341/301 269/308/269 268/307/268
f 301/341/301 302/342/302 270/309/270 269/308/269
f 302/342/302 303/343/303 271/310/271 270/309/270
f 303/343/303 304/344/304 272/311/272 271/310/271
f 304/344/304 305/345/305 273/312/273 272/311/272
f 305/345/305 306/346/306 274/313/274 273/312/273
f 306/346/306 307/347/307 275/314/275 274/313/274
f 307/347/307 308/348/308 276/315/276 275/314/275
f 308/348/308 309/349/309 277/316/277 276/315/276
f 309/349/309 310/350/310 278/317/278 277/316/277
f 310/350/310 311/351/311 279/318/279 278/317/278
f 311/351/311 312/352/312 280/319/280 279/318/279
f 312/352/312 313/353/313 281/320/281 280/319/280
f 313/353/313 314/354/314 282/321/282 281/320/281
f 314/354/314 315/355/315 283/322/283 282/321/282
f 315/355/315 316/356/316 284/323/284 283/322/283
f 316/356/316 317/357/317 285/324/285 284/323/284
f 317/357/317 318/358/318 286/325/286 285/324/285
f 318/358/318 319/359/319 287/326/287 286/325/286
f 319/359/319 320/360/320 288/327/288 287/326/287
f 320/360/320 321/361/321 289/328/289 288/327/288
f 321/361/321 290/362/290 258/329/258 289/328/289
f 322/363/322 323/364/323 291/331/291 290/330/290
f 323/364/323 324/365/324 292/332/292 291/331/291
f 324/365/324 325/366/325 293/333/293 292/332/292
f 325/366/325 326/367/326 294/334/294 293/333/293
f 326/367/326 327/368/327 295/335/295 294/334/294
f 327/368/327 328/369/328 296/336/296 295/335/295
f 328/369/328 329/370/329 297/337/297 296/336/296
f 329/370/329 330/371/330 298/338/298 297/337/297
f 330/371/330 331/372/331 299/339/299 298/338/298
f 331/372/331 332/373/332 300/340/300 299/339/299
f 332/373/332 333/374/333 301/341/301 300/340/300
f 333/374/333 334/375/334 302/342/302 301/341/301
f 334/375/334 335/376/335 303/343/303 302/342/302
f 335/376/335 336/377/336 304/344/304 303/343/303
f 336/377/336 337/378/337 305/345/305 304/344/304
f 337/378/337 338/379/338 306/346/306 305/345/305
f 338/379/338 339/380/339 307/347/307 306/346/306
f 339/380/339 340/381/340 308/348/308 307/347/307
f 340/381/340 341/382/341 309/349/309 308/348/308
f 341/382/341 342/383/342 310/350/310 309/349/309
f 342/383/342 343/384/343 311/351/311 310/350/310
f 343/384/343 344/385/344 312/352/312 311/351/311
f 344/385/344 345/386/345 313/353/313 312/352/312
f 345/386/345 346/387/346 314/354/314 313/353/313
f 346/387/346 347/388/347 315/355/315 314/354/314
f 347/388/347 348/389/348 316/356/316 315/355/315
f 348/389/348 349/390/349 317/357/317 316/356/316
f 349/390/349 350/391/350 318/358/318 317/357/317
f 350/391/350 351/392/351 319/359/319 318/358/318
f 351/392/351 352/393/352 320/360/320 319/359/319
f 352/393/352 353/394/353 321/361/321 320/360/320
f 353/394/353 322/395/322 290/362/290 321/361/321
f 354/396/354 355/397/355 323/364/323 322/363/322
f 355/397/355 356/398/356 324/365/324 323/364/323
f 356/398/356 357/399/357 325/366/325 324/365/324
f 357/399/357 358/400/358 326/367/326 325/366/325
f 358/400/358 359/401/359 327/368/327 326/367/326
f 359/401/359 360/402/360 328/369/328 327/368/327
f 360/402/360 361/403/361 329/370/329 328/369/328
f 361/403/361 362/404/362 330/371/330 329/370/329
f 362/404/362 363/405/363 331/372/331 330/371/330
f 363/405/363 364/406/364 332/373/332 331/372/331
f 364/406/364 365/407/365 333/374/333 332/373/332
f 365/407/365 366/408/366 334/375/334 333/374/333
f 366/408/366 367/409/367 335/376/335 334/375/334
f 367/409/367 368/410/368 336/377/336 335/376/335
f 368/410/368 369/411/369 337/378/337 336/377/336
f 369/411/369 370/412/370 338/379/338 337/378/337
f 370/412/370 371/413/371 339/380/339 338/379/338
f 371/413/371 372/414/372 340/381/340 339/380/339
f 372/414/372 373/415/373 341/382/341 340/381/340
f 373/415/373 374/416/374 342/383/342 341/382/341
f 374/416/374 375/417/375 343/384/343 342/383/342
f 375/417/375 376/418/376 344/385/344 343/384/343
f 376/418/376 377/419/377 345/386/345 344/385/344
f 377/419/377 378/420/378 346/387/346 345/386/345
f 378/420/378 379/421/379 347/388/347 346/387/346
f 379/421/379 380/422/380 348/389/348 347/388/347
f 380/422/380 381/423/381 349/390/349 348/389/348
f 381/423/381 382/424/382 350/391/350 349/390/349
f 382/424/382 383/425/383 351/392/351 350/391/350
f 383/425/383 384/426/384 352/393/352 351/392/351
f 384/426/384 385/427/385 353/394/353 352/393/352
f 385/427/385 354/428/354 322/395/322 353/394/353
f 386/429/386 387/430/387 355/397/355 354/396/354
f 387/430/387 388/431/388 356/398/356 355/397/355
f 388/431/388 389/432/389 357/399/357 356/398/356
f 389/432/389 390/433/390 358/400/358 357/399/357
f 390/433/390 391/434/391 359/401/359 358/400/358
f 391/434/391 392/435/392 360/402/360 359/401/359
f 392/435/392 393/436/393 361/403/361 360/402/360
f 393/436/393 394/437/394 362/404/362 361/403/361
f 394/437/394 395/438/395 363/405/363 362/404/362
f 395/438/395 396/439/396 364/406/364 363/405/363
f 396/439/396 397/440/397 365/407/365 364/406/364
f 397/440/397 398/441/398 366/408/366 365/407/365
f 398/441/398 399/442/399 367/409/367 366/408/366
f 399/442/399 400/443/400 368/410/368 367/409/367
f 400/443/400 401/444/401 369/411/369 368/410/368
f 401/444/401 402/445/402 370/412/370 369/411/369
f 402/445/402 403/446/403 371/413/371 370/412/370
f 403/446/403 404/447/404 372/414/372 371/413/371
f 404/447/404 405/448/405 373/415/373 372/414/372
f 405/448/405 406/449/406 374/416/374 373/415/373
f 406/449/406 407/450/407 375/417/375 374/416/374
f 407/450/407 408/451/408 376/418/376 375/417/375
f 408/451/408 409/452/409 377/419/377 376/418/376
f 409/452/409 410/453/410 378/420/378 377/419/377
f 410/453/410 411/454/411 379/421/379 378/420/378
f 411/454/411 412/455/412 380/422/380 379/421/379
f 412/455/412 413/456/413 381/423/381 380/422/380
f 413/456/413 414/457/414 382/424/382 381/423/381
f 414/457/414 415/458/415 383/425/383 382/424/382
f 415/458/415 416/459/416 384/426/384 383/425/383
f 416/459/416 417/460/417 385/427/385 384/426/384
f 417/460/417 386/461/386 354/428/354 385/427/385
f 418/462/418 419/463/419 387/430/387 386/429/386
f 419/463/419 420/464/420 388/431/388 387/430/387
f 420/464/420 421/465/421 389/432/389 388/431/388
f 421/465/421 422/466/422 390/433/390 389/432/389
f 422/466/422 423/467/423 391/434/391 390/433/390
f 423/467/423 424/468/424 392/435/392 391/434/391
f 424/468/424 425/469/425 393/436/393 392/435/392
f 425/469/425 426/470/426 394/437/394 393/436/393
f 426/470/426 427/471/427 395/438/395 394/437/394
f 427/471/427 428/472/428 396/439/396 395/438/395
f 428/472/428 429/473/429 397/440/397 396/439/396
f 429/473/429 430/474/430 398/441/398 397/440/397
f 430/474/430 431/475/431 399/442/399 398/441/398
f 431/475/431 432/476/432 400/443/400 399/442/399
f 432/476/432 433/477/433 401/444/401 400/443/400
f 433/477/433 434/478/434 402/445/402 401/444/401
f 434/478/434 435/479/435 403/446/403 402/445/402
f 435/479/435 436/480/436 404/447/404 403/446/403
f 436/480/436 437/481/437 405/448/405 404/447/404
f 437/481/437 438/482/438 406/449/406 405/448/405
f 438/482/438 439/483/439 407/450/407 406/449/406
f 439/483/439 440/484/440 408/451/408 407/450/407
f 440/484/440 441/485/441 409/452/409 408/451/408
f 441/485/441 442/486/442 410/453/410 409/452/409
f 442/486/442 443/487/443 411/454/411 410/453/410
f 443/487/443 444/488/444 412/455/412 411/454/411
f 444/488/444 445/489/445 413/456/413 412/455/412
f 445/489/445 446/490/446 414/457/414 413/456/413
f 446/490/446 447/491/447 415/458/415 414/457/414
f 447/491/447 448/492/448 416/459/416 415/458/415
f 448/492/448 449/493/449 417/460/417 416/459/416
f 449/493/449 418/494/418 386/461/386 417/460/417
f 450/495/450 451/496/451 419/463/419 418/462/418
f 451/496/451 452/497/452 420/464/420 419/463/419
f 452/497/452 453/498/453 421/465/421 420/464/420
f 453/498/453 454/499/454 422/466/422 421/465/421
f 454/499/454 455/500/455 423/467/423 422/466/422
f 455/500/455 456/501/456 424/468/424 423/467/423
f 456/501/456 457/502/457 425/469/425 424/468/424
f 457/502/457 458/503/458 426/470/426 425/469/425
f 458/503/458 459/504/459 427/471/427 426/470/426
f 459/504/459 460/505/460 428/472/428 427/471/427
f 460/505/460 461/506/461 429/473/429 428/472/428
f 461/506/461 462/507/462 430/474/430 429/473/429
f 462/507/462 463/508/463 431/475/431 430/474/430
f 463/508/463 464/509/464 432/476/432 431/475/431
f 464/509/464 465/510/465 433/477/433 432/476/432
f 465/510/465 466/511/466 434/478/434 433/477/433
f 466/511/466 467/512/467 435/479/435 434/478/434
f 467/512/467 468/513/468 436/480/436 435/479/435
f 468/513/468 469/514/469 437/481/437 436/480/436
f 469/514/469 470/515/470 438/482/438 437/481/437
f 470/515/470 471/516/471 439/483/439 438/482/438
f 471/516/471 472/517/472 440/484/440 439/483/439
f 472/517/472 473/518/473 441/485/441 440/484/440
f 473/518/473 474/519/474 442/486/442 441/485/441
f 474/519/474 475/520/475 443/487/443 442/486/442
f 475/520/475 476/521/476 444/488/444 443/487/443
f 476/521/476 477/522/477 445/489/445 444/488/444
f 477/522/477 478/523/478 446/490/446 445/489/445
f 478/523/478 479/524/479 447/491/447 446/490/446
f 479/524/479 480/525/480 448/492/448 447/491/447
f 480/525/480 481/526/481 449/493/449 448/492/448
f 481/526/481 450/527/450 418/494/418 449/493/449
f 482/528/482 483/529/483 451/496/451 450/495/450
f 483/529/483 484/530/484 452/497/452 451/496/451
f 484/530/484 485/531/485 453/498/453 452/497/452
f 485/531/485 486/532/486 454/499/454 453/498/453
f 486/532/486 487/533/487 455/500/455 454/499/454
f 487/533/487 488/534/488 456/501/456 455/500/455
f 488/534/488 489/535/489 457/502/457 456/501/456
f 489/535/489 490/536/490 458/503/458 457/502/457
f 490/536/490 491/537/491 459/504/459 458/503/458
f 491/537/491 492/538/492 460/505/460 459/504/459
f 492/538/492 493/539/493 461/506/461 460/505/460
f 493/539/493 494/540/494 462/507/462 461/506/461
f 494/540/494 495/541/495 463/508/463 462/507/462
f 495/541/495 496/542/496 464/509/464 463/508/463
f 496/542/496 497/543/497 465/510/465 464/509/464
f 497/543/497 498/544/498 466/511/466 465/510/465
f 498/544/498 499/545/499 467/512/467 466/511/466
f 499/545/499 500/546/500 468/513/468 467/512/467
f 500/546/500 501/547/501 469/514/469 468/513/468
f 501/547/501 502/548/502 470/515/470 469/514/469
f 502/548/502 503/549/503 471/516/471 470/515/470
f 503/549/503 504/550/504 472/517/472 471/516/471
f 504/550/504 505/551/505 473/518/473 472/517/472
f 505/551/505 506/552/506 474/519/474 473/518/473
f 506/552/506 507/553/507 475/520/475 474/519/474
f 507/553/507 508/554/508 476/521/476 475/520/475
f 508/554/508 509/555/509 477/522/477 476/521/476
f 509/555/509 510/556/510 478/523/478 477/522/477
f 510/556/510 511/557/511 479/524/479 478/523/478
f 511/557/511 512/558/512 480/525/480 479/524/479
f 512/558/512 513/559/513 481/526/481 480/525/480
f 513/559/513 482/560/482 450/527/450 481/526/481
f 514/561/514 515/562/515 483/529/483 482/528/482
f 515/562/515 516/563/516 484/530/484 483/529/483
f 516/563/516 517/564/517 485/531/485 484/530/484
f 517/564/517 518/565/518 486/532/486 485/531/485
f 518/565/518 519/566/519 487/533/487 486/532/486
f 519/566/519 520/567/520 488/534/488 487/533/487
f 520/567/520 521/568/521 489/535/489 488/534/488
f 521/568/521 522/569/522 490/536/490 489/535/489
f 522/569/522 523/570/523 491/537/491 490/536/490
f 523/570/523 524/571/524 492/538/492 491/537/491
f 524/571/524 525/572/525 493/539/493 492/538/492
f 525/572/525 526/573/526 494/540/494 493/539/493
f 526/573/526 527/574/527 495/541/495 494/540/494
f 527/574/527 528/575/528 496/542/496 495/541/495
f 528/575/528 529/576/529 497/543/497 496/542/496
f 529/576/529 530/577/530 498/544/498 497/543/497
f 530/577/530 531/578/531 499/545/499 498/544/498
f 531/578/531 532/579/532 500/546/500 499/545/499
f 532/579/532 533/580/533 501/547/501 500/546/500
f 533/580/533 534/581/534 502/548/502 501/547/501
f 534/581/534 535/582/535 503/549/503 502/548/502
f 535/582/535 536/583/536 504/550/504 503/549/503
f 536/583/536 537/584/537 505/551/505 504/550/504
f 537/584/537 538/585/538 506/552/506 505/551/505
f 538/585/538 539/586/539 507/553/507 506/552/506
f 539/586/539 540/587/540 508/554/508 507/553/507
f 540/587/540 541/588/541 509/555/509 508/554/508
f 541/588/541 542/589/542 510/556/510 509/555/509
f 542/589/542 543/590/543 511/557/511 510/556/510
f 543/590/543 544/591/544 512/558/512 511/557/511
f 544/591/544 545/592/545 513/559/513 512/558/512
f 545/592/545 514/593/514 482/560/482 513/559/513
f 546/594/546 547/595/547 515/562/515 514/561/514
f 547/595/547 548/596/548 516/563/516 515/562/515
f 548/596/548 549/597/549 517/564/517 516/563/516
f 549/597/549 550/598/550 518/565/518 517/564/517
f 550/598/550 551/599/551 519/566/519 518/565/518
f 551/599/551 552/600/552 520/567/520 519/566/519
f 552/600/552 553/601/553 521/568/521 520/567/520
f 553/601/553 554/602/554 522/569/522 521/568/521
f 554/602/554 555/603/555 523/570/523 522/569/522
f 555/603/555 556/604/556 524/571/524 523/570/523
f 556/604/556 557/605/557 525/572/525 524/571/524
f 557/605/557 558/606/558 526/573/526 525/572/525
f 558/606/558 559/607/559 527/574/527 526/573/526
f 559/607/559 560/608/560 528/575/528 527/574/527
f 560/608/560 561/609/561 529/576/529 528/575/528
f 561/609/561 562/610/562 530/577/530 529/576/529
f 562/610/562 563/611/563 531/578/531 530/577/530
f 563/611/563 564/612/564 532/579/532 531/578/531
f 564/612/564 565/613/565 533/580/533 532/579/532
f 565/613/565 566/614/566 534/581/534 533/580/533
f 566/614/566 567/615/567 535/582/535 534/581/534
f 567/615/567 568/616/568 536/583/536 535/582/535
f 568/616/568 569/617/569 537/584/537 536/583/536
f 569/617/569 570/618/570 538/585/538 537/584/537
f 570/618/570 571/619/571 539/586/539 538/585/538
f 571/619/571 572/620/572 540/587/540 539/586/539
f 572/620/572 573/621/573 541/588/541 540/587/540
f 573/621/573 574/622/574 542/589/542 541/588/541
f 574/622/574 575/623/575 543/590/543 542/589/542
f 575/623/575 576/624/576 544/591/544 543/590/543
f 576/624/576 577/625/577 545/592/545 544/591/544
f 577/625/577 546/626/546 514/593/514 545/592/545
f 578/627/578 579/628/579 547/595/547 546/594/546
f 579/628/579 580/629/580 548/596/548 547/595/547
f 580/629/580 581/630/581 549/597/549 548/596/548
f 581/630/581 582/631/582 550/598/550 549/597/549
f 582/631/582 583/632/583 551/599/551 550/598/550
f 583/632/583 584/633/584 552/600/552 551/599/551
f 584/633/584 585/634/585 553/601/553 552/600/552
f 585/634/585 586/635/586 554/602/554 553/601/553
f 586/635/586 587/636/587 555/603/555 554/602/554
f 587/636/587 588/637/588 556/604/556 555/603/555
f 588/637/588 589/638/589 557/605/557 556/604/556
f 589/638/589 590/639/590 558/606/558 557/605/557
f 590/639/590 591/640/591 559/607/559 558/606/558
f 591/640/591 592/641/592 560/608/560 559/607/559
f 592/641/592 593/642/593 561/609/561 560/608/560
f 593/642/593 594/643/594 562/610/562 561/609/561
f 594/643/594 595/644/595 563/611/563 562/610/562
f 595/644/595 596/645/596 564/612/564 563/611/563
f 596/645/596 597/646/597 565/613/565 564/612/564
f 597/646/597 598/647/598 566/614/566 565/613/565
f 598/647/598 599/648/599 567/615/567 566/614/566
f 599/648/599 600/649/600 568/616/568 567/615/567
f 600/649/600 601/650/601 569/617/569 568/616/568
f 601/650/601 602/651/602 570/618/570 569/617/569
f 602/651/602 603/652/603 571/619/571 570/618/570
f 603/652/603 604/653/604 572/620/572 571/619/571
f 604/653/604 605/654/605 573/621/573 572/620/572
f 605/654/605 606/655/606 574/622/574 573/621/573
f 606/655/606 607/656/607 575/623/575 574/622/574
f 607/656/607 608/657/608 576/624/576 575/623/575
f 608/657/608 609/658/609 577/625/577 576/624/576
f 609/658/609 578/659/578 546/626/546 577/625/577
f 610/660/610 579/628/579 578/627/578
f 610/661/610 580/629/580 579/628/579
f 610/662/610 581/630/581 580/629/580
f 610/663/610 582/631/582 581/630/581
f 610/664/610 583/632/583 582/631/582
f 610/665/610 584/633/584 583/632/583
f 610/666/610 585/634/585 584/633/584
f 610/667/610 586/635/586 585/634/585
f 610/668/610 587/636/587 586/635/586
f 610/669/610 588/637/588 587/636/587
f 610/670/610 589/638/589 588/637/588
f 610/671/610 590/639/590 589/638/589
f 610/672/610 591/640/591 590/639/590
f 610/673/610 592/641/592 591/640/591
f 610/674/610 593/642/593 592/641/592
f 610/675/610 594/643/594 593/642/593
f 610/676/610 595/644/595 594/643/594
f 610/677/610 596/645/596 595/644/595
f 610/678/610 597/646/597 596/645/596
f 610/679/610 598/647/598 597/646/597
f 610/680/610 599/648/599 598/647/598
f 610/681/610 600/649/600 599/648/599
f 610/682/610 601/650/601 600/649/600
f 610/683/610 602/651/602 601/650/601
f 610/684/610 603/652/603 602/651/602
f 610/685/610 604/653/604 603/652/603
f 610/686/610 605/654/605 604/653/604
f 610/687/610 606/655/606 605/654/605
f 610/688/610 607/656/607 606/655/606
f 610/689/610 608/657/608 607/656/607
f 610/690/610 609/658/609 608/657/608
f 610/691/610 578/659/578 609/658/609
g Rings
f 611/692/611 612/693/611 648/730/611 647/729/611
f 612/693/611 613/694/611 649/731/611 648/730/611
f 613/694/611 614/695/611 650/732/611 649/731/611
f 614/695/611 615/696/611 651/733/611 650/732/611
f 615/696/611 616/697/611 652/734/611 651/733/611
f 616/697/611 617/698/611 653/735/611 652/734/611
f 617/698/611 618/699/611 654/736/611 653/735/611
f 618/699/611 619/700/611 655/737/611 654/736/611
f 619/700/611 620/701/611 656/738/611 655/737/611
f 620/701/611 621/702/611 657/739/611 656/738/611
f 621/702/611 622/703/611 658/740/611 657/739/611
f 622/703/611 623/704/611 659/741/611 658/740/611
f 623/704/611 624/705/611 660/742/611 659/741/611
f 624/705/611 625/706/611 661/743/611 660/742/611
f 625/706/611 626/707/611 662/744/611 661/743/611
f 626/707/611 627/708/611 663/745/611 662/744/611
f 627/708/611 628/709/611 664/746/611 663/745/611
f 628/709/611 629/710/611 665/747/611 664/746/611
f 629/710/611 630/711/611 666/748/611 665/747/611
f 630/711/611 631/712/611 667/749/611 666/748/611
f 631/712/611 632/713/611 668/750/611 667/749/611
f 632/713/611 633/714/611 669/751/611 668/750/611
f 633/714/611 634/715/611 670/752/611 669/751/611
f 634/715/611 635/716/611 671/753/611 670/752/611
f 635/716/611 636/717/611 672/754/611 671/753/611
f 636/717/611 637/718/611 673/755/611 672/754/611
f 637/718/611 638/719/611 674/756/611 673/755/611
f 638/719/611 639/720/611 675/757/611 674/756/611
f 639/720/611 640/721/611 676/758/611 675/757/611
f 640/721/611 641/722/611 677/759/611 676/758/611
f 641/722/611 642/723/611 678/760/611 677/759/611
f 642/723/611 643/724/611 679/761/611 678/760/611
f 643/724/611 644/725/611 680/762/611 679/761/611
f 644/725/611 645/726/611 681/763/611 680/762/611
f 645/726/611 646/727/611 682/764/611 681/763/611
f 646/727/611 611/728/611 647/765/611 682/764/611
f 647/729/611 648/730/611 684/767/611 683/766/611
f 648/730/611 649/731/611 685/768/611 684/767/611
f 649/731/611 650/732/611 686/769/611 685/768/611
f 650/732/611 651/733/611 687/770/611 686/769/611
f 651/733/611 652/734/611 688/771/611 687/770/611
f 652/734/611 653/735/611 689/772/611 688/771/611
f 653/735/611 654/736/611 690/773/611 689/772/611
f 654/736/611 655/737/611 691/774/611 690/773/611
f 655/737/611 656/738/611 692/775/611 691/774/611
f 656/738/611 657/739/611 693/776/611 692/775/611
f 657/739/611 658/740/611 694/777/611 693/776/611
f 658/740/611 659/741/611 695/778/611 694/777/611
f 659/741/611 660/742/611 696/779/611 695/778/611
f 660/742/611 661/743/611 697/780/611 696/779/611
f 661/743/611 662/744/611 698/781/611 697/780/611
f 662/744/611 663/745/611 699/782/611 698/781/611
f 663/745/611 664/746/611 700/783/611 699/782/611
f 664/746/611 665/747/611 701/784/611 700/783/611
f 665/747/611 666/748/611 702/785/611 701/784/611
f 666/748/611 667/749/611 703/786/611 702/785/611
f 667/749/611 668/750/611 704/787/611 703/786/611
f 668/750/611 669/751/611 705/788/611 704/787/611
f 669/751/611 670/752/611 706/789/611 705/788/611
f 670/752/611 671/753/611 707/790/611 706/789/611
f 671/753/611 672/754/611 708/791/611 707/790/611
f 672/754/611 673/755/611 709/792/611 708/791/611
f 673/755/611 674/756/611 710/793/611 709/792/611
f 674/756/611 675/757/611 711/794/611 710/793/611
f 675/757/611 676/758/611 712/795/611 711/794/611
f 676/758/611 677/759/611 713/796/611 712/795/611
f 677/759/611 678/760/611 714/797/611 713/796/611
f 678/760/611 679/761/611 715/798/611 714/797/611
f 679/761/611 680/762/611 716/799/611 715/798/611
f 680/762/611 681/763/611 717/800/611 716/799/611
f 681/763/611 682/764/611 718/801/611 717/800/611
f 682/764/611 647/765/611 683/802/611 718/801/611
f 683/766/611 684/767/611 720/804/611 719/803/611
f 684/767/611 685/768/611 721/805/611 720/804/611
f 685/768/611 686/769/611 722/806/611 721/805/611
f 686/769/611 687/770/611 723/807/611 722/806/611
f 687/770/611 688/771/611 724/808/611 723/807/611
f 688/771/611 689/772/611 725/809/611 724/808/611
f 689/772/611 690/773/611 726/810/611 725/809/611
f 690/773/611 691/774/611 727/811/611 726/810/611
f 691/774/611 692/775/611 728/812/611 727/811/611
f 692/775/611 693/776/611 729/813/611 728/812/611
f 693/776/611 694/777/611 730/814/611 729/813/611
f 694/777/611 695/778/611 731/815/611 730/814/611
f 695/778/611 696/779/611 732/816/611 731/815/611
f 696/779/611 697/780/611 733/817/611 732/816/611
f 697/780/611 698/781/611 734/818/611 733/817/611
f 698/781/611 699/782/611 735/819/611 734/818/611
f 699/782/611 700/783/611 736/820/611 735/819/611
f 700/783/611 701/784/611 737/821/611 736/820/611
f 701/784/611 702/785/611 738/822/611 737/821/611
f 702/785/611 703/786/611 739/823/611 738/822/611
f 703/786/611 704/787/611 740/824/611 739/823/611
f 704/787/611 705/788/611 741/825/611 740/824/611
f 705/788/611 706/789/611 742/826/611 741/825/611
f 706/789/611 707/790/611 743/827/611 742/826/611
f 707/790/611 708/791/611 744/828/611 743/827/611
f 708/791/611 709/792/611 745/829/611 744/828/611
f 709/792/611 710/793/611 746/830/611 745/829/611
f 710/793/611 711/794/611 747/831/611 746/830/611
f 711/794/611 712/795/611 748/832/611 747/831/611
f 712/795/611 713/796/611 749/833/611 748/832/611
f 713/796/611 714/797/611 750/834/611 749/833/611
f 714/797/611 715/798/611 751/835/611 750/834/611
f 715/798/611 716/799/611 752/836/611 751/835/611
f 716/799/611 717/800/611 753/837/611 752/836/611
f 717/800/611 718/801/611 754/838/611 753/837/611
f 718/801/611 683/802/611 719/839/611 754/838/611
