# Cleaned and optimized OBJ model for Cosmo
# Vertices: 386, UVs: 460, Normals: 514, Faces: 416
v 0.000000 0.550000 0.000000
v 0.180000 0.500000 0.000000
v 0.176541 0.500000 0.035116
v 0.166298 0.500000 0.068883
v 0.149665 0.500000 0.100003
v 0.127279 0.500000 0.127279
v 0.100003 0.500000 0.149665
v 0.068883 0.500000 0.166298
v 0.035116 0.500000 0.176541
v 0.000000 0.500000 0.180000
v -0.035116 0.500000 0.176541
v -0.068883 0.500000 0.166298
v -0.100003 0.500000 0.149665
v -0.127279 0.500000 0.127279
v -0.149665 0.500000 0.100003
v -0.166298 0.500000 0.068883
v -0.176541 0.500000 0.035116
v -0.180000 0.500000 0.000000
v -0.176541 0.500000 -0.035116
v -0.166298 0.500000 -0.068883
v -0.149665 0.500000 -0.100003
v -0.127279 0.500000 -0.127279
v -0.100003 0.500000 -0.149665
v -0.068883 0.500000 -0.166298
v -0.035116 0.500000 -0.176541
v -0.000000 0.500000 -0.180000
v 0.035116 0.500000 -0.176541
v 0.068883 0.500000 -0.166298
v 0.100003 0.500000 -0.149665
v 0.127279 0.500000 -0.127279
v 0.149665 0.500000 -0.100003
v 0.166298 0.500000 -0.068883
v 0.176541 0.500000 -0.035116
v 0.350000 0.380000 0.000000
v 0.343275 0.380000 0.068282
v 0.323358 0.380000 0.133939
v 0.291014 0.380000 0.194450
v 0.247487 0.380000 0.247487
v 0.194450 0.380000 0.291014
v 0.133939 0.380000 0.323358
v 0.068282 0.380000 0.343275
v 0.000000 0.380000 0.350000
v -0.068282 0.380000 0.343275
v -0.133939 0.380000 0.323358
v -0.194450 0.380000 0.291014
v -0.247487 0.380000 0.247487
v -0.291014 0.380000 0.194450
v -0.323358 0.380000 0.133939
v -0.343275 0.380000 0.068282
v -0.350000 0.380000 0.000000
v -0.343275 0.380000 -0.068282
v -0.323358 0.380000 -0.133939
v -0.291014 0.380000 -0.194450
v -0.247487 0.380000 -0.247487
v -0.194450 0.380000 -0.291014
v -0.133939 0.380000 -0.323358
v -0.068282 0.380000 -0.343275
v -0.000000 0.380000 -0.350000
v 0.068282 0.380000 -0.343275
v 0.133939 0.380000 -0.323358
v 0.194450 0.380000 -0.291014
v 0.247487 0.380000 -0.247487
v 0.291014 0.380000 -0.194450
v 0.323358 0.380000 -0.133939
v 0.343275 0.380000 -0.068282
v 0.400000 0.260000 0.000000
v 0.392314 0.260000 0.078036
v 0.369552 0.260000 0.153073
v 0.332588 0.260000 0.222228
v 0.282843 0.260000 0.282843
v 0.222228 0.260000 0.332588
v 0.153073 0.260000 0.369552
v 0.078036 0.260000 0.392314
v 0.000000 0.260000 0.400000
v -0.078036 0.260000 0.392314
v -0.153073 0.260000 0.369552
v -0.222228 0.260000 0.332588
v -0.282843 0.260000 0.282843
v -0.332588 0.260000 0.222228
v -0.369552 0.260000 0.153073
v -0.392314 0.260000 0.078036
v -0.400000 0.260000 0.000000
v -0.392314 0.260000 -0.078036
v -0.369552 0.260000 -0.153073
v -0.332588 0.260000 -0.222228
v -0.282843 0.260000 -0.282843
v -0.222228 0.260000 -0.332588
v -0.153073 0.260000 -0.369552
v -0.078036 0.260000 -0.392314
v -0.000000 0.260000 -0.400000
v 0.078036 0.260000 -0.392314
v 0.153073 0.260000 -0.369552
v 0.222228 0.260000 -0.332588
v 0.282843 0.260000 -0.282843
v 0.332588 0.260000 -0.222228
v 0.369552 0.260000 -0.153073
v 0.392314 0.260000 -0.078036
v 0.420000 0.200000 0.000000
v 0.411930 0.200000 0.081938
v 0.388029 0.200000 0.160727
v 0.349217 0.200000 0.233339
v 0.296985 0.200000 0.296985
v 0.233339 0.200000 0.349217
v 0.160727 0.200000 0.388029
v 0.081938 0.200000 0.411930
v 0.000000 0.200000 0.420000
v -0.081938 0.200000 0.411930
v -0.160727 0.200000 0.388029
v -0.233339 0.200000 0.349217
v -0.296985 0.200000 0.296985
v -0.349217 0.200000 0.233339
v -0.388029 0.200000 0.160727
v -0.411930 0.200000 0.081938
v -0.420000 0.200000 0.000000
v -0.411930 0.200000 -0.081938
v -0.388029 0.200000 -0.160727
v -0.349217 0.200000 -0.233339
v -0.296985 0.200000 -0.296985
v -0.233339 0.200000 -0.349217
v -0.160727 0.200000 -0.388029
v -0.081938 0.200000 -0.411930
v -0.000000 0.200000 -0.420000
v 0.081938 0.200000 -0.411930
v 0.160727 0.200000 -0.388029
v 0.233339 0.200000 -0.349217
v 0.296985 0.200000 -0.296985
v 0.349217 0.200000 -0.233339
v 0.388029 0.200000 -0.160727
v 0.411930 0.200000 -0.081938
v 0.850000 0.120000 0.000000
v 0.833667 0.120000 0.165827
v 0.785298 0.120000 0.325281
v 0.706749 0.120000 0.472235
v 0.601041 0.120000 0.601041
v 0.472235 0.120000 0.706749
v 0.325281 0.120000 0.785298
v 0.165827 0.120000 0.833667
v 0.000000 0.120000 0.850000
v -0.165827 0.120000 0.833667
v -0.325281 0.120000 0.785298
v -0.472235 0.120000 0.706749
v -0.601041 0.120000 0.601041
v -0.706749 0.120000 0.472235
v -0.785298 0.120000 0.325281
v -0.833667 0.120000 0.165827
v -0.850000 0.120000 0.000000
v -0.833667 0.120000 -0.165827
v -0.785298 0.120000 -0.325281
v -0.706749 0.120000 -0.472235
v -0.601041 0.120000 -0.601041
v -0.472235 0.120000 -0.706749
v -0.325281 0.120000 -0.785298
v -0.165827 0.120000 -0.833667
v -0.000000 0.120000 -0.850000
v 0.165827 0.120000 -0.833667
v 0.325281 0.120000 -0.785298
v 0.472235 0.120000 -0.706749
v 0.601041 0.120000 -0.601041
v 0.706749 0.120000 -0.472235
v 0.785298 0.120000 -0.325281
v 0.833667 0.120000 -0.165827
v 1.100000 0.050000 0.000000
v 1.078864 0.050000 0.214599
v 1.016267 0.050000 0.420952
v 0.914617 0.050000 0.611127
v 0.777817 0.050000 0.777817
v 0.611127 0.050000 0.914617
v 0.420952 0.050000 1.016267
v 0.214599 0.050000 1.078864
v 0.000000 0.050000 1.100000
v -0.214599 0.050000 1.078864
v -0.420952 0.050000 1.016267
v -0.611127 0.050000 0.914617
v -0.777817 0.050000 0.777817
v -0.914617 0.050000 0.611127
v -1.016267 0.050000 0.420952
v -1.078864 0.050000 0.214599
v -1.100000 0.050000 0.000000
v -1.078864 0.050000 -0.214599
v -1.016267 0.050000 -0.420952
v -0.914617 0.050000 -0.611127
v -0.777817 0.050000 -0.777817
v -0.611127 0.050000 -0.914617
v -0.420952 0.050000 -1.016267
v -0.214599 0.050000 -1.078864
v -0.000000 0.050000 -1.100000
v 0.214599 0.050000 -1.078864
v 0.420952 0.050000 -1.016267
v 0.611127 0.050000 -0.914617
v 0.777817 0.050000 -0.777817
v 0.914617 0.050000 -0.611127
v 1.016267 0.050000 -0.420952
v 1.078864 0.050000 -0.214599
v 1.150000 0.000000 0.000000
v 1.127903 0.000000 0.224354
v 1.062461 0.000000 0.440086
v 0.956190 0.000000 0.638906
v 0.813173 0.000000 0.813173
v 0.638906 0.000000 0.956190
v 0.440086 0.000000 1.062461
v 0.224354 0.000000 1.127903
v 0.000000 0.000000 1.150000
v -0.224354 0.000000 1.127903
v -0.440086 0.000000 1.062461
v -0.638906 0.000000 0.956190
v -0.813173 0.000000 0.813173
v -0.956190 0.000000 0.638906
v -1.062461 0.000000 0.440086
v -1.127903 0.000000 0.224354
v -1.150000 0.000000 0.000000
v -1.127903 0.000000 -0.224354
v -1.062461 0.000000 -0.440086
v -0.956190 0.000000 -0.638906
v -0.813173 0.000000 -0.813173
v -0.638906 0.000000 -0.956190
v -0.440086 0.000000 -1.062461
v -0.224354 0.000000 -1.127903
v -0.000000 0.000000 -1.150000
v 0.224354 0.000000 -1.127903
v 0.440086 0.000000 -1.062461
v 0.638906 0.000000 -0.956190
v 0.813173 0.000000 -0.813173
v 0.956190 0.000000 -0.638906
v 1.062461 0.000000 -0.440086
v 1.127903 0.000000 -0.224354
v 1.100000 -0.050000 0.000000
v 1.078864 -0.050000 0.214599
v 1.016267 -0.050000 0.420952
v 0.914617 -0.050000 0.611127
v 0.777817 -0.050000 0.777817
v 0.611127 -0.050000 0.914617
v 0.420952 -0.050000 1.016267
v 0.214599 -0.050000 1.078864
v 0.000000 -0.050000 1.100000
v -0.214599 -0.050000 1.078864
v -0.420952 -0.050000 1.016267
v -0.611127 -0.050000 0.914617
v -0.777817 -0.050000 0.777817
v -0.914617 -0.050000 0.611127
v -1.016267 -0.050000 0.420952
v -1.078864 -0.050000 0.214599
v -1.100000 -0.050000 0.000000
v -1.078864 -0.050000 -0.214599
v -1.016267 -0.050000 -0.420952
v -0.914617 -0.050000 -0.611127
v -0.777817 -0.050000 -0.777817
v -0.611127 -0.050000 -0.914617
v -0.420952 -0.050000 -1.016267
v -0.214599 -0.050000 -1.078864
v -0.000000 -0.050000 -1.100000
v 0.214599 -0.050000 -1.078864
v 0.420952 -0.050000 -1.016267
v 0.611127 -0.050000 -0.914617
v 0.777817 -0.050000 -0.777817
v 0.914617 -0.050000 -0.611127
v 1.016267 -0.050000 -0.420952
v 1.078864 -0.050000 -0.214599
v 0.700000 -0.150000 0.000000
v 0.686550 -0.150000 0.136563
v 0.646716 -0.150000 0.267878
v 0.582029 -0.150000 0.388899
v 0.494975 -0.150000 0.494975
v 0.388899 -0.150000 0.582029
v 0.267878 -0.150000 0.646716
v 0.136563 -0.150000 0.686550
v 0.000000 -0.150000 0.700000
v -0.136563 -0.150000 0.686550
v -0.267878 -0.150000 0.646716
v -0.388899 -0.150000 0.582029
v -0.494975 -0.150000 0.494975
v -0.582029 -0.150000 0.388899
v -0.646716 -0.150000 0.267878
v -0.686550 -0.150000 0.136563
v -0.700000 -0.150000 0.000000
v -0.686550 -0.150000 -0.136563
v -0.646716 -0.150000 -0.267878
v -0.582029 -0.150000 -0.388899
v -0.494975 -0.150000 -0.494975
v -0.388899 -0.150000 -0.582029
v -0.267878 -0.150000 -0.646716
v -0.136563 -0.150000 -0.686550
v -0.000000 -0.150000 -0.700000
v 0.136563 -0.150000 -0.686550
v 0.267878 -0.150000 -0.646716
v 0.388899 -0.150000 -0.582029
v 0.494975 -0.150000 -0.494975
v 0.582029 -0.150000 -0.388899
v 0.646716 -0.150000 -0.267878
v 0.686550 -0.150000 -0.136563
v 0.450000 -0.220000 0.000000
v 0.441353 -0.220000 0.087791
v 0.415746 -0.220000 0.172208
v 0.374161 -0.220000 0.250007
v 0.318198 -0.220000 0.318198
v 0.250007 -0.220000 0.374161
v 0.172208 -0.220000 0.415746
v 0.087791 -0.220000 0.441353
v 0.000000 -0.220000 0.450000
v -0.087791 -0.220000 0.441353
v -0.172208 -0.220000 0.415746
v -0.250007 -0.220000 0.374161
v -0.318198 -0.220000 0.318198
v -0.374161 -0.220000 0.250007
v -0.415746 -0.220000 0.172208
v -0.441353 -0.220000 0.087791
v -0.450000 -0.220000 0.000000
v -0.441353 -0.220000 -0.087791
v -0.415746 -0.220000 -0.172208
v -0.374161 -0.220000 -0.250007
v -0.318198 -0.220000 -0.318198
v -0.250007 -0.220000 -0.374161
v -0.172208 -0.220000 -0.415746
v -0.087791 -0.220000 -0.441353
v -0.000000 -0.220000 -0.450000
v 0.087791 -0.220000 -0.441353
v 0.172208 -0.220000 -0.415746
v 0.250007 -0.220000 -0.374161
v 0.318198 -0.220000 -0.318198
v 0.374161 -0.220000 -0.250007
v 0.415746 -0.220000 -0.172208
v 0.441353 -0.220000 -0.087791
v 0.350000 -0.320000 0.000000
v 0.343275 -0.320000 0.068282
v 0.323358 -0.320000 0.133939
v 0.291014 -0.320000 0.194450
v 0.247487 -0.320000 0.247487
v 0.194450 -0.320000 0.291014
v 0.133939 -0.320000 0.323358
v 0.068282 -0.320000 0.343275
v 0.000000 -0.320000 0.350000
v -0.068282 -0.320000 0.343275
v -0.133939 -0.320000 0.323358
v -0.194450 -0.320000 0.291014
v -0.247487 -0.320000 0.247487
v -0.291014 -0.320000 0.194450
v -0.323358 -0.320000 0.133939
v -0.343275 -0.320000 0.068282
v -0.350000 -0.320000 0.000000
v -0.343275 -0.320000 -0.068282
v -0.323358 -0.320000 -0.133939
v -0.291014 -0.320000 -0.194450
v -0.247487 -0.320000 -0.247487
v -0.194450 -0.320000 -0.291014
v -0.133939 -0.320000 -0.323358
v -0.068282 -0.320000 -0.343275
v -0.000000 -0.320000 -0.350000
v 0.068282 -0.320000 -0.343275
v 0.133939 -0.320000 -0.323358
v 0.194450 -0.320000 -0.291014
v 0.247487 -0.320000 -0.247487
v 0.291014 -0.320000 -0.194450
v 0.323358 -0.320000 -0.133939
v 0.343275 -0.320000 -0.068282
v 0.150000 -0.350000 0.000000
v 0.147118 -0.350000 0.029264
v 0.138582 -0.350000 0.057403
v 0.124720 -0.350000 0.083336
v 0.106066 -0.350000 0.106066
v 0.083336 -0.350000 0.124720
v 0.057403 -0.350000 0.138582
v 0.029264 -0.350000 0.147118
v 0.000000 -0.350000 0.150000
v -0.029264 -0.350000 0.147118
v -0.057403 -0.350000 0.138582
v -0.083336 -0.350000 0.124720
v -0.106066 -0.350000 0.106066
v -0.124720 -0.350000 0.083336
v -0.138582 -0.350000 0.057403
v -0.147118 -0.350000 0.029264
v -0.150000 -0.350000 0.000000
v -0.147118 -0.350000 -0.029264
v -0.138582 -0.350000 -0.057403
v -0.124720 -0.350000 -0.083336
v -0.106066 -0.350000 -0.106066
v -0.083336 -0.350000 -0.124720
v -0.057403 -0.350000 -0.138582
v -0.029264 -0.350000 -0.147118
v -0.000000 -0.350000 -0.150000
v 0.029264 -0.350000 -0.147118
v 0.057403 -0.350000 -0.138582
v 0.083336 -0.350000 -0.124720
v 0.106066 -0.350000 -0.106066
v 0.124720 -0.350000 -0.083336
v 0.138582 -0.350000 -0.057403
v 0.147118 -0.350000 -0.029264
v 0.000000 -0.320000 0.000000
vt 0.015625 1.000000
vt 0.046875 1.000000
vt 0.078125 1.000000
vt 0.109375 1.000000
vt 0.140625 1.000000
vt 0.171875 1.000000
vt 0.203125 1.000000
vt 0.234375 1.000000
vt 0.265625 1.000000
vt 0.296875 1.000000
vt 0.328125 1.000000
vt 0.359375 1.000000
vt 0.390625 1.000000
vt 0.421875 1.000000
vt 0.453125 1.000000
vt 0.484375 1.000000
vt 0.515625 1.000000
vt 0.546875 1.000000
vt 0.578125 1.000000
vt 0.609375 1.000000
vt 0.640625 1.000000
vt 0.671875 1.000000
vt 0.703125 1.000000
vt 0.734375 1.000000
vt 0.765625 1.000000
vt 0.796875 1.000000
vt 0.828125 1.000000
vt 0.859375 1.000000
vt 0.890625 1.000000
vt 0.921875 1.000000
vt 0.953125 1.000000
vt 0.984375 1.000000
vt 0.000000 0.923077
vt 0.031250 0.923077
vt 0.062500 0.923077
vt 0.093750 0.923077
vt 0.125000 0.923077
vt 0.156250 0.923077
vt 0.187500 0.923077
vt 0.218750 0.923077
vt 0.250000 0.923077
vt 0.281250 0.923077
vt 0.312500 0.923077
vt 0.343750 0.923077
vt 0.375000 0.923077
vt 0.406250 0.923077
vt 0.437500 0.923077
vt 0.468750 0.923077
vt 0.500000 0.923077
vt 0.531250 0.923077
vt 0.562500 0.923077
vt 0.593750 0.923077
vt 0.625000 0.923077
vt 0.656250 0.923077
vt 0.687500 0.923077
vt 0.718750 0.923077
vt 0.750000 0.923077
vt 0.781250 0.923077
vt 0.812500 0.923077
vt 0.843750 0.923077
vt 0.875000 0.923077
vt 0.906250 0.923077
vt 0.937500 0.923077
vt 0.968750 0.923077
vt 1.000000 0.923077
vt 0.000000 0.846154
vt 0.031250 0.846154
vt 0.062500 0.846154
vt 0.093750 0.846154
vt 0.125000 0.846154
vt 0.156250 0.846154
vt 0.187500 0.846154
vt 0.218750 0.846154
vt 0.250000 0.846154
vt 0.281250 0.846154
vt 0.312500 0.846154
vt 0.343750 0.846154
vt 0.375000 0.846154
vt 0.406250 0.846154
vt 0.437500 0.846154
vt 0.468750 0.846154
vt 0.500000 0.846154
vt 0.531250 0.846154
vt 0.562500 0.846154
vt 0.593750 0.846154
vt 0.625000 0.846154
vt 0.656250 0.846154
vt 0.687500 0.846154
vt 0.718750 0.846154
vt 0.750000 0.846154
vt 0.781250 0.846154
vt 0.812500 0.846154
vt 0.843750 0.846154
vt 0.875000 0.846154
vt 0.906250 0.846154
vt 0.937500 0.846154
vt 0.968750 0.846154
vt 1.000000 0.846154
vt 0.000000 0.769231
vt 0.031250 0.769231
vt 0.062500 0.769231
vt 0.093750 0.769231
vt 0.125000 0.769231
vt 0.156250 0.769231
vt 0.187500 0.769231
vt 0.218750 0.769231
vt 0.250000 0.769231
vt 0.281250 0.769231
vt 0.312500 0.769231
vt 0.343750 0.769231
vt 0.375000 0.769231
vt 0.406250 0.769231
vt 0.437500 0.769231
vt 0.468750 0.769231
vt 0.500000 0.769231
vt 0.531250 0.769231
vt 0.562500 0.769231
vt 0.593750 0.769231
vt 0.625000 0.769231
vt 0.656250 0.769231
vt 0.687500 0.769231
vt 0.718750 0.769231
vt 0.750000 0.769231
vt 0.781250 0.769231
vt 0.812500 0.769231
vt 0.843750 0.769231
vt 0.875000 0.769231
vt 0.906250 0.769231
vt 0.937500 0.769231
vt 0.968750 0.769231
vt 1.000000 0.769231
vt 0.000000 0.692308
vt 0.031250 0.692308
vt 0.062500 0.692308
vt 0.093750 0.692308
vt 0.125000 0.692308
vt 0.156250 0.692308
vt 0.187500 0.692308
vt 0.218750 0.692308
vt 0.250000 0.692308
vt 0.281250 0.692308
vt 0.312500 0.692308
vt 0.343750 0.692308
vt 0.375000 0.692308
vt 0.406250 0.692308
vt 0.437500 0.692308
vt 0.468750 0.692308
vt 0.500000 0.692308
vt 0.531250 0.692308
vt 0.562500 0.692308
vt 0.593750 0.692308
vt 0.625000 0.692308
vt 0.656250 0.692308
vt 0.687500 0.692308
vt 0.718750 0.692308
vt 0.750000 0.692308
vt 0.781250 0.692308
vt 0.812500 0.692308
vt 0.843750 0.692308
vt 0.875000 0.692308
vt 0.906250 0.692308
vt 0.937500 0.692308
vt 0.968750 0.692308
vt 1.000000 0.692308
vt 0.000000 0.615385
vt 0.031250 0.615385
vt 0.062500 0.615385
vt 0.093750 0.615385
vt 0.125000 0.615385
vt 0.156250 0.615385
vt 0.187500 0.615385
vt 0.218750 0.615385
vt 0.250000 0.615385
vt 0.281250 0.615385
vt 0.312500 0.615385
vt 0.343750 0.615385
vt 0.375000 0.615385
vt 0.406250 0.615385
vt 0.437500 0.615385
vt 0.468750 0.615385
vt 0.500000 0.615385
vt 0.531250 0.615385
vt 0.562500 0.615385
vt 0.593750 0.615385
vt 0.625000 0.615385
vt 0.656250 0.615385
vt 0.687500 0.615385
vt 0.718750 0.615385
vt 0.750000 0.615385
vt 0.781250 0.615385
vt 0.812500 0.615385
vt 0.843750 0.615385
vt 0.875000 0.615385
vt 0.906250 0.615385
vt 0.937500 0.615385
vt 0.968750 0.615385
vt 1.000000 0.615385
vt 0.000000 0.538462
vt 0.031250 0.538462
vt 0.062500 0.538462
vt 0.093750 0.538462
vt 0.125000 0.538462
vt 0.156250 0.538462
vt 0.187500 0.538462
vt 0.218750 0.538462
vt 0.250000 0.538462
vt 0.281250 0.538462
vt 0.312500 0.538462
vt 0.343750 0.538462
vt 0.375000 0.538462
vt 0.406250 0.538462
vt 0.437500 0.538462
vt 0.468750 0.538462
vt 0.500000 0.538462
vt 0.531250 0.538462
vt 0.562500 0.538462
vt 0.593750 0.538462
vt 0.625000 0.538462
vt 0.656250 0.538462
vt 0.687500 0.538462
vt 0.718750 0.538462
vt 0.750000 0.538462
vt 0.781250 0.538462
vt 0.812500 0.538462
vt 0.843750 0.538462
vt 0.875000 0.538462
vt 0.906250 0.538462
vt 0.937500 0.538462
vt 0.968750 0.538462
vt 1.000000 0.538462
vt 0.000000 0.461538
vt 0.031250 0.461538
vt 0.062500 0.461538
vt 0.093750 0.461538
vt 0.125000 0.461538
vt 0.156250 0.461538
vt 0.187500 0.461538
vt 0.218750 0.461538
vt 0.250000 0.461538
vt 0.281250 0.461538
vt 0.312500 0.461538
vt 0.343750 0.461538
vt 0.375000 0.461538
vt 0.406250 0.461538
vt 0.437500 0.461538
vt 0.468750 0.461538
vt 0.500000 0.461538
vt 0.531250 0.461538
vt 0.562500 0.461538
vt 0.593750 0.461538
vt 0.625000 0.461538
vt 0.656250 0.461538
vt 0.687500 0.461538
vt 0.718750 0.461538
vt 0.750000 0.461538
vt 0.781250 0.461538
vt 0.812500 0.461538
vt 0.843750 0.461538
vt 0.875000 0.461538
vt 0.906250 0.461538
vt 0.937500 0.461538
vt 0.968750 0.461538
vt 1.000000 0.461538
vt 0.000000 0.384615
vt 0.031250 0.384615
vt 0.062500 0.384615
vt 0.093750 0.384615
vt 0.125000 0.384615
vt 0.156250 0.384615
vt 0.187500 0.384615
vt 0.218750 0.384615
vt 0.250000 0.384615
vt 0.281250 0.384615
vt 0.312500 0.384615
vt 0.343750 0.384615
vt 0.375000 0.384615
vt 0.406250 0.384615
vt 0.437500 0.384615
vt 0.468750 0.384615
vt 0.500000 0.384615
vt 0.531250 0.384615
vt 0.562500 0.384615
vt 0.593750 0.384615
vt 0.625000 0.384615
vt 0.656250 0.384615
vt 0.687500 0.384615
vt 0.718750 0.384615
vt 0.750000 0.384615
vt 0.781250 0.384615
vt 0.812500 0.384615
vt 0.843750 0.384615
vt 0.875000 0.384615
vt 0.906250 0.384615
vt 0.937500 0.384615
vt 0.968750 0.384615
vt 1.000000 0.384615
vt 0.000000 0.307692
vt 0.031250 0.307692
vt 0.062500 0.307692
vt 0.093750 0.307692
vt 0.125000 0.307692
vt 0.156250 0.307692
vt 0.187500 0.307692
vt 0.218750 0.307692
vt 0.250000 0.307692
vt 0.281250 0.307692
vt 0.312500 0.307692
vt 0.343750 0.307692
vt 0.375000 0.307692
vt 0.406250 0.307692
vt 0.437500 0.307692
vt 0.468750 0.307692
vt 0.500000 0.307692
vt 0.531250 0.307692
vt 0.562500 0.307692
vt 0.593750 0.307692
vt 0.625000 0.307692
vt 0.656250 0.307692
vt 0.687500 0.307692
vt 0.718750 0.307692
vt 0.750000 0.307692
vt 0.781250 0.307692
vt 0.812500 0.307692
vt 0.843750 0.307692
vt 0.875000 0.307692
vt 0.906250 0.307692
vt 0.937500 0.307692
vt 0.968750 0.307692
vt 1.000000 0.307692
vt 0.000000 0.230769
vt 0.031250 0.230769
vt 0.062500 0.230769
vt 0.093750 0.230769
vt 0.125000 0.230769
vt 0.156250 0.230769
vt 0.187500 0.230769
vt 0.218750 0.230769
vt 0.250000 0.230769
vt 0.281250 0.230769
vt 0.312500 0.230769
vt 0.343750 0.230769
vt 0.375000 0.230769
vt 0.406250 0.230769
vt 0.437500 0.230769
vt 0.468750 0.230769
vt 0.500000 0.230769
vt 0.531250 0.230769
vt 0.562500 0.230769
vt 0.593750 0.230769
vt 0.625000 0.230769
vt 0.656250 0.230769
vt 0.687500 0.230769
vt 0.718750 0.230769
vt 0.750000 0.230769
vt 0.781250 0.230769
vt 0.812500 0.230769
vt 0.843750 0.230769
vt 0.875000 0.230769
vt 0.906250 0.230769
vt 0.937500 0.230769
vt 0.968750 0.230769
vt 1.000000 0.230769
vt 0.000000 0.153846
vt 0.031250 0.153846
vt 0.062500 0.153846
vt 0.093750 0.153846
vt 0.125000 0.153846
vt 0.156250 0.153846
vt 0.187500 0.153846
vt 0.218750 0.153846
vt 0.250000 0.153846
vt 0.281250 0.153846
vt 0.312500 0.153846
vt 0.343750 0.153846
vt 0.375000 0.153846
vt 0.406250 0.153846
vt 0.437500 0.153846
vt 0.468750 0.153846
vt 0.500000 0.153846
vt 0.531250 0.153846
vt 0.562500 0.153846
vt 0.593750 0.153846
vt 0.625000 0.153846
vt 0.656250 0.153846
vt 0.687500 0.153846
vt 0.718750 0.153846
vt 0.750000 0.153846
vt 0.781250 0.153846
vt 0.812500 0.153846
vt 0.843750 0.153846
vt 0.875000 0.153846
vt 0.906250 0.153846
vt 0.937500 0.153846
vt 0.968750 0.153846
vt 1.000000 0.153846
vt 0.000000 0.076923
vt 0.031250 0.076923
vt 0.062500 0.076923
vt 0.093750 0.076923
vt 0.125000 0.076923
vt 0.156250 0.076923
vt 0.187500 0.076923
vt 0.218750 0.076923
vt 0.250000 0.076923
vt 0.281250 0.076923
vt 0.312500 0.076923
vt 0.343750 0.076923
vt 0.375000 0.076923
vt 0.406250 0.076923
vt 0.437500 0.076923
vt 0.468750 0.076923
vt 0.500000 0.076923
vt 0.531250 0.076923
vt 0.562500 0.076923
vt 0.593750 0.076923
vt 0.625000 0.076923
vt 0.656250 0.076923
vt 0.687500 0.076923
vt 0.718750 0.076923
vt 0.750000 0.076923
vt 0.781250 0.076923
vt 0.812500 0.076923
vt 0.843750 0.076923
vt 0.875000 0.076923
vt 0.906250 0.076923
vt 0.937500 0.076923
vt 0.968750 0.076923
vt 1.000000 0.076923
vt 0.015625 0.000000
vt 0.046875 0.000000
vt 0.078125 0.000000
vt 0.109375 0.000000
vt 0.140625 0.000000
vt 0.171875 0.000000
vt 0.203125 0.000000
vt 0.234375 0.000000
vt 0.265625 0.000000
vt 0.296875 0.000000
vt 0.328125 0.000000
vt 0.359375 0.000000
vt 0.390625 0.000000
vt 0.421875 0.000000
vt 0.453125 0.000000
vt 0.484375 0.000000
vt 0.515625 0.000000
vt 0.546875 0.000000
vt 0.578125 0.000000
vt 0.609375 0.000000
vt 0.640625 0.000000
vt 0.671875 0.000000
vt 0.703125 0.000000
vt 0.734375 0.000000
vt 0.765625 0.000000
vt 0.796875 0.000000
vt 0.828125 0.000000
vt 0.859375 0.000000
vt 0.890625 0.000000
vt 0.921875 0.000000
vt 0.953125 0.000000
vt 0.984375 0.000000
vn 0.000000 1.000000 0.000000
vn 0.428476 0.903553 0.000000
vn 0.420242 0.903553 0.083591
vn 0.395860 0.903553 0.163970
vn 0.356264 0.903553 0.238048
vn 0.302978 0.903553 0.302978
vn 0.238048 0.903553 0.356264
vn 0.163970 0.903553 0.395860
vn 0.083591 0.903553 0.420242
vn 0.000000 0.903553 0.428476
vn -0.083591 0.903553 0.420242
vn -0.163970 0.903553 0.395860
vn -0.238048 0.903553 0.356264
vn -0.302978 0.903553 0.302978
vn -0.356264 0.903553 0.238048
vn -0.395860 0.903553 0.163970
vn -0.420242 0.903553 0.083591
vn -0.428476 0.903553 0.000000
vn -0.420242 0.903553 -0.083591
vn -0.395860 0.903553 -0.163970
vn -0.356264 0.903553 -0.238048
vn -0.302978 0.903553 -0.302978
vn -0.238048 0.903553 -0.356264
vn -0.163970 0.903553 -0.395860
vn -0.083591 0.903553 -0.420242
vn -0.000000 0.903553 -0.428476
vn 0.083591 0.903553 -0.420242
vn 0.163970 0.903553 -0.395860
vn 0.238048 0.903553 -0.356264
vn 0.302978 0.903553 -0.302978
vn 0.356264 0.903553 -0.238048
vn 0.395860 0.903553 -0.163970
vn 0.420242 0.903553 -0.083591
vn 0.576683 0.816968 0.000000
vn 0.565602 0.816968 0.112505
vn 0.532786 0.816968 0.220687
vn 0.479495 0.816968 0.320388
vn 0.407777 0.816968 0.407777
vn 0.320388 0.816968 0.479495
vn 0.220687 0.816968 0.532786
vn 0.112505 0.816968 0.565602
vn 0.000000 0.816968 0.576683
vn -0.112505 0.816968 0.565602
vn -0.220687 0.816968 0.532786
vn -0.320388 0.816968 0.479495
vn -0.407777 0.816968 0.407777
vn -0.479495 0.816968 0.320388
vn -0.532786 0.816968 0.220687
vn -0.565602 0.816968 0.112505
vn -0.576683 0.816968 0.000000
vn -0.565602 0.816968 -0.112505
vn -0.532786 0.816968 -0.220687
vn -0.479495 0.816968 -0.320388
vn -0.407777 0.816968 -0.407777
vn -0.320388 0.816968 -0.479495
vn -0.220687 0.816968 -0.532786
vn -0.112505 0.816968 -0.565602
vn -0.000000 0.816968 -0.576683
vn 0.112505 0.816968 -0.565602
vn 0.220687 0.816968 -0.532786
vn 0.320388 0.816968 -0.479495
vn 0.407777 0.816968 -0.407777
vn 0.479495 0.816968 -0.320388
vn 0.532786 0.816968 -0.220687
vn 0.565602 0.816968 -0.112505
vn 0.923077 0.384615 0.000000
vn 0.905340 0.384615 0.180083
vn 0.852812 0.384615 0.353246
vn 0.767510 0.384615 0.512834
vn 0.652714 0.384615 0.652714
vn 0.512834 0.384615 0.767510
vn 0.353246 0.384615 0.852812
vn 0.180083 0.384615 0.905340
vn 0.000000 0.384615 0.923077
vn -0.180083 0.384615 0.905340
vn -0.353246 0.384615 0.852812
vn -0.512834 0.384615 0.767510
vn -0.652714 0.384615 0.652714
vn -0.767510 0.384615 0.512834
vn -0.852812 0.384615 0.353246
vn -0.905340 0.384615 0.180083
vn -0.923077 0.384615 0.000000
vn -0.905340 0.384615 -0.180083
vn -0.852812 0.384615 -0.353246
vn -0.767510 0.384615 -0.512834
vn -0.652714 0.384615 -0.652714
vn -0.512834 0.384615 -0.767510
vn -0.353246 0.384615 -0.852812
vn -0.180083 0.384615 -0.905340
vn -0.000000 0.384615 -0.923077
vn 0.180083 0.384615 -0.905340
vn 0.353246 0.384615 -0.852812
vn 0.512834 0.384615 -0.767510
vn 0.652714 0.384615 -0.652714
vn 0.767510 0.384615 -0.512834
vn 0.852812 0.384615 -0.353246
vn 0.905340 0.384615 -0.180083
vn 0.936505 0.350655 0.000000
vn 0.918510 0.350655 0.182703
vn 0.865217 0.350655 0.358385
vn 0.778675 0.350655 0.520294
vn 0.662209 0.350655 0.662209
vn 0.520294 0.350655 0.778675
vn 0.358385 0.350655 0.865217
vn 0.182703 0.350655 0.918510
vn 0.000000 0.350655 0.936505
vn -0.182703 0.350655 0.918510
vn -0.358385 0.350655 0.865217
vn -0.520294 0.350655 0.778675
vn -0.662209 0.350655 0.662209
vn -0.778675 0.350655 0.520294
vn -0.865217 0.350655 0.358385
vn -0.918510 0.350655 0.182703
vn -0.936505 0.350655 0.000000
vn -0.918510 0.350655 -0.182703
vn -0.865217 0.350655 -0.358385
vn -0.778675 0.350655 -0.520294
vn -0.662209 0.350655 -0.662209
vn -0.520294 0.350655 -0.778675
vn -0.358385 0.350655 -0.865217
vn -0.182703 0.350655 -0.918510
vn -0.000000 0.350655 -0.936505
vn 0.182703 0.350655 -0.918510
vn 0.358385 0.350655 -0.865217
vn 0.520294 0.350655 -0.778675
vn 0.662209 0.350655 -0.662209
vn 0.778675 0.350655 -0.520294
vn 0.865217 0.350655 -0.358385
vn 0.918510 0.350655 -0.182703
vn 0.948683 0.316228 0.000000
vn 0.930455 0.316228 0.185079
vn 0.876469 0.316228 0.363045
vn 0.788801 0.316228 0.527060
vn 0.670820 0.316228 0.670820
vn 0.527060 0.316228 0.788801
vn 0.363045 0.316228 0.876469
vn 0.185079 0.316228 0.930455
vn 0.000000 0.316228 0.948683
vn -0.185079 0.316228 0.930455
vn -0.363045 0.316228 0.876469
vn -0.527060 0.316228 0.788801
vn -0.670820 0.316228 0.670820
vn -0.788801 0.316228 0.527060
vn -0.876469 0.316228 0.363045
vn -0.930455 0.316228 0.185079
vn -0.948683 0.316228 0.000000
vn -0.930455 0.316228 -0.185079
vn -0.876469 0.316228 -0.363045
vn -0.788801 0.316228 -0.527060
vn -0.670820 0.316228 -0.670820
vn -0.527060 0.316228 -0.788801
vn -0.363045 0.316228 -0.876469
vn -0.185079 0.316228 -0.930455
vn -0.000000 0.316228 -0.948683
vn 0.185079 0.316228 -0.930455
vn 0.363045 0.316228 -0.876469
vn 0.527060 0.316228 -0.788801
vn 0.670820 0.316228 -0.670820
vn 0.788801 0.316228 -0.527060
vn 0.876469 0.316228 -0.363045
vn 0.930455 0.316228 -0.185079
vn 0.182908 0.983130 0.000000
vn 0.179393 0.983130 0.035684
vn 0.168985 0.983130 0.069996
vn 0.152082 0.983130 0.101618
vn 0.129335 0.983130 0.129335
vn 0.101618 0.983130 0.152082
vn 0.069996 0.983130 0.168985
vn 0.035684 0.983130 0.179393
vn 0.000000 0.983130 0.182908
vn -0.035684 0.983130 0.179393
vn -0.069996 0.983130 0.168985
vn -0.101618 0.983130 0.152082
vn -0.129335 0.983130 0.129335
vn -0.152082 0.983130 0.101618
vn -0.168985 0.983130 0.069996
vn -0.179393 0.983130 0.035684
vn -0.182908 0.983130 0.000000
vn -0.179393 0.983130 -0.035684
vn -0.168985 0.983130 -0.069996
vn -0.152082 0.983130 -0.101618
vn -0.129335 0.983130 -0.129335
vn -0.101618 0.983130 -0.152082
vn -0.069996 0.983130 -0.168985
vn -0.035684 0.983130 -0.179393
vn -0.000000 0.983130 -0.182908
vn 0.035684 0.983130 -0.179393
vn 0.069996 0.983130 -0.168985
vn 0.101618 0.983130 -0.152082
vn 0.129335 0.983130 -0.129335
vn 0.152082 0.983130 -0.101618
vn 0.168985 0.983130 -0.069996
vn 0.179393 0.983130 -0.035684
vn 0.226493 0.974013 0.000000
vn 0.222141 0.974013 0.044187
vn 0.209253 0.974013 0.086675
vn 0.188322 0.974013 0.125833
vn 0.160155 0.974013 0.160155
vn 0.125833 0.974013 0.188322
vn 0.086675 0.974013 0.209253
vn 0.044187 0.974013 0.222141
vn 0.000000 0.974013 0.226493
vn -0.044187 0.974013 0.222141
vn -0.086675 0.974013 0.209253
vn -0.125833 0.974013 0.188322
vn -0.160155 0.974013 0.160155
vn -0.188322 0.974013 0.125833
vn -0.209253 0.974013 0.086675
vn -0.222141 0.974013 0.044187
vn -0.226493 0.974013 0.000000
vn -0.222141 0.974013 -0.044187
vn -0.209253 0.974013 -0.086675
vn -0.188322 0.974013 -0.125833
vn -0.160155 0.974013 -0.160155
vn -0.125833 0.974013 -0.188322
vn -0.086675 0.974013 -0.209253
vn -0.044187 0.974013 -0.222141
vn -0.000000 0.974013 -0.226493
vn 0.044187 0.974013 -0.222141
vn 0.086675 0.974013 -0.209253
vn 0.125833 0.974013 -0.188322
vn 0.160155 0.974013 -0.160155
vn 0.188322 0.974013 -0.125833
vn 0.209253 0.974013 -0.086675
vn 0.222141 0.974013 -0.044187
vn 0.504846 0.863209 0.000000
vn 0.495145 0.863209 0.098491
vn 0.466417 0.863209 0.193196
vn 0.419764 0.863209 0.280477
vn 0.356980 0.863209 0.356980
vn 0.280477 0.863209 0.419764
vn 0.193196 0.863209 0.466417
vn 0.098491 0.863209 0.495145
vn 0.000000 0.863209 0.504846
vn -0.098491 0.863209 0.495145
vn -0.193196 0.863209 0.466417
vn -0.280477 0.863209 0.419764
vn -0.356980 0.863209 0.356980
vn -0.419764 0.863209 0.280477
vn -0.466417 0.863209 0.193196
vn -0.495145 0.863209 0.098491
vn -0.504846 0.863209 0.000000
vn -0.495145 0.863209 -0.098491
vn -0.466417 0.863209 -0.193196
vn -0.419764 0.863209 -0.280477
vn -0.356980 0.863209 -0.356980
vn -0.280477 0.863209 -0.419764
vn -0.193196 0.863209 -0.466417
vn -0.098491 0.863209 -0.495145
vn -0.000000 0.863209 -0.504846
vn 0.098491 0.863209 -0.495145
vn 0.193196 0.863209 -0.466417
vn 0.280477 0.863209 -0.419764
vn 0.356980 0.863209 -0.356980
vn 0.419764 0.863209 -0.280477
vn 0.466417 0.863209 -0.193196
vn 0.495145 0.863209 -0.098491
vn 0.707107 0.707107 0.000000
vn 0.693520 0.707107 0.137950
vn 0.653281 0.707107 0.270598
vn 0.587938 0.707107 0.392847
vn 0.500000 0.707107 0.500000
vn 0.392847 0.707107 0.587938
vn 0.270598 0.707107 0.653281
vn 0.137950 0.707107 0.693520
vn 0.000000 0.707107 0.707107
vn -0.137950 0.707107 0.693520
vn -0.270598 0.707107 0.653281
vn -0.392847 0.707107 0.587938
vn -0.500000 0.707107 0.500000
vn -0.587938 0.707107 0.392847
vn -0.653281 0.707107 0.270598
vn -0.693520 0.707107 0.137950
vn -0.707107 0.707107 0.000000
vn -0.693520 0.707107 -0.137950
vn -0.653281 0.707107 -0.270598
vn -0.587938 0.707107 -0.392847
vn -0.500000 0.707107 -0.500000
vn -0.392847 0.707107 -0.587938
vn -0.270598 0.707107 -0.653281
vn -0.137950 0.707107 -0.693520
vn -0.000000 0.707107 -0.707107
vn 0.137950 0.707107 -0.693520
vn 0.270598 0.707107 -0.653281
vn 0.392847 0.707107 -0.587938
vn 0.500000 0.707107 -0.500000
vn 0.587938 0.707107 -0.392847
vn 0.653281 0.707107 -0.270598
vn 0.693520 0.707107 -0.137950
vn 0.707107 -0.707107 0.000000
vn 0.693520 -0.707107 0.137950
vn 0.653281 -0.707107 0.270598
vn 0.587938 -0.707107 0.392847
vn 0.500000 -0.707107 0.500000
vn 0.392847 -0.707107 0.587938
vn 0.270598 -0.707107 0.653281
vn 0.137950 -0.707107 0.693520
vn 0.000000 -0.707107 0.707107
vn -0.137950 -0.707107 0.693520
vn -0.270598 -0.707107 0.653281
vn -0.392847 -0.707107 0.587938
vn -0.500000 -0.707107 0.500000
vn -0.587938 -0.707107 0.392847
vn -0.653281 -0.707107 0.270598
vn -0.693520 -0.707107 0.137950
vn -0.707107 -0.707107 0.000000
vn -0.693520 -0.707107 -0.137950
vn -0.653281 -0.707107 -0.270598
vn -0.587938 -0.707107 -0.392847
vn -0.500000 -0.707107 -0.500000
vn -0.392847 -0.707107 -0.587938
vn -0.270598 -0.707107 -0.653281
vn -0.137950 -0.707107 -0.693520
vn -0.000000 -0.707107 -0.707107
vn 0.137950 -0.707107 -0.693520
vn 0.270598 -0.707107 -0.653281
vn 0.392847 -0.707107 -0.587938
vn 0.500000 -0.707107 -0.500000
vn 0.587938 -0.707107 -0.392847
vn 0.653281 -0.707107 -0.270598
vn 0.693520 -0.707107 -0.137950
vn 0.492699 -0.870200 0.000000
vn 0.483232 -0.870200 0.096121
vn 0.455194 -0.870200 0.188548
vn 0.409664 -0.870200 0.273729
vn 0.348391 -0.870200 0.348391
vn 0.273729 -0.870200 0.409664
vn 0.188548 -0.870200 0.455194
vn 0.096121 -0.870200 0.483232
vn 0.000000 -0.870200 0.492699
vn -0.096121 -0.870200 0.483232
vn -0.188548 -0.870200 0.455194
vn -0.273729 -0.870200 0.409664
vn -0.348391 -0.870200 0.348391
vn -0.409664 -0.870200 0.273729
vn -0.455194 -0.870200 0.188548
vn -0.483232 -0.870200 0.096121
vn -0.492699 -0.870200 0.000000
vn -0.483232 -0.870200 -0.096121
vn -0.455194 -0.870200 -0.188548
vn -0.409664 -0.870200 -0.273729
vn -0.348391 -0.870200 -0.348391
vn -0.273729 -0.870200 -0.409664
vn -0.188548 -0.870200 -0.455194
vn -0.096121 -0.870200 -0.483232
vn -0.000000 -0.870200 -0.492699
vn 0.096121 -0.870200 -0.483232
vn 0.188548 -0.870200 -0.455194
vn 0.273729 -0.870200 -0.409664
vn 0.348391 -0.870200 -0.348391
vn 0.409664 -0.870200 -0.273729
vn 0.455194 -0.870200 -0.188548
vn 0.483232 -0.870200 -0.096121
vn 0.256108 -0.966648 0.000000
vn 0.251187 -0.966648 0.049964
vn 0.236613 -0.966648 0.098008
vn 0.212946 -0.966648 0.142286
vn 0.181096 -0.966648 0.181096
vn 0.142286 -0.966648 0.212946
vn 0.098008 -0.966648 0.236613
vn 0.049964 -0.966648 0.251187
vn 0.000000 -0.966648 0.256108
vn -0.049964 -0.966648 0.251187
vn -0.098008 -0.966648 0.236613
vn -0.142286 -0.966648 0.212946
vn -0.181096 -0.966648 0.181096
vn -0.212946 -0.966648 0.142286
vn -0.236613 -0.966648 0.098008
vn -0.251187 -0.966648 0.049964
vn -0.256108 -0.966648 0.000000
vn -0.251187 -0.966648 -0.049964
vn -0.236613 -0.966648 -0.098008
vn -0.212946 -0.966648 -0.142286
vn -0.181096 -0.966648 -0.181096
vn -0.142286 -0.966648 -0.212946
vn -0.098008 -0.966648 -0.236613
vn -0.049964 -0.966648 -0.251187
vn -0.000000 -0.966648 -0.256108
vn 0.049964 -0.966648 -0.251187
vn 0.098008 -0.966648 -0.236613
vn 0.142286 -0.966648 -0.212946
vn 0.181096 -0.966648 -0.181096
vn 0.212946 -0.966648 -0.142286
vn 0.236613 -0.966648 -0.098008
vn 0.251187 -0.966648 -0.049964
vn 0.504846 -0.863209 0.000000
vn 0.495145 -0.863209 0.098491
vn 0.466417 -0.863209 0.193196
vn 0.419764 -0.863209 0.280477
vn 0.356980 -0.863209 0.356980
vn 0.280477 -0.863209 0.419764
vn 0.193196 -0.863209 0.466417
vn 0.098491 -0.863209 0.495145
vn 0.000000 -0.863209 0.504846
vn -0.098491 -0.863209 0.495145
vn -0.193196 -0.863209 0.466417
vn -0.280477 -0.863209 0.419764
vn -0.356980 -0.863209 0.356980
vn -0.419764 -0.863209 0.280477
vn -0.466417 -0.863209 0.193196
vn -0.495145 -0.863209 0.098491
vn -0.504846 -0.863209 0.000000
vn -0.495145 -0.863209 -0.098491
vn -0.466417 -0.863209 -0.193196
vn -0.419764 -0.863209 -0.280477
vn -0.356980 -0.863209 -0.356980
vn -0.280477 -0.863209 -0.419764
vn -0.193196 -0.863209 -0.466417
vn -0.098491 -0.863209 -0.495145
vn -0.000000 -0.863209 -0.504846
vn 0.098491 -0.863209 -0.495145
vn 0.193196 -0.863209 -0.466417
vn 0.280477 -0.863209 -0.419764
vn 0.356980 -0.863209 -0.356980
vn 0.419764 -0.863209 -0.280477
vn 0.466417 -0.863209 -0.193196
vn 0.495145 -0.863209 -0.098491
vn 0.707107 -0.707107 0.000000
vn 0.693520 -0.707107 0.137950
vn 0.653281 -0.707107 0.270598
vn 0.587938 -0.707107 0.392847
vn 0.500000 -0.707107 0.500000
vn 0.392847 -0.707107 0.587938
vn 0.270598 -0.707107 0.653281
vn 0.137950 -0.707107 0.693520
vn 0.000000 -0.707107 0.707107
vn -0.137950 -0.707107 0.693520
vn -0.270598 -0.707107 0.653281
vn -0.392847 -0.707107 0.587938
vn -0.500000 -0.707107 0.500000
vn -0.587938 -0.707107 0.392847
vn -0.653281 -0.707107 0.270598
vn -0.693520 -0.707107 0.137950
vn -0.707107 -0.707107 0.000000
vn -0.693520 -0.707107 -0.137950
vn -0.653281 -0.707107 -0.270598
vn -0.587938 -0.707107 -0.392847
vn -0.500000 -0.707107 -0.500000
vn -0.392847 -0.707107 -0.587938
vn -0.270598 -0.707107 -0.653281
vn -0.137950 -0.707107 -0.693520
vn -0.000000 -0.707107 -0.707107
vn 0.137950 -0.707107 -0.693520
vn 0.270598 -0.707107 -0.653281
vn 0.392847 -0.707107 -0.587938
vn 0.500000 -0.707107 -0.500000
vn 0.587938 -0.707107 -0.392847
vn 0.653281 -0.707107 -0.270598
vn 0.693520 -0.707107 -0.137950
vn 0.148340 -0.988936 0.000000
vn 0.145490 -0.988936 0.028940
vn 0.137049 -0.988936 0.056767
vn 0.123341 -0.988936 0.082414
vn 0.104893 -0.988936 0.104893
vn 0.082414 -0.988936 0.123341
vn 0.056767 -0.988936 0.137049
vn 0.028940 -0.988936 0.145490
vn 0.000000 -0.988936 0.148340
vn -0.028940 -0.988936 0.145490
vn -0.056767 -0.988936 0.137049
vn -0.082414 -0.988936 0.123341
vn -0.104893 -0.988936 0.104893
vn -0.123341 -0.988936 0.082414
vn -0.137049 -0.988936 0.056767
vn -0.145490 -0.988936 0.028940
vn -0.148340 -0.988936 0.000000
vn -0.145490 -0.988936 -0.028940
vn -0.137049 -0.988936 -0.056767
vn -0.123341 -0.988936 -0.082414
vn -0.104893 -0.988936 -0.104893
vn -0.082414 -0.988936 -0.123341
vn -0.056767 -0.988936 -0.137049
vn -0.028940 -0.988936 -0.145490
vn -0.000000 -0.988936 -0.148340
vn 0.028940 -0.988936 -0.145490
vn 0.056767 -0.988936 -0.137049
vn 0.082414 -0.988936 -0.123341
vn 0.104893 -0.988936 -0.104893
vn 0.123341 -0.988936 -0.082414
vn 0.137049 -0.988936 -0.056767
vn 0.145490 -0.988936 -0.028940
vn -0.024250 -0.999706 -0.000000
vn -0.023784 -0.999706 -0.004731
vn -0.022404 -0.999706 -0.009280
vn -0.020163 -0.999706 -0.013473
vn -0.017148 -0.999706 -0.017148
vn -0.013473 -0.999706 -0.020163
vn -0.009280 -0.999706 -0.022404
vn -0.004731 -0.999706 -0.023784
vn -0.000000 -0.999706 -0.024250
vn 0.004731 -0.999706 -0.023784
vn 0.009280 -0.999706 -0.022404
vn 0.013473 -0.999706 -0.020163
vn 0.017148 -0.999706 -0.017148
vn 0.020163 -0.999706 -0.013473
vn 0.022404 -0.999706 -0.009280
vn 0.023784 -0.999706 -0.004731
vn 0.024250 -0.999706 -0.000000
vn 0.023784 -0.999706 0.004731
vn 0.022404 -0.999706 0.009280
vn 0.020163 -0.999706 0.013473
vn 0.017148 -0.999706 0.017148
vn 0.013473 -0.999706 0.020163
vn 0.009280 -0.999706 0.022404
vn 0.004731 -0.999706 0.023784
vn 0.000000 -0.999706 0.024250
vn -0.004731 -0.999706 0.023784
vn -0.009280 -0.999706 0.022404
vn -0.013473 -0.999706 0.020163
vn -0.017148 -0.999706 0.017148
vn -0.020163 -0.999706 0.013473
vn -0.022404 -0.999706 0.009280
vn -0.023784 -0.999706 0.004731
vn 0.000000 -1.000000 0.000000
f 1/1/1 3/34/3 2/33/2
f 1/2/1 4/35/4 3/34/3
f 1/3/1 5/36/5 4/35/4
f 1/4/1 6/37/6 5/36/5
f 1/5/1 7/38/7 6/37/6
f 1/6/1 8/39/8 7/38/7
f 1/7/1 9/40/9 8/39/8
f 1/8/1 10/41/10 9/40/9
f 1/9/1 11/42/11 10/41/10
f 1/10/1 12/43/12 11/42/11
f 1/11/1 13/44/13 12/43/12
f 1/12/1 14/45/14 13/44/13
f 1/13/1 15/46/15 14/45/14
f 1/14/1 16/47/16 15/46/15
f 1/15/1 17/48/17 16/47/16
f 1/16/1 18/49/18 17/48/17
f 1/17/1 19/50/19 18/49/18
f 1/18/1 20/51/20 19/50/19
f 1/19/1 21/52/21 20/51/20
f 1/20/1 22/53/22 21/52/21
f 1/21/1 23/54/23 22/53/22
f 1/22/1 24/55/24 23/54/23
f 1/23/1 25/56/25 24/55/24
f 1/24/1 26/57/26 25/56/25
f 1/25/1 27/58/27 26/57/26
f 1/26/1 28/59/28 27/58/27
f 1/27/1 29/60/29 28/59/28
f 1/28/1 30/61/30 29/60/29
f 1/29/1 31/62/31 30/61/30
f 1/30/1 32/63/32 31/62/31
f 1/31/1 33/64/33 32/63/32
f 1/32/1 2/65/2 33/64/33
f 2/33/2 3/34/3 35/67/35 34/66/34
f 3/34/3 4/35/4 36/68/36 35/67/35
f 4/35/4 5/36/5 37/69/37 36/68/36
f 5/36/5 6/37/6 38/70/38 37/69/37
f 6/37/6 7/38/7 39/71/39 38/70/38
f 7/38/7 8/39/8 40/72/40 39/71/39
f 8/39/8 9/40/9 41/73/41 40/72/40
f 9/40/9 10/41/10 42/74/42 41/73/41
f 10/41/10 11/42/11 43/75/43 42/74/42
f 11/42/11 12/43/12 44/76/44 43/75/43
f 12/43/12 13/44/13 45/77/45 44/76/44
f 13/44/13 14/45/14 46/78/46 45/77/45
f 14/45/14 15/46/15 47/79/47 46/78/46
f 15/46/15 16/47/16 48/80/48 47/79/47
f 16/47/16 17/48/17 49/81/49 48/80/48
f 17/48/17 18/49/18 50/82/50 49/81/49
f 18/49/18 19/50/19 51/83/51 50/82/50
f 19/50/19 20/51/20 52/84/52 51/83/51
f 20/51/20 21/52/21 53/85/53 52/84/52
f 21/52/21 22/53/22 54/86/54 53/85/53
f 22/53/22 23/54/23 55/87/55 54/86/54
f 23/54/23 24/55/24 56/88/56 55/87/55
f 24/55/24 25/56/25 57/89/57 56/88/56
f 25/56/25 26/57/26 58/90/58 57/89/57
f 26/57/26 27/58/27 59/91/59 58/90/58
f 27/58/27 28/59/28 60/92/60 59/91/59
f 28/59/28 29/60/29 61/93/61 60/92/60
f 29/60/29 30/61/30 62/94/62 61/93/61
f 30/61/30 31/62/31 63/95/63 62/94/62
f 31/62/31 32/63/32 64/96/64 63/95/63
f 32/63/32 33/64/33 65/97/65 64/96/64
f 33/64/33 2/65/2 34/98/34 65/97/65
f 34/66/66 35/67/67 67/100/99 66/99/98
f 35/67/67 36/68/68 68/101/100 67/100/99
f 36/68/68 37/69/69 69/102/101 68/101/100
f 37/69/69 38/70/70 70/103/102 69/102/101
f 38/70/70 39/71/71 71/104/103 70/103/102
f 39/71/71 40/72/72 72/105/104 71/104/103
f 40/72/72 41/73/73 73/106/105 72/105/104
f 41/73/73 42/74/74 74/107/106 73/106/105
f 42/74/74 43/75/75 75/108/107 74/107/106
f 43/75/75 44/76/76 76/109/108 75/108/107
f 44/76/76 45/77/77 77/110/109 76/109/108
f 45/77/77 46/78/78 78/111/110 77/110/109
f 46/78/78 47/79/79 79/112/111 78/111/110
f 47/79/79 48/80/80 80/113/112 79/112/111
f 48/80/80 49/81/81 81/114/113 80/113/112
f 49/81/81 50/82/82 82/115/114 81/114/113
f 50/82/82 51/83/83 83/116/115 82/115/114
f 51/83/83 52/84/84 84/117/116 83/116/115
f 52/84/84 53/85/85 85/118/117 84/117/116
f 53/85/85 54/86/86 86/119/118 85/118/117
f 54/86/86 55/87/87 87/120/119 86/119/118
f 55/87/87 56/88/88 88/121/120 87/120/119
f 56/88/88 57/89/89 89/122/121 88/121/120
f 57/89/89 58/90/90 90/123/122 89/122/121
f 58/90/90 59/91/91 91/124/123 90/123/122
f 59/91/91 60/92/92 92/125/124 91/124/123
f 60/92/92 61/93/93 93/126/125 92/125/124
f 61/93/93 62/94/94 94/127/126 93/126/125
f 62/94/94 63/95/95 95/128/127 94/127/126
f 63/95/95 64/96/96 96/129/128 95/128/127
f 64/96/96 65/97/97 97/130/129 96/129/128
f 65/97/97 34/98/66 66/131/98 97/130/129
f 66/99/98 67/100/99 99/133/131 98/132/130
f 67/100/99 68/101/100 100/134/132 99/133/131
f 68/101/100 69/102/101 101/135/133 100/134/132
f 69/102/101 70/103/102 102/136/134 101/135/133
f 70/103/102 71/104/103 103/137/135 102/136/134
f 71/104/103 72/105/104 104/138/136 103/137/135
f 72/105/104 73/106/105 105/139/137 104/138/136
f 73/106/105 74/107/106 106/140/138 105/139/137
f 74/107/106 75/108/107 107/141/139 106/140/138
f 75/108/107 76/109/108 108/142/140 107/141/139
f 76/109/108 77/110/109 109/143/141 108/142/140
f 77/110/109 78/111/110 110/144/142 109/143/141
f 78/111/110 79/112/111 111/145/143 110/144/142
f 79/112/111 80/113/112 112/146/144 111/145/143
f 80/113/112 81/114/113 113/147/145 112/146/144
f 81/114/113 82/115/114 114/148/146 113/147/145
f 82/115/114 83/116/115 115/149/147 114/148/146
f 83/116/115 84/117/116 116/150/148 115/149/147
f 84/117/116 85/118/117 117/151/149 116/150/148
f 85/118/117 86/119/118 118/152/150 117/151/149
f 86/119/118 87/120/119 119/153/151 118/152/150
f 87/120/119 88/121/120 120/154/152 119/153/151
f 88/121/120 89/122/121 121/155/153 120/154/152
f 89/122/121 90/123/122 122/156/154 121/155/153
f 90/123/122 91/124/123 123/157/155 122/156/154
f 91/124/123 92/125/124 124/158/156 123/157/155
f 92/125/124 93/126/125 125/159/157 124/158/156
f 93/126/125 94/127/126 126/160/158 125/159/157
f 94/127/126 95/128/127 127/161/159 126/160/158
f 95/128/127 96/129/128 128/162/160 127/161/159
f 96/129/128 97/130/129 129/163/161 128/162/160
f 97/130/129 66/131/98 98/164/130 129/163/161
f 98/132/162 99/133/163 131/166/195 130/165/194
f 99/133/163 100/134/164 132/167/196 131/166/195
f 100/134/164 101/135/165 133/168/197 132/167/196
f 101/135/165 102/136/166 134/169/198 133/168/197
f 102/136/166 103/137/167 135/170/199 134/169/198
f 103/137/167 104/138/168 136/171/200 135/170/199
f 104/138/168 105/139/169 137/172/201 136/171/200
f 105/139/169 106/140/170 138/173/202 137/172/201
f 106/140/170 107/141/171 139/174/203 138/173/202
f 107/141/171 108/142/172 140/175/204 139/174/203
f 108/142/172 109/143/173 141/176/205 140/175/204
f 109/143/173 110/144/174 142/177/206 141/176/205
f 110/144/174 111/145/175 143/178/207 142/177/206
f 111/145/175 112/146/176 144/179/208 143/178/207
f 112/146/176 113/147/177 145/180/209 144/179/208
f 113/147/177 114/148/178 146/181/210 145/180/209
f 114/148/178 115/149/179 147/182/211 146/181/210
f 115/149/179 116/150/180 148/183/212 147/182/211
f 116/150/180 117/151/181 149/184/213 148/183/212
f 117/151/181 118/152/182 150/185/214 149/184/213
f 118/152/182 119/153/183 151/186/215 150/185/214
f 119/153/183 120/154/184 152/187/216 151/186/215
f 120/154/184 121/155/185 153/188/217 152/187/216
f 121/155/185 122/156/186 154/189/218 153/188/217
f 122/156/186 123/157/187 155/190/219 154/189/218
f 123/157/187 124/158/188 156/191/220 155/190/219
f 124/158/188 125/159/189 157/192/221 156/191/220
f 125/159/189 126/160/190 158/193/222 157/192/221
f 126/160/190 127/161/191 159/194/223 158/193/222
f 127/161/191 128/162/192 160/195/224 159/194/223
f 128/162/192 129/163/193 161/196/225 160/195/224
f 129/163/193 98/164/162 130/197/194 161/196/225
f 130/165/194 131/166/195 163/199/227 162/198/226
f 131/166/195 132/167/196 164/200/228 163/199/227
f 132/167/196 133/168/197 165/201/229 164/200/228
f 133/168/197 134/169/198 166/202/230 165/201/229
f 134/169/198 135/170/199 167/203/231 166/202/230
f 135/170/199 136/171/200 168/204/232 167/203/231
f 136/171/200 137/172/201 169/205/233 168/204/232
f 137/172/201 138/173/202 170/206/234 169/205/233
f 138/173/202 139/174/203 171/207/235 170/206/234
f 139/174/203 140/175/204 172/208/236 171/207/235
f 140/175/204 141/176/205 173/209/237 172/208/236
f 141/176/205 142/177/206 174/210/238 173/209/237
f 142/177/206 143/178/207 175/211/239 174/210/238
f 143/178/207 144/179/208 176/212/240 175/211/239
f 144/179/208 145/180/209 177/213/241 176/212/240
f 145/180/209 146/181/210 178/214/242 177/213/241
f 146/181/210 147/182/211 179/215/243 178/214/242
f 147/182/211 148/183/212 180/216/244 179/215/243
f 148/183/212 149/184/213 181/217/245 180/216/244
f 149/184/213 150/185/214 182/218/246 181/217/245
f 150/185/214 151/186/215 183/219/247 182/218/246
f 151/186/215 152/187/216 184/220/248 183/219/247
f 152/187/216 153/188/217 185/221/249 184/220/248
f 153/188/217 154/189/218 186/222/250 185/221/249
f 154/189/218 155/190/219 187/223/251 186/222/250
f 155/190/219 156/191/220 188/224/252 187/223/251
f 156/191/220 157/192/221 189/225/253 188/224/252
f 157/192/221 158/193/222 190/226/254 189/225/253
f 158/193/222 159/194/223 191/227/255 190/226/254
f 159/194/223 160/195/224 192/228/256 191/227/255
f 160/195/224 161/196/225 193/229/257 192/228/256
f 161/196/225 130/197/194 162/230/226 193/229/257
f 162/198/226 163/199/227 195/232/259 194/231/258
f 163/199/227 164/200/228 196/233/260 195/232/259
f 164/200/228 165/201/229 197/234/261 196/233/260
f 165/201/229 166/202/230 198/235/262 197/234/261
f 166/202/230 167/203/231 199/236/263 198/235/262
f 167/203/231 168/204/232 200/237/264 199/236/263
f 168/204/232 169/205/233 201/238/265 200/237/264
f 169/205/233 170/206/234 202/239/266 201/238/265
f 170/206/234 171/207/235 203/240/267 202/239/266
f 171/207/235 172/208/236 204/241/268 203/240/267
f 172/208/236 173/209/237 205/242/269 204/241/268
f 173/209/237 174/210/238 206/243/270 205/242/269
f 174/210/238 175/211/239 207/244/271 206/243/270
f 175/211/239 176/212/240 208/245/272 207/244/271
f 176/212/240 177/213/241 209/246/273 208/245/272
f 177/213/241 178/214/242 210/247/274 209/246/273
f 178/214/242 179/215/243 211/248/275 210/247/274
f 179/215/243 180/216/244 212/249/276 211/248/275
f 180/216/244 181/217/245 213/250/277 212/249/276
f 181/217/245 182/218/246 214/251/278 213/250/277
f 182/218/246 183/219/247 215/252/279 214/251/278
f 183/219/247 184/220/248 216/253/280 215/252/279
f 184/220/248 185/221/249 217/254/281 216/253/280
f 185/221/249 186/222/250 218/255/282 217/254/281
f 186/222/250 187/223/251 219/256/283 218/255/282
f 187/223/251 188/224/252 220/257/284 219/256/283
f 188/224/252 189/225/253 221/258/285 220/257/284
f 189/225/253 190/226/254 222/259/286 221/258/285
f 190/226/254 191/227/255 223/260/287 222/259/286
f 191/227/255 192/228/256 224/261/288 223/260/287
f 192/228/256 193/229/257 225/262/289 224/261/288
f 193/229/257 162/230/226 194/263/258 225/262/289
f 194/231/290 195/232/291 227/265/323 226/264/322
f 195/232/291 196/233/292 228/266/324 227/265/323
f 196/233/292 197/234/293 229/267/325 228/266/324
f 197/234/293 198/235/294 230/268/326 229/267/325
f 198/235/294 199/236/295 231/269/327 230/268/326
f 199/236/295 200/237/296 232/270/328 231/269/327
f 200/237/296 201/238/297 233/271/329 232/270/328
f 201/238/297 202/239/298 234/272/330 233/271/329
f 202/239/298 203/240/299 235/273/331 234/272/330
f 203/240/299 204/241/300 236/274/332 235/273/331
f 204/241/300 205/242/301 237/275/333 236/274/332
f 205/242/301 206/243/302 238/276/334 237/275/333
f 206/243/302 207/244/303 239/277/335 238/276/334
f 207/244/303 208/245/304 240/278/336 239/277/335
f 208/245/304 209/246/305 241/279/337 240/278/336
f 209/246/305 210/247/306 242/280/338 241/279/337
f 210/247/306 211/248/307 243/281/339 242/280/338
f 211/248/307 212/249/308 244/282/340 243/281/339
f 212/249/308 213/250/309 245/283/341 244/282/340
f 213/250/309 214/251/310 246/284/342 245/283/341
f 214/251/310 215/252/311 247/285/343 246/284/342
f 215/252/311 216/253/312 248/286/344 247/285/343
f 216/253/312 217/254/313 249/287/345 248/286/344
f 217/254/313 218/255/314 250/288/346 249/287/345
f 218/255/314 219/256/315 251/289/347 250/288/346
f 219/256/315 220/257/316 252/290/348 251/289/347
f 220/257/316 221/258/317 253/291/349 252/290/348
f 221/258/317 222/259/318 254/292/350 253/291/349
f 222/259/318 223/260/319 255/293/351 254/292/350
f 223/260/319 224/261/320 256/294/352 255/293/351
f 224/261/320 225/262/321 257/295/353 256/294/352
f 225/262/321 194/263/290 226/296/322 257/295/353
f 226/264/322 227/265/323 259/298/355 258/297/354
f 227/265/323 228/266/324 260/299/356 259/298/355
f 228/266/324 229/267/325 261/300/357 260/299/356
f 229/267/325 230/268/326 262/301/358 261/300/357
f 230/268/326 231/269/327 263/302/359 262/301/358
f 231/269/327 232/270/328 264/303/360 263/302/359
f 232/270/328 233/271/329 265/304/361 264/303/360
f 233/271/329 234/272/330 266/305/362 265/304/361
f 234/272/330 235/273/331 267/306/363 266/305/362
f 235/273/331 236/274/332 268/307/364 267/306/363
f 236/274/332 237/275/333 269/308/365 268/307/364
f 237/275/333 238/276/334 270/309/366 269/308/365
f 238/276/334 239/277/335 271/310/367 270/309/366
f 239/277/335 240/278/336 272/311/368 271/310/367
f 240/278/336 241/279/337 273/312/369 272/311/368
f 241/279/337 242/280/338 274/313/370 273/312/369
f 242/280/338 243/281/339 275/314/371 274/313/370
f 243/281/339 244/282/340 276/315/372 275/314/371
f 244/282/340 245/283/341 277/316/373 276/315/372
f 245/283/341 246/284/342 278/317/374 277/316/373
f 246/284/342 247/285/343 279/318/375 278/317/374
f 247/285/343 248/286/344 280/319/376 279/318/375
f 248/286/344 249/287/345 281/320/377 280/319/376
f 249/287/345 250/288/346 282/321/378 281/320/377
f 250/288/346 251/289/347 283/322/379 282/321/378
f 251/289/347 252/290/348 284/323/380 283/322/379
f 252/290/348 253/291/349 285/324/381 284/323/380
f 253/291/349 254/292/350 286/325/382 285/324/381
f 254/292/350 255/293/351 287/326/383 286/325/382
f 255/293/351 256/294/352 288/327/384 287/326/383
f 256/294/352 257/295/353 289/328/385 288/327/384
f 257/295/353 226/296/322 258/329/354 289/328/385
f 258/297/354 259/298/355 291/331/387 290/330/386
f 259/298/355 260/299/356 292/332/388 291/331/387
f 260/299/356 261/300/357 293/333/389 292/332/388
f 261/300/357 262/301/358 294/334/390 293/333/389
f 262/301/358 263/302/359 295/335/391 294/334/390
f 263/302/359 264/303/360 296/336/392 295/335/391
f 264/303/360 265/304/361 297/337/393 296/336/392
f 265/304/361 266/305/362 298/338/394 297/337/393
f 266/305/362 267/306/363 299/339/395 298/338/394
f 267/306/363 268/307/364 300/340/396 299/339/395
f 268/307/364 269/308/365 301/341/397 300/340/396
f 269/308/365 270/309/366 302/342/398 301/341/397
f 270/309/366 271/310/367 303/343/399 302/342/398
f 271/310/367 272/311/368 304/344/400 303/343/399
f 272/311/368 273/312/369 305/345/401 304/344/400
f 273/312/369 274/313/370 306/346/402 305/345/401
f 274/313/370 275/314/371 307/347/403 306/346/402
f 275/314/371 276/315/372 308/348/404 307/347/403
f 276/315/372 277/316/373 309/349/405 308/348/404
f 277/316/373 278/317/374 310/350/406 309/349/405
f 278/317/374 279/318/375 311/351/407 310/350/406
f 279/318/375 280/319/376 312/352/408 311/351/407
f 280/319/376 281/320/377 313/353/409 312/352/408
f 281/320/377 282/321/378 314/354/410 313/353/409
f 282/321/378 283/322/379 315/355/411 314/354/410
f 283/322/379 284/323/380 316/356/412 315/355/411
f 284/323/380 285/324/381 317/357/413 316/356/412
f 285/324/381 286/325/382 318/358/414 317/357/413
f 286/325/382 287/326/383 319/359/415 318/358/414
f 287/326/383 288/327/384 320/360/416 319/359/415
f 288/327/384 289/328/385 321/361/417 320/360/416
f 289/328/385 258/329/354 290/362/386 321/361/417
f 290/330/386 291/331/387 323/364/419 322/363/418
f 291/331/387 292/332/388 324/365/420 323/364/419
f 292/332/388 293/333/389 325/366/421 324/365/420
f 293/333/389 294/334/390 326/367/422 325/366/421
f 294/334/390 295/335/391 327/368/423 326/367/422
f 295/335/391 296/336/392 328/369/424 327/368/423
f 296/336/392 297/337/393 329/370/425 328/369/424
f 297/337/393 298/338/394 330/371/426 329/370/425
f 298/338/394 299/339/395 331/372/427 330/371/426
f 299/339/395 300/340/396 332/373/428 331/372/427
f 300/340/396 301/341/397 333/374/429 332/373/428
f 301/341/397 302/342/398 334/375/430 333/374/429
f 302/342/398 303/343/399 335/376/431 334/375/430
f 303/343/399 304/344/400 336/377/432 335/376/431
f 304/344/400 305/345/401 337/378/433 336/377/432
f 305/345/401 306/346/402 338/379/434 337/378/433
f 306/346/402 307/347/403 339/380/435 338/379/434
f 307/347/403 308/348/404 340/381/436 339/380/435
f 308/348/404 309/349/405 341/382/437 340/381/436
f 309/349/405 310/350/406 342/383/438 341/382/437
f 310/350/406 311/351/407 343/384/439 342/383/438
f 311/351/407 312/352/408 344/385/440 343/384/439
f 312/352/408 313/353/409 345/386/441 344/385/440
f 313/353/409 314/354/410 346/387/442 345/386/441
f 314/354/410 315/355/411 347/388/443 346/387/442
f 315/355/411 316/356/412 348/389/444 347/388/443
f 316/356/412 317/357/413 349/390/445 348/389/444
f 317/357/413 318/358/414 350/391/446 349/390/445
f 318/358/414 319/359/415 351/392/447 350/391/446
f 319/359/415 320/360/416 352/393/448 351/392/447
f 320/360/416 321/361/417 353/394/449 352/393/448
f 321/361/417 290/362/386 322/395/418 353/394/449
f 322/363/450 323/364/451 355/397/483 354/396/482
f 323/364/451 324/365/452 356/398/484 355/397/483
f 324/365/452 325/366/453 357/399/485 356/398/484
f 325/366/453 326/367/454 358/400/486 357/399/485
f 326/367/454 327/368/455 359/401/487 358/400/486
f 327/368/455 328/369/456 360/402/488 359/401/487
f 328/369/456 329/370/457 361/403/489 360/402/488
f 329/370/457 330/371/458 362/404/490 361/403/489
f 330/371/458 331/372/459 363/405/491 362/404/490
f 331/372/459 332/373/460 364/406/492 363/405/491
f 332/373/460 333/374/461 365/407/493 364/406/492
f 333/374/461 334/375/462 366/408/494 365/407/493
f 334/375/462 335/376/463 367/409/495 366/408/494
f 335/376/463 336/377/464 368/410/496 367/409/495
f 336/377/464 337/378/465 369/411/497 368/410/496
f 337/378/465 338/379/466 370/412/498 369/411/497
f 338/379/466 339/380/467 371/413/499 370/412/498
f 339/380/467 340/381/468 372/414/500 371/413/499
f 340/381/468 341/382/469 373/415/501 372/414/500
f 341/382/469 342/383/470 374/416/502 373/415/501
f 342/383/470 343/384/471 375/417/503 374/416/502
f 343/384/471 344/385/472 376/418/504 375/417/503
f 344/385/472 345/386/473 377/419/505 376/418/504
f 345/386/473 346/387/474 378/420/506 377/419/505
f 346/387/474 347/388/475 379/421/507 378/420/506
f 347/388/475 348/389/476 380/422/508 379/421/507
f 348/389/476 349/390/477 381/423/509 380/422/508
f 349/390/477 350/391/478 382/424/510 381/423/509
f 350/391/478 351/392/479 383/425/511 382/424/510
f 351/392/479 352/393/480 384/426/512 383/425/511
f 352/393/480 353/394/481 385/427/513 384/426/512
f 353/394/481 322/395/450 354/428/482 385/427/513
f 386/429/514 354/396/482 355/397/483
f 386/430/514 355/397/483 356/398/484
f 386/431/514 356/398/484 357/399/485
f 386/432/514 357/399/485 358/400/486
f 386/433/514 358/400/486 359/401/487
f 386/434/514 359/401/487 360/402/488
f 386/435/514 360/402/488 361/403/489
f 386/436/514 361/403/489 362/404/490
f 386/437/514 362/404/490 363/405/491
f 386/438/514 363/405/491 364/406/492
f 386/439/514 364/406/492 365/407/493
f 386/440/514 365/407/493 366/408/494
f 386/441/514 366/408/494 367/409/495
f 386/442/514 367/409/495 368/410/496
f 386/443/514 368/410/496 369/411/497
f 386/444/514 369/411/497 370/412/498
f 386/445/514 370/412/498 371/413/499
f 386/446/514 371/413/499 372/414/500
f 386/447/514 372/414/500 373/415/501
f 386/448/514 373/415/501 374/416/502
f 386/449/514 374/416/502 375/417/503
f 386/450/514 375/417/503 376/418/504
f 386/451/514 376/418/504 377/419/505
f 386/452/514 377/419/505 378/420/506
f 386/453/514 378/420/506 379/421/507
f 386/454/514 379/421/507 380/422/508
f 386/455/514 380/422/508 381/423/509
f 386/456/514 381/423/509 382/424/510
f 386/457/514 382/424/510 383/425/511
f 386/458/514 383/425/511 384/426/512
f 386/459/514 384/426/512 385/427/513
f 386/460/514 385/427/513 354/428/482
